<?xml version="1.0" standalone="no"?>
<!DOCTYPE svg PUBLIC "-//W3C//DTD SVG 1.1//EN" "http://www.w3.org/Graphics/SVG/1.1/DTD/svg11.dtd" >
<svg>
<metadata>
Created by FontForge 20090622 at Fri Apr 10 10:04:44 2015
 By deploy user
2014 published by FontShop International GmbH
</metadata>
<defs>
<font id="BauerGroteskPro-Demibold" horiz-adv-x="1" >
  <font-face 
    font-family="BauerGroteskPro-Demibold"
    font-weight="600"
    font-stretch="normal"
    units-per-em="1000"
    panose-1="2 11 7 4 2 2 1 1 1 2"
    ascent="812"
    descent="-188"
    x-height="419"
    cap-height="710"
    bbox="-726 -299 1218 1122"
    underline-thickness="90"
    underline-position="-10"
    unicode-range="U+000D-U+FEFF"
  />
<missing-glyph horiz-adv-x="537" 
d="M68 0v710h401v-710h-401zM195 127h147v456h-147v-456z" />
    <glyph glyph-name="arrowleft" unicode="&#x3c;&#x2d;" horiz-adv-x="757" 
d="M289 62l-283 283l284 286l95 -93l-48 -46q-44 -44 -91 -79h470v-136h-471q52 -38 92 -78l48 -46z" />
    <glyph glyph-name="arrowright" unicode="&#x2d;&#x3e;" horiz-adv-x="757" 
d="M468 629l283 -283l-284 -286l-95 93l48 46q44 44 91 79h-470v136h471q-52 38 -92 78l-48 46z" />
    <glyph glyph-name="uni2780" unicode="&#x28;&#x28;&#x31;&#x29;&#x29;" horiz-adv-x="865" 
d="M433 753q168 0 279 -115t111 -284q0 -168 -111 -283t-279 -115t-279.5 115t-111.5 283q0 169 111.5 284t279.5 115zM433 667q-131 0 -217.5 -90t-86.5 -223t86.5 -222.5t217.5 -89.5q130 0 216.5 89.5t86.5 222.5t-86.5 223t-216.5 90zM501 553h10v-392h-114v232l-50 -20
l-39 94z" />
    <glyph glyph-name="uni2781" unicode="&#x28;&#x28;&#x32;&#x29;&#x29;" horiz-adv-x="865" 
d="M433 753q168 0 279 -115t111 -284q0 -168 -111 -283t-279 -115t-279.5 115t-111.5 283q0 169 111.5 284t279.5 115zM433 667q-131 0 -217.5 -90t-86.5 -223t86.5 -222.5t217.5 -89.5q130 0 216.5 89.5t86.5 222.5t-86.5 223t-216.5 90zM445 561q39 0 67.5 -13t42 -33.5
t19 -39t5.5 -36.5q0 -34 -16.5 -65.5t-34.5 -48.5t-45.5 -39t-33.5 -28h131v-97h-290q5 54 39 101q21 32 57.5 63.5t59 55.5t22.5 49q0 14 -8.5 23.5t-24.5 9.5t-26.5 -10.5t-10.5 -26.5q0 -12 4 -24l-93 -19q-10 18 -10 53q0 49 38.5 87t107.5 38z" />
    <glyph glyph-name="uni2782" unicode="&#x28;&#x28;&#x33;&#x29;&#x29;" horiz-adv-x="865" 
d="M433 753q168 0 279 -115t111 -284q0 -168 -111 -283t-279 -115t-279.5 115t-111.5 283q0 169 111.5 284t279.5 115zM433 667q-131 0 -217.5 -90t-86.5 -223t86.5 -222.5t217.5 -89.5q130 0 216.5 89.5t86.5 222.5t-86.5 223t-216.5 90zM450 559q47 0 80 -24.5t33 -72.5
q0 -36 -18 -61.5t-47 -34.5q34 -7 57.5 -32.5t23.5 -65.5q0 -47 -34 -80.5t-107 -33.5q-84 0 -138 48l46 75q40 -28 75 -28q46 0 46 34q0 35 -70 35h-21v77h21q59 0 59 39q0 12 -9.5 21t-28.5 9q-30 0 -63 -24l-40 68q16 18 54 34.5t81 16.5z" />
    <glyph glyph-name="uni2783" unicode="&#x28;&#x28;&#x34;&#x29;&#x29;" horiz-adv-x="865" 
d="M433 753q168 0 279 -115t111 -284q0 -168 -111 -283t-279 -115t-279.5 115t-111.5 283q0 169 111.5 284t279.5 115zM433 667q-131 0 -217.5 -90t-86.5 -223t86.5 -222.5t217.5 -89.5q130 0 216.5 89.5t86.5 222.5t-86.5 223t-216.5 90zM452 553h88v-232h43v-86h-43v-74
h-106v74h-176v73zM434 418l-75 -97h75v97z" />
    <glyph glyph-name="uni2784" unicode="&#x28;&#x28;&#x35;&#x29;&#x29;" horiz-adv-x="865" 
d="M433 753q168 0 279 -115t111 -284q0 -168 -111 -283t-279 -115t-279.5 115t-111.5 283q0 169 111.5 284t279.5 115zM433 667q-131 0 -217.5 -90t-86.5 -223t86.5 -222.5t217.5 -89.5q130 0 216.5 89.5t86.5 222.5t-86.5 223t-216.5 90zM358 552h202v-91h-129l-7 -50
q16 4 29 4q57 0 94.5 -30.5t37.5 -90.5q0 -65 -40 -102.5t-109 -37.5q-90 0 -137 47l43 80q40 -29 79 -29q23 0 38 11t15 32q0 44 -64 44q-21 0 -71 -14l-17 10z" />
    <glyph glyph-name="uni2785" unicode="&#x28;&#x28;&#x36;&#x29;&#x29;" horiz-adv-x="865" 
d="M433 753q168 0 279 -115t111 -284q0 -168 -111 -283t-279 -115t-279.5 115t-111.5 283q0 169 111.5 284t279.5 115zM433 667q-131 0 -217.5 -90t-86.5 -223t86.5 -222.5t217.5 -89.5q130 0 216.5 89.5t86.5 222.5t-86.5 223t-216.5 90zM414 554h115q-5 -9 -18.5 -28.5
l-36 -51.5l-41.5 -60q10 5 29 5q46 0 84.5 -31.5t38.5 -90.5q0 -69 -41.5 -106t-104.5 -37q-77 0 -115 43t-38 102q0 51 34 114q32 57 94 141zM436 336q-16 0 -27 -12t-11 -30q0 -21 10.5 -31.5t26.5 -10.5q38 0 38 42q0 20 -10.5 31t-26.5 11z" />
    <glyph glyph-name="uni2786" unicode="&#x28;&#x28;&#x37;&#x29;&#x29;" horiz-adv-x="865" 
d="M433 753q168 0 279 -115t111 -284q0 -168 -111 -283t-279 -115t-279.5 115t-111.5 283q0 169 111.5 284t279.5 115zM433 667q-131 0 -217.5 -90t-86.5 -223t86.5 -222.5t217.5 -89.5q130 0 216.5 89.5t86.5 222.5t-86.5 223t-216.5 90zM300 552h317v-11l-180 -383h-119
l138 294h-156v100z" />
    <glyph glyph-name="uni2787" unicode="&#x28;&#x28;&#x38;&#x29;&#x29;" horiz-adv-x="865" 
d="M433 753q168 0 279 -115t111 -284q0 -168 -111 -283t-279 -115t-279.5 115t-111.5 283q0 169 111.5 284t279.5 115zM433 667q-131 0 -217.5 -90t-86.5 -223t86.5 -222.5t217.5 -89.5q130 0 216.5 89.5t86.5 222.5t-86.5 223t-216.5 90zM437 560q62 0 98 -31.5t36 -75.5
q0 -56 -48 -86q65 -27 65 -92q0 -55 -40 -88t-112 -33q-71 0 -112 33.5t-41 85.5q0 62 66 92q-48 32 -48 82q0 47 37.5 80t98.5 33zM436 472q-15 0 -23.5 -9.5t-8.5 -23.5q0 -30 33 -44q31 17 31 44q0 14 -8 23.5t-24 9.5zM436 330q-18 -3 -31 -15.5t-13 -31.5
q0 -17 12.5 -29.5t32.5 -12.5q18 0 30 12.5t12 29.5q0 36 -43 47z" />
    <glyph glyph-name="uni2788" unicode="&#x28;&#x28;&#x39;&#x29;&#x29;" horiz-adv-x="865" 
d="M433 753q168 0 279 -115t111 -284q0 -168 -111 -283t-279 -115t-279.5 115t-111.5 283q0 169 111.5 284t279.5 115zM433 667q-131 0 -217.5 -90t-86.5 -223t86.5 -222.5t217.5 -89.5q130 0 216.5 89.5t86.5 222.5t-86.5 223t-216.5 90zM439 559q77 0 114.5 -44.5
t37.5 -101.5q0 -46 -20 -89q-13 -29 -28 -56t-37.5 -63.5l-28.5 -46.5h-117q1 1 30 49.5l52 89.5q-10 -2 -22 -2q-48 0 -88 31.5t-40 91.5q0 66 43 103.5t104 37.5zM441 460q-16 0 -27 -11t-11 -31t11 -30.5t27 -10.5t26.5 11.5t10.5 28.5q0 21 -10.5 32t-26.5 11z" />
    <glyph glyph-name="uni24EA" unicode="&#x28;&#x28;&#x30;&#x29;&#x29;" horiz-adv-x="865" 
d="M433 753q168 0 279 -115t111 -284q0 -168 -111 -283t-279 -115t-279.5 115t-111.5 283q0 169 111.5 284t279.5 115zM433 667q-131 0 -217.5 -90t-86.5 -223t86.5 -222.5t217.5 -89.5q130 0 216.5 89.5t86.5 222.5t-86.5 223t-216.5 90zM433 559q78 0 121 -55.5t43 -143.5
q0 -93 -45 -149.5t-119 -56.5t-119.5 56.5t-45.5 149.5q0 87 44 143t121 56zM432 461q-51 0 -51 -101q0 -109 52 -109q51 0 51 108q0 102 -52 102z" />
    <glyph glyph-name="uni24FF" unicode="&#x28;&#x28;&#x28;&#x30;&#x29;&#x29;&#x29;" horiz-adv-x="865" 
d="M433 753q168 0 279 -115t111 -284q0 -168 -111 -283t-279 -115t-279.5 115t-111.5 283q0 169 111.5 284t279.5 115zM433 559q-77 0 -121 -56t-44 -143q0 -93 45.5 -149.5t119.5 -56.5t119 56.5t45 149.5q0 88 -43 143.5t-121 55.5zM432 461q52 0 52 -102q0 -108 -51 -108
q-52 0 -52 109q0 101 51 101z" />
    <glyph glyph-name="uni25B6" unicode="&#x3e;&#x3e;" horiz-adv-x="764" 
d="M734 355l-654 -270v540z" />
    <glyph glyph-name="uni25C0" unicode="&#x3c;&#x3c;" horiz-adv-x="764" 
d="M30 355l654 270v-540z" />
    <glyph glyph-name="uni278A" unicode="&#x28;&#x28;&#x28;&#x31;&#x29;&#x29;&#x29;" horiz-adv-x="865" 
d="M433 753q168 0 279 -115t111 -284q0 -168 -111 -283t-279 -115t-279.5 115t-111.5 283q0 169 111.5 284t279.5 115zM501 553l-193 -86l39 -94l50 20v-232h114v392h-10z" />
    <glyph glyph-name="uni278B" unicode="&#x28;&#x28;&#x28;&#x32;&#x29;&#x29;&#x29;" horiz-adv-x="865" 
d="M433 753q168 0 279 -115t111 -284q0 -168 -111 -283t-279 -115t-279.5 115t-111.5 283q0 169 111.5 284t279.5 115zM445 561q-69 0 -107.5 -38t-38.5 -87q0 -35 10 -53l93 19q-4 12 -4 24q0 16 10.5 26.5t26.5 10.5t24.5 -9.5t8.5 -23.5q0 -25 -22.5 -49t-59 -55.5
t-57.5 -63.5q-34 -47 -39 -101h290v97h-131q6 6 33.5 28t45.5 39t34.5 48.5t16.5 65.5q0 18 -5.5 36.5t-19 39t-42 33.5t-67.5 13z" />
    <glyph glyph-name="uni278C" unicode="&#x28;&#x28;&#x28;&#x33;&#x29;&#x29;&#x29;" horiz-adv-x="865" 
d="M433 753q168 0 279 -115t111 -284q0 -168 -111 -283t-279 -115t-279.5 115t-111.5 283q0 169 111.5 284t279.5 115zM450 559q-43 0 -81 -16.5t-54 -34.5l40 -68q33 24 63 24q19 0 28.5 -9t9.5 -21q0 -39 -59 -39h-21v-77h21q70 0 70 -35q0 -34 -46 -34q-35 0 -75 28
l-46 -75q54 -48 138 -48q73 0 107 33.5t34 80.5q0 40 -23.5 65.5t-57.5 32.5q29 9 47 34.5t18 61.5q0 48 -33 72.5t-80 24.5z" />
    <glyph glyph-name="uni278D" unicode="&#x28;&#x28;&#x28;&#x34;&#x29;&#x29;&#x29;" horiz-adv-x="865" 
d="M433 753q168 0 279 -115t111 -284q0 -168 -111 -283t-279 -115t-279.5 115t-111.5 283q0 169 111.5 284t279.5 115zM452 553l-194 -245v-73h176v-74h106v74h43v86h-43v232h-88zM434 419v-98h-76z" />
    <glyph glyph-name="uni278E" unicode="&#x28;&#x28;&#x28;&#x35;&#x29;&#x29;&#x29;" horiz-adv-x="865" 
d="M433 753q168 0 279 -115t111 -284q0 -168 -111 -283t-279 -115t-279.5 115t-111.5 283q0 169 111.5 284t279.5 115zM358 552l-36 -217l17 -10q50 14 71 14q64 0 64 -44q0 -21 -15 -32t-38 -11q-39 0 -79 29l-43 -80q47 -47 137 -47q69 0 109 37.5t40 102.5
q0 60 -37.5 90.5t-94.5 30.5q-13 0 -29 -4l7 50h129v91h-202z" />
    <glyph glyph-name="uni278F" unicode="&#x28;&#x28;&#x28;&#x36;&#x29;&#x29;&#x29;" horiz-adv-x="865" 
d="M433 753q168 0 279 -115t111 -284q0 -168 -111 -283t-279 -115t-279.5 115t-111.5 283q0 169 111.5 284t279.5 115zM414 554q-62 -84 -94 -141q-34 -63 -34 -114q0 -59 38 -102t115 -43q63 0 104.5 37t41.5 106q0 59 -38.5 90.5t-84.5 31.5q-19 0 -29 -5l41.5 60l36 51.5
t18.5 28.5h-115zM436 336q16 0 26.5 -11t10.5 -31q0 -42 -38 -42q-16 0 -26.5 10.5t-10.5 31.5q0 18 11 30t27 12z" />
    <glyph glyph-name="uni2790" unicode="&#x28;&#x28;&#x28;&#x37;&#x29;&#x29;&#x29;" horiz-adv-x="865" 
d="M433 753q168 0 279 -115t111 -284q0 -168 -111 -283t-279 -115t-279.5 115t-111.5 283q0 169 111.5 284t279.5 115zM300 552v-100h156l-138 -294h119l180 383v11h-317z" />
    <glyph glyph-name="uni2791" unicode="&#x28;&#x28;&#x28;&#x38;&#x29;&#x29;&#x29;" horiz-adv-x="865" 
d="M433 753q168 0 279 -115t111 -284q0 -168 -111 -283t-279 -115t-279.5 115t-111.5 283q0 169 111.5 284t279.5 115zM437 560q-61 0 -98.5 -33t-37.5 -80q0 -50 48 -82q-66 -30 -66 -92q0 -52 41 -85.5t112 -33.5q72 0 112 33t40 88q0 65 -65 92q48 30 48 86
q0 44 -36 75.5t-98 31.5zM436 472q16 0 24 -9.5t8 -23.5q0 -27 -31 -44q-33 14 -33 44q0 14 8.5 23.5t23.5 9.5zM436 330q43 -11 43 -47q0 -17 -12 -29.5t-30 -12.5q-20 0 -32.5 12.5t-12.5 29.5q0 19 13 31.5t31 15.5z" />
    <glyph glyph-name="uni2792" unicode="&#x28;&#x28;&#x28;&#x39;&#x29;&#x29;&#x29;" horiz-adv-x="865" 
d="M433 753q168 0 279 -115t111 -284q0 -168 -111 -283t-279 -115t-279.5 115t-111.5 283q0 169 111.5 284t279.5 115zM439 559q-61 0 -104 -37.5t-43 -103.5q0 -60 40 -91.5t88 -31.5q12 0 22 2l-52 -89.5t-30 -49.5h117l28.5 46.5t37.5 63.5t28 56q20 43 20 89
q0 57 -37.5 101.5t-114.5 44.5zM441 460q16 0 26.5 -11t10.5 -32q0 -17 -10.5 -28.5t-26.5 -11.5t-27 10.5t-11 30.5t11 31t27 11z" />
    <glyph glyph-name="uniE001" unicode="&#x3c;&#x2d;&#x2d;" horiz-adv-x="757" 
d="M244 107l-238 238l238 240l93 -92l-25 -24q-27 -27 -69 -56h473v-136h-474q38 -26 73 -58l22 -22z" />
    <glyph glyph-name="uniE003" unicode="&#x2d;&#x2d;&#x3e;" horiz-adv-x="757" 
d="M513 584l238 -238l-238 -240l-93 92l25 24q27 27 69 56h-473v136h474q-38 26 -73 58l-22 22z" />
    <glyph glyph-name="uniE0E0" unicode="[[[&#x30;]]]" horiz-adv-x="918" 
d="M68 746h782v-782h-782v782zM462 559q-77 0 -121 -56t-44 -143q0 -93 45.5 -149.5t119.5 -56.5t119 56.5t45 149.5q0 88 -43.5 143.5t-120.5 55.5zM461 461q52 0 52 -102q0 -108 -51 -108q-52 0 -52 109q0 101 51 101z" />
    <glyph glyph-name="uniE0E1" unicode="[[[&#x31;]]]" horiz-adv-x="918" 
d="M68 746h782v-782h-782v782zM530 553l-194 -86l40 -94l49 20v-232h114v392h-9z" />
    <glyph glyph-name="uniE0E2" unicode="[[[&#x32;]]]" horiz-adv-x="918" 
d="M68 746h782v-782h-782v782zM473 561q-69 0 -108 -38t-39 -87q0 -35 10 -53l94 19q-4 12 -4 24q0 16 10.5 26.5t26.5 10.5t24.5 -9.5t8.5 -23.5q0 -25 -22.5 -49t-59 -55.5t-57.5 -63.5q-34 -47 -39 -101h290v97h-131q6 6 33.5 28t45.5 39t34.5 48.5t16.5 65.5
q0 18 -5.5 36.5t-19 39t-42 33.5t-67.5 13z" />
    <glyph glyph-name="uniE0E3" unicode="[[[&#x33;]]]" horiz-adv-x="918" 
d="M68 746h782v-782h-782v782zM475 559q-43 0 -80 -16t-55 -35l41 -68q31 24 62 24q19 0 29 -9t10 -21q0 -39 -60 -39h-21v-77h21q71 0 71 -35q0 -34 -46 -34q-36 0 -76 28l-45 -75q54 -48 137 -48q73 0 107.5 33.5t34.5 80.5q0 40 -24 65.5t-58 32.5q29 9 47.5 34.5
t18.5 61.5q0 48 -33.5 72.5t-80.5 24.5z" />
    <glyph glyph-name="uniE0E4" unicode="[[[&#x34;]]]" horiz-adv-x="918" 
d="M68 746h782v-782h-782v782zM481 553l-194 -245v-73h176v-74h105v74h43v86h-43v232h-87zM463 418v-97h-75z" />
    <glyph glyph-name="uniE0E5" unicode="[[[&#x35;]]]" horiz-adv-x="918" 
d="M68 746h782v-782h-782v782zM386 552l-36 -217l17 -10q48 14 71 14q64 0 64 -44q0 -21 -15 -32t-38 -11q-37 0 -80 29l-43 -80q47 -47 138 -47q69 0 109 37.5t40 102.5q0 60 -37.5 90.5t-95.5 30.5q-13 0 -29 -4l8 50h129v91h-202z" />
    <glyph glyph-name="uniE0E6" unicode="[[[&#x36;]]]" horiz-adv-x="918" 
d="M68 746h782v-782h-782v782zM443 554q-66 -89 -94 -141q-34 -63 -34 -114q0 -59 38 -102t115 -43q63 0 104.5 37t41.5 106q0 59 -38.5 90.5t-84.5 31.5q-21 0 -29 -5l41.5 60l36 51.5t18.5 28.5h-115zM465 336q15 0 26 -11t11 -31q0 -42 -38 -42q-16 0 -27 10.5t-11 31.5
q0 18 11 30t28 12z" />
    <glyph glyph-name="uniE0E7" unicode="[[[&#x37;]]]" horiz-adv-x="918" 
d="M68 746h782v-782h-782v782zM326 552v-100h157l-138 -294h119l180 383v11h-318z" />
    <glyph glyph-name="uniE0E8" unicode="[[[&#x38;]]]" horiz-adv-x="918" 
d="M68 746h782v-782h-782v782zM463 560q-61 0 -99 -33t-38 -80q0 -49 49 -82q-66 -30 -66 -92q0 -53 40.5 -86t112.5 -33q71 0 111.5 33.5t40.5 87.5q0 65 -66 92q21 12 34.5 35.5t13.5 50.5q0 44 -36 75.5t-97 31.5zM462 472q16 0 24 -9.5t8 -23.5q0 -27 -31 -44
q-34 14 -34 44q0 14 9 23.5t24 9.5zM462 330q42 -11 42 -47q0 -17 -12 -29.5t-30 -12.5q-20 0 -32 12.5t-12 29.5q0 19 13 31.5t31 15.5z" />
    <glyph glyph-name="uniE0E9" unicode="[[[&#x39;]]]" horiz-adv-x="918" 
d="M68 746h782v-782h-782v782zM466 559q-61 0 -104 -37.5t-43 -103.5q0 -60 40 -91.5t88 -31.5q12 0 22 2l-83 -139h117l22.5 36.5l26 42t23 40.5t23.5 47q20 43 20 89q0 57 -37.5 101.5t-114.5 44.5zM468 460q16 0 26.5 -11t10.5 -32q0 -17 -10.5 -28.5t-26.5 -11.5
t-27 10.5t-11 30.5t11 31t27 11z" />
    <glyph glyph-name="uniE0EA" unicode="[[&#x30;]]" horiz-adv-x="918" 
d="M68 746h782v-782h-782v782zM154 661v-612h610v612h-610zM462 559q77 0 120.5 -55.5t43.5 -143.5q0 -93 -45 -149.5t-119 -56.5t-119.5 56.5t-45.5 149.5q0 87 44 143t121 56zM461 461q-51 0 -51 -101q0 -109 52 -109q51 0 51 108q0 102 -52 102z" />
    <glyph glyph-name="uniE0EB" unicode="[[&#x31;]]" horiz-adv-x="918" 
d="M68 746h782v-782h-782v782zM154 661v-612h610v612h-610zM530 553h9v-392h-114v232l-49 -20l-40 94z" />
    <glyph glyph-name="uniE0EC" unicode="[[&#x32;]]" horiz-adv-x="918" 
d="M68 746h782v-782h-782v782zM154 661v-612h610v612h-610zM473 561q39 0 67.5 -13t42 -33.5t19 -39t5.5 -36.5q0 -34 -16.5 -65.5t-34.5 -48.5t-45.5 -39t-33.5 -28h131v-97h-290q5 54 39 101q21 32 57.5 63.5t59 55.5t22.5 49q0 14 -8.5 23.5t-24.5 9.5t-26.5 -10.5
t-10.5 -26.5q0 -12 4 -24l-94 -19q-10 18 -10 53q0 49 39 87t108 38z" />
    <glyph glyph-name="uniE0ED" unicode="[[&#x33;]]" horiz-adv-x="918" 
d="M68 746h782v-782h-782v782zM154 661v-612h610v612h-610zM475 559q47 0 80.5 -24.5t33.5 -72.5q0 -36 -18.5 -61.5t-47.5 -34.5q34 -7 58 -32.5t24 -65.5q0 -47 -34.5 -80.5t-107.5 -33.5q-83 0 -137 48l45 75q40 -28 76 -28q46 0 46 34q0 35 -71 35h-21v77h21q60 0 60 39
q0 12 -10 21t-29 9q-31 0 -62 -24l-41 68q18 19 55 35t80 16z" />
    <glyph glyph-name="uniE0EE" unicode="[[&#x34;]]" horiz-adv-x="918" 
d="M68 746h782v-782h-782v782zM154 661v-612h610v612h-610zM481 553h87v-232h43v-86h-43v-74h-105v74h-176v73zM463 418l-75 -97h75v97z" />
    <glyph glyph-name="uniE0EF" unicode="[[&#x35;]]" horiz-adv-x="918" 
d="M68 746h782v-782h-782v782zM154 661v-612h610v612h-610zM386 552h202v-91h-129l-8 -50q16 4 29 4q58 0 95.5 -30.5t37.5 -90.5q0 -65 -40 -102.5t-109 -37.5q-91 0 -138 47l43 80q43 -29 80 -29q23 0 38 11t15 32q0 44 -64 44q-23 0 -71 -14l-17 10z" />
    <glyph glyph-name="uniE0F0" unicode="[[&#x36;]]" horiz-adv-x="918" 
d="M68 746h782v-782h-782v782zM154 661v-612h610v612h-610zM443 554h115q-5 -9 -18.5 -28.5l-36 -51.5l-41.5 -60q8 5 29 5q46 0 84.5 -31.5t38.5 -90.5q0 -69 -41.5 -106t-104.5 -37q-77 0 -115 43t-38 102q0 51 34 114q28 52 94 141zM465 336q-17 0 -28 -12t-11 -30
q0 -21 11 -31.5t27 -10.5q38 0 38 42q0 20 -11 31t-26 11z" />
    <glyph glyph-name="uniE0F1" unicode="[[&#x37;]]" horiz-adv-x="918" 
d="M68 746h782v-782h-782v782zM154 661v-612h610v612h-610zM326 552h318v-11l-180 -383h-119l138 294h-157v100z" />
    <glyph glyph-name="uniE0F2" unicode="[[&#x38;]]" horiz-adv-x="918" 
d="M68 746h782v-782h-782v782zM154 661v-612h610v612h-610zM463 560q61 0 97 -31.5t36 -75.5q0 -27 -13.5 -50.5t-34.5 -35.5q66 -27 66 -92q0 -54 -40.5 -87.5t-111.5 -33.5q-72 0 -112.5 33t-40.5 86q0 62 66 92q-49 33 -49 82q0 47 38 80t99 33zM462 472q-15 0 -24 -9.5
t-9 -23.5q0 -30 34 -44q31 17 31 44q0 14 -8 23.5t-24 9.5zM462 330q-18 -3 -31 -15.5t-13 -31.5q0 -17 12 -29.5t32 -12.5q18 0 30 12.5t12 29.5q0 36 -42 47z" />
    <glyph glyph-name="uniE0F3" unicode="[[&#x39;]]" horiz-adv-x="918" 
d="M68 746h782v-782h-782v782zM154 661v-612h610v612h-610zM466 559q77 0 114.5 -44.5t37.5 -101.5q0 -46 -20 -89q-10 -22 -23.5 -47t-23 -40.5l-26 -42l-22.5 -36.5h-117l83 139q-10 -2 -22 -2q-48 0 -88 31.5t-40 91.5q0 66 43 103.5t104 37.5zM468 460q-16 0 -27 -11
t-11 -31t11 -30.5t27 -10.5t26.5 11.5t10.5 28.5q0 21 -10.5 32t-26.5 11z" />
    <glyph glyph-name="f_f" unicode="ff" horiz-adv-x="593" 
d="M286 699q67 0 112 -33q44 47 124 47q28 0 51 -4v-112h-10q-44 0 -61 -19.5t-17 -66.5v-92h89v-112h-89v-307h-130v307h-134v-307h-130v307h-63v112h63v54q0 115 55 170.5t140 55.5zM303 580q-40 0 -61 -25t-21 -69v-67h134v105q0 34 1 37q-17 19 -53 19z" />
    <glyph glyph-name="f_f_f" unicode="fff" horiz-adv-x="857" 
d="M287 699q78 0 131 -48q49 48 132 48q67 0 112 -33q44 47 124 47q30 0 51 -4v-112h-10q-44 0 -61 -19.5t-17 -66.5v-92h89v-112h-89v-307h-130v307h-134v-307h-130v307h-134v-307h-130v307h-63v112h63v54q0 115 55.5 170.5t140.5 55.5zM303 580q-40 0 -61 -25t-21 -69v-67
h134v54q0 49 9 80q-23 27 -61 27zM568 580q-83 0 -83 -94v-67h134v102q0 37 1 40q-19 19 -52 19z" />
    <glyph glyph-name="f_f_i" unicode="ffi" horiz-adv-x="793" 
d="M287 699q76 0 127 -44q60 57 151 57q107 0 163 -68l-59 -90q-37 38 -91 38q-44 0 -70 -29t-26 -82v-62h261v-419h-131v307h-130v-307h-130v307h-131v-307h-130v307h-63v112h63v54q0 115 55.5 170.5t140.5 55.5zM303 580q-82 0 -82 -93v-68h131v72q0 33 8 65
q-20 24 -57 24z" />
    <glyph glyph-name="f_f_l" unicode="ffl" horiz-adv-x="805" 
d="M286 699q75 0 127 -44q59 65 152 65q59 0 124 -37h69v-683h-131v582q-19 19 -56 19q-39 0 -60 -25t-21 -68v-89h91v-112h-91v-307h-130v307h-139v-307h-130v307h-63v112h63v54q0 115 55 170.5t140 55.5zM303 580q-40 0 -61 -24.5t-21 -68.5v-68h139v88q0 30 4 47
q-22 26 -61 26z" />
    <glyph glyph-name="f_i" unicode="fi" horiz-adv-x="532" 
d="M304 712q104 0 163 -68l-59 -90q-38 38 -90 38q-45 0 -71 -29t-26 -83v-61h261v-419h-131v307h-130v-307h-130v307h-63v112h63v72q0 109 64 165t149 56z" />
    <glyph glyph-name="f_l" unicode="fl" horiz-adv-x="536" 
d="M294 720q61 0 126 -37h69v-683h-131v582q-19 19 -57 19q-39 0 -59.5 -24.5t-20.5 -68.5v-89h91v-112h-91v-307h-130v307h-63v112h63v90q0 95 59.5 153t143.5 58z" />
    <glyph glyph-name=".notdef" horiz-adv-x="537" 
d="M68 0v710h401v-710h-401zM195 127h147v456h-147v-456z" />
    <glyph glyph-name=".null" horiz-adv-x="0" 
 />
    <glyph glyph-name=".null" horiz-adv-x="0" 
 />
    <glyph glyph-name="nonmarkingreturn" horiz-adv-x="333" 
 />
    <glyph glyph-name="CR" unicode="&#xd;" horiz-adv-x="156" 
 />
    <glyph glyph-name="space" unicode=" " horiz-adv-x="156" 
 />
    <glyph glyph-name="exclam" unicode="!" horiz-adv-x="267" 
d="M62 710h142l-11 -486h-119zM133 141q31 0 53.5 -22.5t22.5 -53.5t-22 -53t-54 -22q-31 0 -53 22t-22 53q0 32 22 54t53 22z" />
    <glyph glyph-name="quotedbl" unicode="&#x22;" horiz-adv-x="335" 
d="M194 663h111v-257h-111v257zM29 663h111v-257h-111v257z" />
    <glyph glyph-name="numbersign" unicode="#" horiz-adv-x="594" 
d="M178 637h103l-19 -155h112l19 155h103l-19 -155h83v-104h-96l-14 -114h84v-104h-96l-19 -160h-103l19 160h-113l-18 -160h-104l20 160h-86v104h98l14 114h-86v104h99zM249 378l-14 -114h112l14 114h-112z" />
    <glyph glyph-name="dollar" unicode="$" horiz-adv-x="463" 
d="M194 721h92v-86q80 -11 137 -69l-59 -98q-17 20 -47.5 35.5t-66.5 15.5q-35 0 -53.5 -14t-18.5 -36q0 -20 11 -33t39 -26l52 -25q88 -41 121.5 -86.5t33.5 -102.5q0 -63 -41.5 -110.5t-107.5 -62.5v-93h-92v90q-95 9 -153 63v124h11q15 -20 66 -44t103 -24q82 0 82 59
q0 36 -65 69l-57 27q-136 65 -136 175q0 60 42.5 104.5t106.5 58.5v89z" />
    <glyph glyph-name="percent" unicode="%" horiz-adv-x="836" 
d="M205 674q71 0 122 -50.5t51 -122.5q0 -70 -51 -120.5t-122 -50.5t-121 50t-50 121q0 72 50 122.5t121 50.5zM205 569q-28 0 -46.5 -19.5t-18.5 -48.5q0 -28 18.5 -47t46.5 -19t47 19t19 47q0 29 -19 48.5t-47 19.5zM630 333q71 0 121.5 -50.5t50.5 -121.5t-50.5 -121
t-121.5 -50t-121 50t-50 121t50 121.5t121 50.5zM630 228q-28 0 -46.5 -19t-18.5 -48q0 -28 18.5 -47t46.5 -19t47 18.5t19 47.5t-19 48t-47 19zM570 663h111l-415 -663h-111z" />
    <glyph glyph-name="ampersand" unicode="&#x26;" horiz-adv-x="663" 
d="M315 720q82 0 127.5 -48.5t45.5 -112.5q0 -95 -123 -196l79 -103q44 73 67 139l99 -32q-39 -116 -92 -200l130 -167h-157l-54 69q-84 -79 -186 -79q-100 0 -148.5 51t-48.5 114q0 62 31.5 107.5t98.5 98.5l13 11q-39 51 -57 88t-18 82q0 75 53.5 126.5t139.5 51.5z
M313 612q-28 0 -43.5 -19.5t-15.5 -44.5q0 -41 45 -102q24 21 36.5 33.5t22.5 32t10 41.5q0 25 -15 42t-40 17zM269 282l-12 -10q-36 -32 -52.5 -54.5t-16.5 -48.5q0 -27 20 -47.5t53 -20.5q58 0 106 57z" />
    <glyph glyph-name="quotesingle" unicode="'" horiz-adv-x="169" 
d="M29 663h111v-256h-111v256z" />
    <glyph glyph-name="parenleft" unicode="(" horiz-adv-x="291" 
d="M164 772h118q-114 -196 -114 -436q0 -128 34 -248.5t81 -197.5h-118q-49 53 -92.5 174t-43.5 272q0 150 43 266.5t92 169.5z" />
    <glyph glyph-name="parenright" unicode=")" horiz-adv-x="291" 
d="M9 772h118q49 -53 92 -169.5t43 -266.5q0 -151 -43.5 -272t-92.5 -174h-118q47 77 81 197.5t34 248.5q0 240 -114 436z" />
    <glyph glyph-name="asterisk" unicode="*" horiz-adv-x="393" 
d="M160 710h75l-2 -104l90 55l36 -70l-90 -47l90 -47l-36 -70l-90 55l2 -104h-75l1 105l-89 -56l-36 70l90 47l-90 47l36 70l89 -55z" />
    <glyph glyph-name="plus" unicode="+" horiz-adv-x="430" 
d="M155 405h120v-123h114v-112h-114v-123h-120v123h-114v112h114v123z" />
    <glyph glyph-name="comma" unicode="," horiz-adv-x="214" 
d="M115 141q33 0 53 -22t20 -54q0 -39 -38 -108l-51 -94h-81l73 137q-22 6 -37.5 23.5t-15.5 44.5q0 31 21 52t56 21z" />
    <glyph glyph-name="hyphen" unicode="-" horiz-adv-x="308" 
d="M25 282h258v-120h-258v120z" />
    <glyph glyph-name="period" unicode="." horiz-adv-x="213" 
d="M106 141q32 0 54 -22.5t22 -53.5t-22 -53t-54 -22t-53.5 22t-21.5 53q0 32 22 54t53 22z" />
    <glyph glyph-name="slash" unicode="/" horiz-adv-x="382" 
d="M240 750h119l-223 -856h-118z" />
    <glyph glyph-name="zero" unicode="0" horiz-adv-x="574" 
d="M288 674q116 0 182 -93.5t66 -243.5q0 -156 -68 -251.5t-180 -95.5q-113 0 -181 94t-68 253q0 150 66.5 243.5t182.5 93.5zM287 548q-56 0 -84.5 -56.5t-28.5 -153.5q0 -100 29.5 -161t85.5 -61q55 0 83 59t28 159q0 98 -29 156t-84 58z" />
    <glyph glyph-name="one" unicode="1" horiz-adv-x="354" 
d="M280 669h12v-669h-135v475l-101 -51l-47 110z" />
    <glyph glyph-name="two" unicode="2" horiz-adv-x="513" 
d="M274 674q56 0 98 -19t63 -49t30.5 -61t9.5 -62q0 -54 -20.5 -102t-52.5 -83.5t-65 -65l-65 -58.5t-45 -51h255v-123h-442q0 22 6 44q9 45 37 93q22 40 57.5 79.5t68.5 69.5l63.5 60t49 62t18.5 65q0 29 -19 53.5t-59 24.5q-39 0 -60 -23t-21 -60q0 -24 8 -46l-117 -27
q-20 37 -20 90q0 76 58.5 132.5t163.5 56.5z" />
    <glyph glyph-name="three" unicode="3" horiz-adv-x="469" 
d="M239 674q46 0 86 -14.5t68.5 -52t28.5 -91.5q0 -64 -31.5 -104t-73.5 -58q49 -14 87.5 -54.5t38.5 -113.5q0 -81 -54.5 -138.5t-168.5 -57.5q-61 0 -117 23t-93 62l62 97q72 -60 135 -60q46 0 73 22t27 61q0 47 -39.5 72t-113.5 25h-30v106h40q123 0 123 84q0 25 -19 47
t-64 22q-61 0 -114 -47l-54 92q25 28 78.5 53t124.5 25z" />
    <glyph glyph-name="four" unicode="4" horiz-adv-x="554" 
d="M337 663h110v-398h85v-119h-85v-146h-132v147h-292v100zM315 472l-154 -207h154v207z" />
    <glyph glyph-name="five" unicode="5" horiz-adv-x="506" 
d="M125 663h312v-122h-213l-23 -124q27 10 66 10q87 0 148 -52.5t61 -158.5q0 -102 -63.5 -164t-169.5 -62q-76 0 -133 27.5t-81 53.5l62 102q69 -61 140 -61q48 0 79 27t31 73q0 45 -30.5 72t-93.5 27q-74 0 -126 -30l-26 15z" />
    <glyph glyph-name="six" unicode="6" horiz-adv-x="525" 
d="M246 660h151l-78 -115.5t-87 -131.5q32 15 70 15q87 0 142 -58.5t55 -147.5q0 -103 -62.5 -167.5t-166.5 -64.5q-105 0 -170 65t-65 168q0 79 44 164q51 104 167 273zM265 320q-41 0 -69.5 -29.5t-28.5 -73.5q0 -47 28 -76t71 -29t71 29t28 76t-28 75t-72 28z" />
    <glyph glyph-name="seven" unicode="7" horiz-adv-x="518" 
d="M31 663h487v-14l-299 -649h-141l248 541h-295v122z" />
    <glyph glyph-name="eight" unicode="8" horiz-adv-x="546" 
d="M275 674q88 0 146 -46.5t58 -120.5q0 -95 -96 -150q126 -53 126 -170q0 -89 -64.5 -143t-171.5 -54t-171.5 53.5t-64.5 140.5q0 116 126 170q-96 55 -96 144q0 79 60 127.5t148 48.5zM273 559q-32 0 -54 -19.5t-22 -46.5q0 -30 23.5 -53.5t55.5 -36.5q72 32 72 87
q0 29 -22 49t-53 20zM273 299q-43 -11 -72 -38t-29 -68q0 -37 27 -61.5t76 -24.5q46 0 72.5 23.5t26.5 62.5q0 35 -28.5 64t-72.5 42z" />
    <glyph glyph-name="nine" unicode="9" horiz-adv-x="525" 
d="M268 674q100 0 161 -63t61 -166q0 -80 -44 -171q-35 -77 -152 -274h-150q20 30 150 250q-23 -13 -59 -13q-85 0 -146 57t-61 147q0 107 67.5 170t172.5 63zM259 551q-41 0 -69.5 -29t-28.5 -77q0 -46 28.5 -73.5t70.5 -27.5q41 0 69.5 29t28.5 73q0 49 -28.5 77t-70.5 28
z" />
    <glyph glyph-name="colon" unicode=":" horiz-adv-x="226" 
d="M112 141q32 0 54 -22.5t22 -53.5t-22 -53t-54 -22t-53.5 22t-21.5 53q0 32 22 54t53 22zM112 420q32 0 54 -22t22 -54q0 -31 -22 -53t-54 -22t-53.5 21.5t-21.5 53.5t22 54t53 22z" />
    <glyph glyph-name="semicolon" unicode=";" horiz-adv-x="226" 
d="M115 141q33 0 53 -22t20 -54q0 -39 -38 -108l-51 -94h-81l73 137q-22 6 -37.5 23.5t-15.5 44.5q0 31 21 52t56 21zM112 420q32 0 54 -22t22 -54q0 -31 -22 -53t-54 -22t-53.5 21.5t-21.5 53.5t22 54t53 22z" />
    <glyph glyph-name="less" unicode="&#x3c;" horiz-adv-x="430" 
d="M380 441v-137l-170 -77l170 -73v-131l-338 161v84z" />
    <glyph glyph-name="equal" unicode="=" horiz-adv-x="430" 
d="M44 375h342v-114h-342v114zM44 191h342v-114h-342v114z" />
    <glyph glyph-name="greater" unicode="&#x3e;" horiz-adv-x="430" 
d="M51 441l338 -173v-84l-338 -161v131l170 73l-170 77v137z" />
    <glyph glyph-name="question" unicode="?" horiz-adv-x="424" 
d="M219 721q88 0 144.5 -49.5t56.5 -136.5q0 -78 -49.5 -126.5t-114.5 -67.5v-134h-130v202q73 10 113.5 35t40.5 76q0 32 -21.5 54.5t-60.5 22.5q-62 0 -123 -69l-72 79q31 44 85.5 79t130.5 35zM190 141q32 0 54 -22.5t22 -53.5t-22 -53t-54 -22t-53.5 22t-21.5 53
q0 32 22 54t53 22z" />
    <glyph glyph-name="at" unicode="@" horiz-adv-x="845" 
d="M456 609q157 0 245 -91.5t88 -220.5q0 -126 -51 -195.5t-130 -69.5q-50 0 -80.5 26.5t-35.5 57.5q-42 -68 -120 -68q-65 0 -105.5 46.5t-40.5 123.5q0 96 55.5 154t131.5 58q71 0 92 -51l11 37h120l-46 -202q-11 -50 -10 -65q0 -52 47 -52q37 0 65.5 49.5t28.5 147.5
q0 43 -14 84.5t-43.5 80t-83 62t-124.5 23.5q-147 0 -236 -89.5t-89 -220.5q0 -128 86 -209t217 -81q125 0 208 58l29 -52q-88 -72 -243 -72q-67 0 -130 21t-117 62.5t-86.5 112t-32.5 159.5t32.5 162t88 119t125.5 70.5t148 24.5zM423 332q-33 0 -57 -31.5t-24 -77.5
q0 -35 15 -56t43 -21q35 0 56 34t21 82q0 70 -54 70z" />
    <glyph glyph-name="A" unicode="A" horiz-adv-x="642" 
d="M314 714h13l322 -714h-148l-49 112h-264l-48 -112h-147zM320 418l-82 -190h164z" />
    <glyph glyph-name="B" unicode="B" horiz-adv-x="595" 
d="M68 710h215q112 0 170 -29q86 -44 86 -148q0 -63 -32 -105t-83 -59q54 -10 98.5 -53.5t44.5 -119.5q0 -124 -103 -169q-60 -27 -190 -27h-206v710zM209 588v-169h75q51 0 81 21.5t30 65.5q0 42 -28 63q-26 19 -74 19h-84zM209 303v-181h85q54 0 82 12q43 21 43 77
q0 45 -31.5 68.5t-90.5 23.5h-88z" />
    <glyph glyph-name="C" unicode="C" horiz-adv-x="631" 
d="M381 720q83 0 138.5 -28.5t84.5 -65.5l-71 -104q-66 66 -150 66q-88 0 -140.5 -62.5t-52.5 -163.5q0 -108 57.5 -174t154.5 -66q55 0 102 26.5t75 61.5h10v-142q-14 -15 -36 -30.5t-70.5 -31.5t-104.5 -16q-151 0 -243.5 99.5t-92.5 263.5q0 166 96 266.5t243 100.5z" />
    <glyph glyph-name="D" unicode="D" horiz-adv-x="695" 
d="M68 710h198q187 0 287 -91t100 -257q0 -179 -102 -270.5t-292 -91.5h-191v710zM209 580v-450h56q240 0 240 229q0 63 -20.5 108t-56.5 68.5t-75.5 34t-85.5 10.5h-58z" />
    <glyph glyph-name="E" unicode="E" horiz-adv-x="526" 
d="M68 710h408v-130h-267v-154h250v-129h-250v-167h267v-130h-408v710z" />
    <glyph glyph-name="F" unicode="F" horiz-adv-x="501" 
d="M68 710h391v-130h-250v-157h235v-129h-235v-294h-141v710z" />
    <glyph glyph-name="G" unicode="G" horiz-adv-x="712" 
d="M405 720q80 0 142 -27t98 -64l-68 -109q-79 68 -173 68q-90 0 -152 -59t-62 -170q0 -117 59 -177t144 -60q96 0 132 48v124h-127v117h261v-290q-36 -59 -110.5 -95t-158.5 -36q-164 0 -256 100.5t-92 261.5q0 164 97.5 266t265.5 102z" />
    <glyph glyph-name="H" unicode="H" horiz-adv-x="720" 
d="M68 710h141v-277h302v277h141v-710h-141v299h-302v-299h-141v710z" />
    <glyph glyph-name="I" unicode="I" horiz-adv-x="277" 
d="M68 710h141v-710h-141v710z" />
    <glyph glyph-name="J" unicode="J" horiz-adv-x="387" 
d="M184 710h141v-508q0 -105 -49 -158.5t-128 -53.5q-84 0 -124 34v116h9q35 -22 73 -22q15 0 26 2.5t24.5 11t20.5 29.5t7 52v497z" />
    <glyph glyph-name="K" unicode="K" horiz-adv-x="629" 
d="M68 710h141v-272l245 272h168l-282 -316l290 -394h-168l-215 289l-38 -42v-247h-141v710z" />
    <glyph glyph-name="L" unicode="L" horiz-adv-x="475" 
d="M68 710h141v-580h236v-130h-377v710z" />
    <glyph glyph-name="M" unicode="M" horiz-adv-x="860" 
d="M151 716h13l265 -384l266 384h13l114 -716h-143l-60 383l-185 -257h-13l-180 256l-60 -382h-142z" />
    <glyph glyph-name="N" unicode="N" horiz-adv-x="702" 
d="M68 715h15l410 -407v402h141v-721h-20l-405 403v-392h-141v715z" />
    <glyph glyph-name="O" unicode="O" horiz-adv-x="756" 
d="M378 720q146 0 240.5 -102.5t94.5 -261.5q0 -164 -94 -265t-241 -101q-148 0 -242 100.5t-94 265.5q0 160 94 262t242 102zM376 588q-76 0 -130 -61t-54 -171q0 -108 53.5 -171t132.5 -63t132.5 61.5t53.5 169.5q0 111 -55.5 173t-132.5 62z" />
    <glyph glyph-name="P" unicode="P" horiz-adv-x="575" 
d="M68 710h228q72 0 123.5 -17.5t79.5 -48.5t40 -67t12 -81q0 -91 -61.5 -155t-192.5 -64h-88v-277h-141v710zM209 582v-178h79q118 0 118 89t-114 89h-83z" />
    <glyph glyph-name="Q" unicode="Q" horiz-adv-x="756" 
d="M378 720q146 0 240.5 -102.5t94.5 -261.5q0 -184 -117 -287l123 -136h-154l-68 77q-55 -20 -119 -20q-148 0 -242 100.5t-94 265.5q0 160 94 262t242 102zM376 588q-76 0 -130 -61t-54 -171q0 -108 53.5 -171t132.5 -63q9 0 29 2l-104 117h146l54 -66q61 64 61 178
q0 111 -55.5 173t-132.5 62z" />
    <glyph glyph-name="R" unicode="R" horiz-adv-x="588" 
d="M68 710h216q120 0 189.5 -51t69.5 -157q0 -75 -44 -127t-116 -70l194 -305h-160l-179 286h-31v-286h-139v710zM207 582v-177h76q115 0 115 90q0 87 -109 87h-82z" />
    <glyph glyph-name="S" unicode="S" horiz-adv-x="512" 
d="M277 720q58 0 109.5 -23.5t83.5 -64.5l-73 -101q-53 57 -119 57q-35 0 -56.5 -16.5t-21.5 -42.5q0 -25 15.5 -41t57.5 -43l78 -49q77 -47 105 -96t28 -108q0 -78 -62 -140t-174 -62q-70 0 -123.5 21t-77.5 45v140h11q80 -74 172 -74q52 0 78.5 20.5t26.5 51.5
q0 30 -18.5 51t-63.5 48l-55 33q-31 18 -50.5 32.5t-44.5 39.5t-38 58t-13 73q0 77 60 134t165 57z" />
    <glyph glyph-name="T" unicode="T" horiz-adv-x="581" 
d="M34 710h514v-130h-187v-580h-141v580h-186v130z" />
    <glyph glyph-name="U" unicode="U" horiz-adv-x="703" 
d="M62 710h141v-346q0 -144 37 -192q38 -50 112 -50q73 0 112 51q36 48 36 169v368h141v-396q0 -156 -73 -240t-220 -84q-145 0 -216 82q-39 43 -54.5 98.5t-15.5 143.5v396z" />
    <glyph glyph-name="V" unicode="V" horiz-adv-x="648" 
d="M-7 710h155l179 -412l174 412h153l-322 -716h-15z" />
    <glyph glyph-name="W" unicode="W" horiz-adv-x="927" 
d="M0 710h146l152 -409l159 321h15l158 -319l151 407h146l-270 -718h-15l-178 363l-178 -363h-15z" />
    <glyph glyph-name="X" unicode="X" horiz-adv-x="649" 
d="M16 710h164l147 -226l149 226h157l-228 -346l237 -364h-164l-156 239l-157 -239h-158l237 359z" />
    <glyph glyph-name="Y" unicode="Y" horiz-adv-x="624" 
d="M-1 710h157l156 -258l158 258h155l-242 -391v-319h-141v318z" />
    <glyph glyph-name="Z" unicode="Z" horiz-adv-x="595" 
d="M59 710h512v-30l-337 -550h319v-130h-510v85l302 495h-286v130z" />
    <glyph glyph-name="bracketleft" unicode="[" horiz-adv-x="322" 
d="M57 773h230v-125h-98v-634h98v-125h-230v884z" />
    <glyph glyph-name="backslash" unicode="\" horiz-adv-x="381" 
d="M32 750h115l222 -856h-114z" />
    <glyph glyph-name="bracketright" unicode="]" horiz-adv-x="322" 
d="M35 773h230v-884h-230v125h97v634h-97v125z" />
    <glyph glyph-name="asciicircum" unicode="^" horiz-adv-x="546" 
d="M232 710h80l166 -312h-129l-78 140l-73 -140h-130z" />
    <glyph glyph-name="underscore" unicode="_" horiz-adv-x="392" 
d="M0 0h392v-120h-392v120z" />
    <glyph glyph-name="grave" unicode="`" horiz-adv-x="236" 
d="M15 643h128l77 -145v-10h-111l-94 145v10z" />
    <glyph glyph-name="a" unicode="a" horiz-adv-x="519" 
d="M228 430q76 0 111 -51l2 40h128v-419h-128v49q-42 -59 -117 -59q-85 0 -140 59t-55 161q0 104 58 162t141 58zM251 314q-40 0 -64.5 -30t-24.5 -76q0 -45 24.5 -74t64.5 -29q42 0 65 29t23 76q0 46 -23 75t-65 29z" />
    <glyph glyph-name="b" unicode="b" horiz-adv-x="517" 
d="M47 710h130v-335q51 55 129 55q77 0 129.5 -61t52.5 -159q0 -97 -55.5 -158.5t-136.5 -61.5t-119 51v-41h-130v710zM267 315q-41 0 -65.5 -30.5t-24.5 -77.5q0 -43 24.5 -73t64.5 -30t64.5 29t24.5 76q0 46 -24 76t-64 30z" />
    <glyph glyph-name="c" unicode="c" horiz-adv-x="408" 
d="M248 430q90 0 139 -53l-48 -97q-37 34 -81 34q-45 0 -72 -29t-27 -74q0 -46 27 -76.5t77 -30.5q60 0 100 41h9v-114q-20 -18 -55.5 -29.5t-72.5 -11.5q-98 0 -156.5 60.5t-58.5 159.5q0 94 61.5 157t157.5 63z" />
    <glyph glyph-name="d" unicode="d" horiz-adv-x="516" 
d="M339 710h130v-710h-128v49q-42 -59 -117 -59q-85 0 -140 59t-55 161q0 104 58 162t141 58q71 0 111 -52v332zM251 314q-40 0 -64.5 -30t-24.5 -76q0 -45 24.5 -74t64.5 -29q42 0 65 29t23 76q0 46 -23 75t-65 29z" />
    <glyph glyph-name="e" unicode="e" horiz-adv-x="476" 
d="M253 430q91 0 142.5 -60.5t51.5 -153.5q0 -22 -3 -40h-284q5 -33 32 -56.5t72 -23.5q59 0 109 50l60 -77q-24 -32 -72.5 -55.5t-104.5 -23.5q-106 0 -166.5 61t-60.5 159q0 95 62 157.5t162 62.5zM244 328q-36 0 -57 -23t-26 -52h160q-3 28 -20.5 51.5t-56.5 23.5z" />
    <glyph glyph-name="f" unicode="f" horiz-adv-x="329" 
d="M257 713q32 0 52 -4v-112h-10q-44 0 -61 -19.5t-17 -66.5v-92h89v-112h-89v-307h-130v307h-63v112h63v116q0 87 44 132.5t122 45.5z" />
    <glyph glyph-name="g" unicode="g" horiz-adv-x="515" 
d="M228 430q73 0 111 -51l2 40h128v-372q0 -118 -63.5 -176.5t-166.5 -58.5q-57 0 -107.5 19.5t-82.5 51.5l55 89q61 -52 128 -52q52 0 79.5 28t27.5 80v22q-40 -56 -118 -56q-83 0 -137.5 57.5t-54.5 158.5q0 103 58.5 161.5t140.5 58.5zM251 314q-40 0 -64.5 -30
t-24.5 -76q0 -45 24.5 -74t64.5 -29q42 0 65 29t23 76q0 46 -23 75t-65 29z" />
    <glyph glyph-name="h" unicode="h" horiz-adv-x="498" 
d="M47 710h130v-350q58 69 142 69q57 0 94.5 -41.5t37.5 -123.5v-264h-130v226q0 77 -56 77q-41 0 -88 -47v-256h-130v710z" />
    <glyph glyph-name="i" unicode="i" horiz-adv-x="231" 
d="M50 419h130v-419h-130v419zM116 645q32 0 53 -21.5t21 -53.5t-21.5 -53.5t-52.5 -21.5q-32 0 -54 21.5t-22 53.5t22 53.5t54 21.5z" />
    <glyph glyph-name="j" unicode="j" horiz-adv-x="228" 
d="M50 419h130v-409q0 -98 -41.5 -144.5t-125.5 -46.5q-20 0 -42 6v104h24q29 0 42 17t13 55v418zM116 645q32 0 53 -21.5t21 -53.5t-21.5 -53.5t-52.5 -21.5q-32 0 -54 21.5t-22 53.5t22 53.5t54 21.5z" />
    <glyph glyph-name="k" unicode="k" horiz-adv-x="466" 
d="M47 710h130v-419l129 128h162l-183 -181l189 -238h-155l-127 160l-15 -14v-146h-130v710z" />
    <glyph glyph-name="l" unicode="l" horiz-adv-x="225" 
d="M47 710h130v-710h-130v710z" />
    <glyph glyph-name="m" unicode="m" horiz-adv-x="764" 
d="M50 419h130v-59q63 70 143 70q47 0 72.5 -23.5t35.5 -52.5q66 76 154 76q62 0 97 -42.5t35 -128.5v-259h-130v229q0 75 -53 75q-43 0 -85 -46v-258h-130v228q0 76 -54 76q-42 0 -85 -47v-257h-130v419z" />
    <glyph glyph-name="n" unicode="n" horiz-adv-x="501" 
d="M50 419h130v-59q21 26 57.5 48t84.5 22q57 0 94.5 -42t37.5 -124v-264h-130v227q0 77 -56 77q-43 0 -88 -47v-257h-130v419z" />
    <glyph glyph-name="o" unicode="o" horiz-adv-x="501" 
d="M251 430q98 0 160 -64.5t62 -157.5q0 -94 -61 -156t-161 -62t-161 62.5t-61 155.5t62 157.5t160 64.5zM250 317q-40 0 -64.5 -30t-24.5 -78q0 -47 25.5 -77t65.5 -30q39 0 63.5 29.5t24.5 76.5t-25.5 78t-64.5 31z" />
    <glyph glyph-name="p" unicode="p" horiz-adv-x="517" 
d="M47 419h130v-44q51 55 129 55q77 0 129.5 -61t52.5 -159q0 -97 -55.5 -158.5t-136.5 -61.5q-79 0 -119 51v-218h-130v596zM267 315q-41 0 -65.5 -30.5t-24.5 -77.5q0 -43 24.5 -73t64.5 -30t64.5 29t24.5 76q0 46 -24 76t-64 30z" />
    <glyph glyph-name="q" unicode="q" horiz-adv-x="516" 
d="M228 430q76 0 111 -51l2 40h128v-596h-130v224q-40 -57 -115 -57q-85 0 -140 59t-55 161q0 104 58 162t141 58zM251 314q-40 0 -64.5 -30t-24.5 -76q0 -45 24.5 -74t64.5 -29q42 0 65 29t23 76q0 46 -23 75t-65 29z" />
    <glyph glyph-name="r" unicode="r" horiz-adv-x="340" 
d="M50 419h130v-86q17 39 48 68t67 29q16 0 23 -4v-139h-15q-85 -1 -123 -64v-223h-130v419z" />
    <glyph glyph-name="s" unicode="s" horiz-adv-x="366" 
d="M198 430q88 0 138 -45l-40 -92q-37 31 -84 31q-24 0 -34.5 -8.5t-10.5 -18.5q0 -13 14 -21t57 -25q106 -41 106 -126q0 -56 -42 -95.5t-132 -39.5q-81 0 -131 37v109h11q53 -40 110 -40q54 0 54 28q0 12 -12.5 22.5t-45.5 24.5q-32 13 -55 26t-44 41t-21 64
q0 55 43.5 91.5t118.5 36.5z" />
    <glyph glyph-name="t" unicode="t" horiz-adv-x="328" 
d="M214 619h12v-200h81v-112h-81v-307h-130v307h-63v112h62v129z" />
    <glyph glyph-name="u" unicode="u" horiz-adv-x="499" 
d="M47 419h130v-213q0 -46 13.5 -68.5t49.5 -22.5q42 0 79 44v260h130v-419h-128v55q-17 -24 -53 -44.5t-80 -20.5q-61 -1 -101 37.5t-40 119.5v272z" />
    <glyph glyph-name="v" unicode="v" horiz-adv-x="458" 
d="M-6 419h145l92 -198l90 198h142l-225 -423h-19z" />
    <glyph glyph-name="w" unicode="w" horiz-adv-x="642" 
d="M-5 419h141l84 -191l95 186h19l93 -186l82 191h138l-193 -423h-19l-113 204l-113 -204h-19z" />
    <glyph glyph-name="x" unicode="x" horiz-adv-x="460" 
d="M5 419h148l79 -114l80 114h143l-151 -208l153 -211h-148l-79 113l-79 -113h-143l150 208z" />
    <glyph glyph-name="y" unicode="y" horiz-adv-x="470" 
d="M6 419h142l95 -250l97 250h132l-244 -596h-132l82 192z" />
    <glyph glyph-name="z" unicode="z" horiz-adv-x="405" 
d="M36 419h347v-52l-185 -253h180v-114h-343v78l170 227h-169v114z" />
    <glyph glyph-name="braceleft" unicode="{" horiz-adv-x="345" 
d="M272 776q19 0 45 -4v-114q-7 1 -17 1q-41 0 -55.5 -22t-14.5 -89v-56q0 -74 -26.5 -108t-76.5 -46q50 -11 76.5 -46.5t26.5 -113.5v-64q0 -67 14.5 -89t55.5 -22q10 0 17 1v-114q-25 -5 -54 -5q-75 0 -122 35t-47 115v138q0 52 -21.5 80.5t-78.5 28.5v112q57 0 78.5 29.5
t21.5 80.5v123q0 76 51 112.5t127 36.5z" />
    <glyph glyph-name="bar" unicode="|" horiz-adv-x="331" 
d="M108 770h115v-910h-115v910z" />
    <glyph glyph-name="braceright" unicode="}" horiz-adv-x="345" 
d="M74 776q76 0 126.5 -36.5t50.5 -112.5v-123q0 -51 21.5 -80.5t78.5 -29.5v-112q-57 0 -78.5 -28.5t-21.5 -80.5v-138q0 -150 -169 -150q-27 0 -54 5v114q5 -1 17 -1q41 0 55.5 22t14.5 89v64q0 78 26.5 113.5t76.5 46.5q-50 12 -76.5 46t-26.5 108v56q0 67 -14.5 89
t-55.5 22q-2 0 -8 -0.5t-9 -0.5v114q26 4 46 4z" />
    <glyph glyph-name="asciitilde" unicode="~" horiz-adv-x="546" 
d="M178 418q41 0 100.5 -31.5t81.5 -31.5q51 0 83 66l84 -41q-24 -73 -69 -107.5t-88 -34.5q-41 0 -100 32t-83 32q-51 0 -83 -67l-84 45q25 72 69.5 105t88.5 33z" />
    <glyph glyph-name="uni00A0" unicode="&#xa0;" horiz-adv-x="156" 
 />
    <glyph glyph-name="exclamdown" unicode="&#xa1;" horiz-adv-x="267" 
d="M204 -188h-142l11 486h119zM133 381q-31 0 -53.5 22.5t-22.5 53.5t22 53t54 22q31 0 53 -22t22 -53q0 -32 -22 -54t-53 -22z" />
    <glyph glyph-name="cent" unicode="&#xa2;" horiz-adv-x="470" 
d="M212 656h97v-93q91 -10 138 -55l-45 -103q-55 42 -119 42q-57 0 -88.5 -32t-31.5 -80q0 -52 34 -84.5t92 -32.5q68 0 121 43h13v-118q-38 -33 -114 -42v-97h-97v99q-88 15 -136 79t-48 150q0 90 51.5 151.5t132.5 77.5v95z" />
    <glyph glyph-name="sterling" unicode="&#xa3;" horiz-adv-x="522" 
d="M58 365h51q-34 59 -34 120q0 90 60.5 139.5t149.5 49.5q54 0 93 -17.5t58 -44t27 -49.5t8 -43q0 -54 -25 -97l-106 17q8 16 8 44q0 30 -15.5 50.5t-49.5 20.5t-53.5 -20t-19.5 -49q0 -13 5.5 -29.5t10.5 -26.5t18 -33.5t18 -31.5h136v-100h-95q8 -29 8 -57q0 -44 -17 -82
q16 -3 38.5 -9t39.5 -9.5t34 -3.5q55 0 85 36h11v-111q-40 -39 -102 -39q-32 0 -90 14t-88 14q-68 0 -120 -32l-43 93q37 34 110 47q13 26 13 65q0 36 -18 74h-106v100z" />
    <glyph glyph-name="currency" unicode="&#xa4;" horiz-adv-x="504" 
d="M251 515q52 0 99 -29l69 66l63 -63l-68 -69q25 -45 25 -98t-25 -98l68 -68l-63 -63l-68 66q-43 -29 -100 -29q-52 0 -98 27l-67 -64l-64 63l67 67q-26 43 -26 100q0 52 27 98l-68 68l64 63l66 -66q47 29 99 29zM251 423q-40 0 -68.5 -29t-28.5 -72q0 -42 28.5 -71.5
t68.5 -29.5q41 0 69.5 29t28.5 72q0 42 -28.5 71.5t-69.5 29.5z" />
    <glyph glyph-name="yen" unicode="&#xa5;" horiz-adv-x="559" 
d="M3 663h147l130 -228l129 228h147l-173 -280h108v-83h-144v-47h144v-82h-144v-171h-135v171h-144v82h144v47h-144v83h107z" />
    <glyph glyph-name="brokenbar" unicode="&#xa6;" horiz-adv-x="331" 
d="M108 770h115v-346h-115v346zM108 205h115v-345h-115v345z" />
    <glyph glyph-name="section" unicode="&#xa7;" horiz-adv-x="493" 
d="M267 674q113 0 175 -72l-59 -89q-56 52 -115 52q-28 0 -43.5 -11.5t-15.5 -28.5t11 -27.5t38 -19.5l76 -29q69 -26 100.5 -61t31.5 -89q0 -85 -69 -139q39 -41 39 -100q0 -73 -56.5 -115.5t-143.5 -42.5q-52 0 -100 16t-77 38v117h11q28 -27 73 -44.5t85 -17.5
q72 0 72 40q0 18 -12 30.5t-45 23.5l-84 29q-57 20 -94.5 59t-37.5 91q0 88 83 137q-36 42 -36 96q0 73 56.5 115t136.5 42zM180 371q-31 -20 -31 -49q0 -50 67 -74l73 -27q6 -2 15.5 -5.5t12.5 -4.5q27 22 27 51q0 49 -65 72l-68 25q-21 7 -31 12z" />
    <glyph glyph-name="dieresis" unicode="&#xa8;" horiz-adv-x="381" 
d="M91 637q30 0 50.5 -21t20.5 -51t-20.5 -51.5t-50.5 -21.5t-51 21.5t-21 51.5t21 51t51 21zM289 637q30 0 50.5 -21t20.5 -51t-20.5 -51.5t-50.5 -21.5t-51 21.5t-21 51.5t21 51t51 21z" />
    <glyph glyph-name="copyright" unicode="&#xa9;" horiz-adv-x="821" 
d="M425 592q57 0 98 -21t62 -51l-53 -79q-47 47 -102 47q-56 0 -84.5 -37.5t-28.5 -90.5q0 -56 32.5 -94t93.5 -38q77 0 118 58h9v-103q-14 -22 -49.5 -41.5t-93.5 -19.5q-103 0 -164 67t-61 166q0 100 60.5 168.5t162.5 68.5zM411 720q153 0 252.5 -103.5t99.5 -262.5
q0 -151 -101 -257.5t-251 -106.5q-154 0 -253.5 102.5t-99.5 261.5q0 152 100 259t253 107zM411 658q-127 0 -208.5 -84.5t-81.5 -217.5q0 -128 82 -216t208 -88q127 0 208 85.5t81 218.5q0 127 -82.5 214.5t-206.5 87.5z" />
    <glyph glyph-name="ordfeminine" unicode="&#xaa;" horiz-adv-x="416" 
d="M174 629q30 0 52 -12t30 -26l3 29h120v-319h-121v32q-33 -41 -88 -41q-62 0 -105 45t-43 123q0 81 44.5 125t107.5 44zM201 528q-25 0 -41 -19t-16 -48q0 -30 16 -49t41 -19q27 0 41.5 18t14.5 49t-15 49.5t-41 18.5z" />
    <glyph glyph-name="guillemotleft" unicode="&#xab;" horiz-adv-x="475" 
d="M184 366l65 -64l-97 -96l97 -94l-65 -66l-157 157v7zM380 366l64 -64l-96 -96l96 -94l-64 -66l-158 157v7z" />
    <glyph glyph-name="logicalnot" unicode="&#xac;" horiz-adv-x="430" 
d="M22 350h383v-275h-133v149h-250v126z" />
    <glyph glyph-name="uni00AD" unicode="&#xad;" horiz-adv-x="308" 
d="M25 282h258v-120h-258v120z" />
    <glyph glyph-name="registered" unicode="&#xae;" horiz-adv-x="500" 
d="M167 624h88q90 0 90 -73q0 -52 -44 -69l60 -92h-69l-52 83h-13v-83h-60v234zM227 573v-54h22q36 0 36 27t-36 27h-22zM251 720q91 0 151 -63t60 -155q0 -88 -60.5 -152.5t-150.5 -64.5q-91 0 -151 62.5t-60 154.5q0 88 60.5 153t150.5 65zM251 671q-69 0 -115 -49
t-46 -120q0 -69 46 -118.5t115 -49.5t115.5 49t46.5 119t-46.5 119.5t-115.5 49.5z" />
    <glyph glyph-name="macron" unicode="&#xaf;" horiz-adv-x="340" 
d="M20 611h300v-100h-300v100z" />
    <glyph glyph-name="degree" unicode="&#xb0;" horiz-adv-x="344" 
d="M172 674q65 0 108.5 -43.5t43.5 -107.5t-43.5 -107t-108.5 -43t-108.5 43t-43.5 107t44 107.5t108 43.5zM172 580q-23 0 -38.5 -16t-15.5 -41t15.5 -41t38.5 -16t38.5 16t15.5 41t-15.5 41t-38.5 16z" />
    <glyph glyph-name="plusminus" unicode="&#xb1;" horiz-adv-x="430" 
d="M154 488h122v-119h110v-114h-110v-119h-122v119h-109v114h109v119zM47 91h336v-113h-336v113z" />
    <glyph glyph-name="twosuperior" unicode="&#xb2;" horiz-adv-x="377" 
d="M198 819q44 0 76 -14t47 -37t21 -43t6 -40q0 -50 -28 -89.5t-71 -72.5t-50 -42h153v-103h-326q0 48 39 108q21 33 63.5 68.5t70 64t27.5 57.5q0 16 -10 26.5t-28 10.5t-30 -11t-12 -28q0 -5 3 -23l-101 -23q-14 28 -14 55q0 54 43 95t121 41z" />
    <glyph glyph-name="threesuperior" unicode="&#xb3;" horiz-adv-x="339" 
d="M172 819q22 0 43.5 -5t43 -16t34.5 -33.5t13 -53.5q0 -74 -72 -103q87 -28 87 -106q0 -51 -40 -91t-120 -40q-90 0 -155 53l51 83q46 -33 85 -33q26 0 41 10.5t15 28.5q0 24 -23.5 33.5t-71.5 9.5h-16v86h26q72 0 72 39q0 14 -11.5 24.5t-32.5 10.5q-33 0 -74 -27l-46 76
q22 19 63 36.5t88 17.5z" />
    <glyph glyph-name="acute" unicode="&#xb4;" horiz-adv-x="235" 
d="M91 643h128v-10l-90 -145h-113v10z" />
    <glyph glyph-name="mu" unicode="&#xb5;" horiz-adv-x="498" 
d="M46 419h130v-219q0 -44 13.5 -66t49.5 -22q42 0 77 45v262h130l-2 -419h-114l-2 52q-11 -24 -40.5 -43.5t-64.5 -19.5q-45 0 -61 17q14 -70 14 -138v-47h-130v598z" />
    <glyph glyph-name="paragraph" unicode="&#xb6;" horiz-adv-x="610" 
d="M324 419h267v-120h-60v-484h-114v484h-50v-484h-115v205q-104 -1 -157.5 54t-53.5 140q0 98 73 151.5t210 53.5z" />
    <glyph glyph-name="periodcentered" unicode="&#xb7;" horiz-adv-x="229" 
d="M115 323q31 0 53 -21.5t22 -53.5t-21.5 -54t-53.5 -22t-54 22t-22 54t22 53.5t54 21.5z" />
    <glyph glyph-name="cedilla" unicode="&#xb8;" horiz-adv-x="203" 
d="M65 5h57l-25 -38q41 -3 63 -24t22 -48q0 -42 -29 -62.5t-69 -20.5q-36 0 -65 12v59h9q22 -12 48 -12q31 0 31 21q0 23 -36 23q-16 0 -34 -4l-14 16z" />
    <glyph glyph-name="onesuperior" unicode="&#xb9;" horiz-adv-x="286" 
d="M229 814h11v-436h-124v265l-68 -28l-42 101z" />
    <glyph glyph-name="ordmasculine" unicode="&#xba;" horiz-adv-x="398" 
d="M199 629q78 0 127.5 -49.5t49.5 -121.5q0 -71 -49 -118.5t-128 -47.5q-80 0 -129 47.5t-49 118.5q0 72 49.5 121.5t128.5 49.5zM199 528q-25 0 -40.5 -19t-15.5 -51q0 -30 15.5 -47.5t40.5 -17.5q24 0 39.5 17.5t15.5 47.5q0 31 -15 50.5t-40 19.5z" />
    <glyph glyph-name="guillemotright" unicode="&#xbb;" horiz-adv-x="477" 
d="M95 366l158 -156v-7l-158 -157l-64 66l97 94l-97 96zM291 366l157 -156v-7l-157 -157l-65 66l97 94l-97 96z" />
    <glyph glyph-name="onequarter" unicode="&#xbc;" horiz-adv-x="811" 
d="M631 434h108v-251h50v-98h-50v-85h-115v86h-204v82zM624 303l-92 -120h92v120zM229 667h11v-436h-124v265l-68 -28l-42 101zM556 663h111l-415 -663h-111z" />
    <glyph glyph-name="onehalf" unicode="&#xbd;" horiz-adv-x="854" 
d="M675 441q44 0 76 -14t47 -37t21 -43t6 -40q0 -50 -28 -89.5t-71 -72.5t-50 -42h153v-103h-326q0 48 39 108q21 33 63.5 68.5t70 64t27.5 57.5q0 16 -10 26.5t-28 10.5t-30 -11t-12 -28q0 -5 3 -23l-101 -23q-14 28 -14 55q0 54 43 95t121 41zM229 667h11v-436h-124v265
l-68 -28l-42 101zM556 663h111l-415 -663h-111z" />
    <glyph glyph-name="threequarters" unicode="&#xbe;" horiz-adv-x="845" 
d="M665 434h108v-251h50v-98h-50v-85h-115v86h-204v82zM658 303l-92 -120h92v120zM172 672q22 0 43.5 -5t43 -16t34.5 -33.5t13 -53.5q0 -74 -72 -103q87 -28 87 -106q0 -51 -40 -91t-120 -40q-90 0 -155 53l51 83q46 -33 85 -33q26 0 41 10.5t15 28.5q0 24 -23.5 33.5
t-71.5 9.5h-16v86h26q72 0 72 39q0 14 -11.5 24.5t-32.5 10.5q-33 0 -74 -27l-46 76q22 19 63 36.5t88 17.5zM590 663h111l-415 -663h-111z" />
    <glyph glyph-name="questiondown" unicode="&#xbf;" horiz-adv-x="408" 
d="M204 -188q-88 0 -144.5 49.5t-56.5 136.5q0 78 49.5 126.5t114.5 67.5v134h130v-202q-73 -10 -113.5 -35t-40.5 -76q0 -32 21.5 -54.5t60.5 -22.5q62 0 123 69l72 -79q-31 -44 -85.5 -79t-130.5 -35zM233 392q-31 0 -53.5 22t-22.5 54q0 31 22 53t54 22q31 0 53 -21.5
t22 -53.5t-22 -54t-53 -22z" />
    <glyph glyph-name="Agrave" unicode="&#xc0;" horiz-adv-x="642" 
d="M314 714h13l322 -714h-148l-49 112h-264l-48 -112h-147zM320 418l-82 -190h164zM109 908h151l129 -120v-12h-126l-154 119v13z" />
    <glyph glyph-name="Aacute" unicode="&#xc1;" horiz-adv-x="642" 
d="M314 714h13l322 -714h-148l-49 112h-264l-48 -112h-147zM320 418l-82 -190h164zM380 908h151v-13l-154 -119h-126v12z" />
    <glyph glyph-name="Acircumflex" unicode="&#xc2;" horiz-adv-x="642" 
d="M314 714h13l322 -714h-148l-49 112h-264l-48 -112h-147zM320 418l-82 -190h164zM279 918h77l125 -132v-10h-116l-48 47l-47 -47h-116v10z" />
    <glyph glyph-name="Atilde" unicode="&#xc3;" horiz-adv-x="642" 
d="M314 714h13l322 -714h-148l-49 112h-264l-48 -112h-147zM320 418l-82 -190h164zM232 911q35 0 85.5 -18.5t72.5 -18.5q29 0 29 43h75q9 -25 9 -55q0 -40 -24 -66.5t-66 -26.5q-39 0 -90.5 18.5t-70.5 18.5q-16 0 -25.5 -12t-9.5 -31h-75q-5 20 -5 41q0 45 25.5 76
t69.5 31z" />
    <glyph glyph-name="Adieresis" unicode="&#xc4;" horiz-adv-x="642" 
d="M314 714h13l322 -714h-148l-49 112h-264l-48 -112h-147zM320 418l-82 -190h164zM201 930q32 0 55 -23t23 -55t-23 -55.5t-55 -23.5q-33 0 -55.5 23t-22.5 56q0 32 22.5 55t55.5 23zM440 930q33 0 55 -22.5t22 -55.5t-22 -56t-55 -23t-56 23.5t-23 55.5t23 55t56 23z" />
    <glyph glyph-name="Aring" unicode="&#xc5;" horiz-adv-x="642" 
d="M314 714h13l322 -714h-148l-49 112h-264l-48 -112h-147zM320 418l-82 -190h164zM320 969q54 0 90 -35t36 -86t-36 -86t-90 -35q-53 0 -89 35.5t-36 85.5t36 85.5t89 35.5zM320 895q-19 0 -32 -13.5t-13 -33.5t13 -33.5t32 -13.5q20 0 33 13.5t13 33.5t-13 33.5t-33 13.5z
" />
    <glyph glyph-name="AE" unicode="&#xc6;" horiz-adv-x="879" 
d="M272 710h437v-130h-273l58 -152h270v-129h-220l64 -169h264v-130h-358l-50 131h-274l-48 -131h-144zM328 496l-93 -247h185z" />
    <glyph glyph-name="Ccedilla" unicode="&#xc7;" horiz-adv-x="631" 
d="M381 720q83 0 138.5 -28.5t84.5 -65.5l-71 -104q-66 66 -150 66q-88 0 -140.5 -62.5t-52.5 -163.5q0 -108 57.5 -174t154.5 -66q55 0 102 26.5t75 61.5h10v-142q-22 -25 -71 -49.5t-121 -27.5l-14 -23q41 -3 62.5 -24.5t21.5 -49.5q0 -42 -29.5 -62t-70.5 -20
q-32 0 -65 12v60h9q18 -11 45 -11q30 0 30 20q0 19 -29 21q-16 1 -37 -4l-15 17l34 65q-135 13 -216 110.5t-81 250.5q0 166 96 266.5t243 100.5z" />
    <glyph glyph-name="Egrave" unicode="&#xc8;" horiz-adv-x="526" 
d="M68 710h408v-130h-267v-154h250v-129h-250v-167h267v-130h-408v710zM87 908h151l129 -120v-12h-126l-154 119v13z" />
    <glyph glyph-name="Eacute" unicode="&#xc9;" horiz-adv-x="526" 
d="M68 710h408v-130h-267v-154h250v-129h-250v-167h267v-130h-408v710zM330 908h151v-13l-154 -119h-126v12z" />
    <glyph glyph-name="Ecircumflex" unicode="&#xca;" horiz-adv-x="526" 
d="M68 710h408v-130h-267v-154h250v-129h-250v-167h267v-130h-408v710zM238 918h77l125 -132v-10h-116l-48 47l-47 -47h-116v10z" />
    <glyph glyph-name="Edieresis" unicode="&#xcb;" horiz-adv-x="526" 
d="M68 710h408v-130h-267v-154h250v-129h-250v-167h267v-130h-408v710zM156 930q32 0 55 -23t23 -55t-23 -55.5t-55 -23.5q-33 0 -55.5 23t-22.5 56q0 32 22.5 55t55.5 23zM395 930q33 0 55 -22.5t22 -55.5t-22 -56t-55 -23t-56 23.5t-23 55.5t23 55t56 23z" />
    <glyph glyph-name="Igrave" unicode="&#xcc;" horiz-adv-x="277" 
d="M-47 908h143l104 -122v-11h-121l-126 122v11zM68 710h141v-710h-141v710z" />
    <glyph glyph-name="Iacute" unicode="&#xcd;" horiz-adv-x="277" 
d="M184 908h143v-11l-126 -122h-122v11zM68 710h141v-710h-141v710z" />
    <glyph glyph-name="Icircumflex" unicode="&#xce;" horiz-adv-x="277" 
d="M98 918h80l111 -132v-11h-113l-39 47l-38 -47h-113v11zM68 710h141v-710h-141v710z" />
    <glyph glyph-name="Idieresis" unicode="&#xcf;" horiz-adv-x="277" 
d="M48 925q31 0 53 -22t22 -53t-22 -53.5t-53 -22.5q-32 0 -54 22t-22 54t22 53.5t54 21.5zM249 925q31 0 53 -21.5t22 -53.5t-22 -54t-53 -22t-53.5 22t-22.5 54q0 31 22 53t54 22zM68 710h141v-710h-141v710z" />
    <glyph glyph-name="Eth" unicode="&#xd0;" horiz-adv-x="695" 
d="M68 710h198q187 0 287 -91t100 -257q0 -179 -102 -270.5t-292 -91.5h-191v297h-68v129h68v284zM209 580v-154h140v-129h-140v-167h56q240 0 240 229q0 63 -20.5 108t-56.5 68.5t-75.5 34t-85.5 10.5h-58z" />
    <glyph glyph-name="Ntilde" unicode="&#xd1;" horiz-adv-x="702" 
d="M264 911q35 0 85.5 -18.5t72.5 -18.5q29 0 29 43h75q9 -25 9 -55q0 -40 -24 -66.5t-66 -26.5q-39 0 -90.5 18.5t-70.5 18.5q-16 0 -25.5 -12t-9.5 -31h-75q-5 20 -5 41q0 45 25.5 76t69.5 31zM68 715h15l410 -407v402h141v-721h-20l-405 403v-392h-141v715z" />
    <glyph glyph-name="Ograve" unicode="&#xd2;" horiz-adv-x="756" 
d="M171 908h151l129 -120v-12h-126l-154 119v13zM378 720q146 0 240.5 -102.5t94.5 -261.5q0 -164 -94 -265t-241 -101q-148 0 -242 100.5t-94 265.5q0 160 94 262t242 102zM376 588q-76 0 -130 -61t-54 -171q0 -108 53.5 -171t132.5 -63t132.5 61.5t53.5 169.5
q0 111 -55.5 173t-132.5 62z" />
    <glyph glyph-name="Oacute" unicode="&#xd3;" horiz-adv-x="756" 
d="M440 908h151v-13l-154 -119h-126v12zM378 720q146 0 240.5 -102.5t94.5 -261.5q0 -164 -94 -265t-241 -101q-148 0 -242 100.5t-94 265.5q0 160 94 262t242 102zM376 588q-76 0 -130 -61t-54 -171q0 -108 53.5 -171t132.5 -63t132.5 61.5t53.5 169.5q0 111 -55.5 173
t-132.5 62z" />
    <glyph glyph-name="Ocircumflex" unicode="&#xd4;" horiz-adv-x="756" 
d="M378 720q146 0 240.5 -102.5t94.5 -261.5q0 -164 -94 -265t-241 -101q-148 0 -242 100.5t-94 265.5q0 160 94 262t242 102zM376 588q-76 0 -130 -61t-54 -171q0 -108 53.5 -171t132.5 -63t132.5 61.5t53.5 169.5q0 111 -55.5 173t-132.5 62zM339 918h77l125 -132v-10
h-116l-48 47l-47 -47h-116v10z" />
    <glyph glyph-name="Otilde" unicode="&#xd5;" horiz-adv-x="756" 
d="M290 911q35 0 85.5 -18.5t72.5 -18.5q29 0 29 43h75q9 -25 9 -55q0 -40 -24 -66.5t-66 -26.5q-39 0 -90.5 18.5t-70.5 18.5q-16 0 -25.5 -12t-9.5 -31h-75q-5 20 -5 41q0 45 25.5 76t69.5 31zM378 720q146 0 240.5 -102.5t94.5 -261.5q0 -164 -94 -265t-241 -101
q-148 0 -242 100.5t-94 265.5q0 160 94 262t242 102zM376 588q-76 0 -130 -61t-54 -171q0 -108 53.5 -171t132.5 -63t132.5 61.5t53.5 169.5q0 111 -55.5 173t-132.5 62z" />
    <glyph glyph-name="Odieresis" unicode="&#xd6;" horiz-adv-x="756" 
d="M258 930q32 0 55 -23t23 -55t-23 -55.5t-55 -23.5q-33 0 -55.5 23t-22.5 56q0 32 22.5 55t55.5 23zM497 930q33 0 55 -22.5t22 -55.5t-22 -56t-55 -23t-56 23.5t-23 55.5t23 55t56 23zM378 720q146 0 240.5 -102.5t94.5 -261.5q0 -164 -94 -265t-241 -101
q-148 0 -242 100.5t-94 265.5q0 160 94 262t242 102zM376 588q-76 0 -130 -61t-54 -171q0 -108 53.5 -171t132.5 -63t132.5 61.5t53.5 169.5q0 111 -55.5 173t-132.5 62z" />
    <glyph glyph-name="multiply" unicode="&#xd7;" horiz-adv-x="430" 
d="M121 395l94 -94l96 97l76 -75l-97 -97l94 -94l-75 -76l-94 95l-97 -97l-75 76l97 96l-94 94z" />
    <glyph glyph-name="Oslash" unicode="&#xd8;" horiz-adv-x="756" 
d="M378 720q88 0 164 -43l49 74h105l-84 -127q101 -104 101 -268t-94 -265t-241 -101q-88 0 -159 37l-52 -79h-106l86 131q-105 102 -105 277q0 160 94 262t242 102zM376 588q-76 0 -130 -61t-54 -171q0 -92 39 -151l235 357q-41 26 -90 26zM529 497l-234 -354
q38 -21 83 -21q79 0 132.5 61.5t53.5 169.5q0 82 -35 144z" />
    <glyph glyph-name="Ugrave" unicode="&#xd9;" horiz-adv-x="703" 
d="M62 710h141v-346q0 -144 37 -192q38 -50 112 -50q73 0 112 51q36 48 36 169v368h141v-396q0 -156 -73 -240t-220 -84q-145 0 -216 82q-39 43 -54.5 98.5t-15.5 143.5v396zM157 908h151l129 -120v-12h-126l-154 119v13z" />
    <glyph glyph-name="Uacute" unicode="&#xda;" horiz-adv-x="703" 
d="M62 710h141v-346q0 -144 37 -192q38 -50 112 -50q73 0 112 51q36 48 36 169v368h141v-396q0 -156 -73 -240t-220 -84q-145 0 -216 82q-39 43 -54.5 98.5t-15.5 143.5v396zM407 908h151v-13l-154 -119h-126v12z" />
    <glyph glyph-name="Ucircumflex" unicode="&#xdb;" horiz-adv-x="703" 
d="M62 710h141v-346q0 -144 37 -192q38 -50 112 -50q73 0 112 51q36 48 36 169v368h141v-396q0 -156 -73 -240t-220 -84q-145 0 -216 82q-39 43 -54.5 98.5t-15.5 143.5v396zM312 918h77l125 -132v-10h-116l-48 47l-47 -47h-116v10z" />
    <glyph glyph-name="Udieresis" unicode="&#xdc;" horiz-adv-x="703" 
d="M62 710h141v-346q0 -144 37 -192q38 -50 112 -50q73 0 112 51q36 48 36 169v368h141v-396q0 -156 -73 -240t-220 -84q-145 0 -216 82q-39 43 -54.5 98.5t-15.5 143.5v396zM232 930q32 0 55 -23t23 -55t-23 -55.5t-55 -23.5q-33 0 -55.5 23t-22.5 56q0 32 22.5 55t55.5 23
zM471 930q33 0 55 -22.5t22 -55.5t-22 -56t-55 -23t-56 23.5t-23 55.5t23 55t56 23z" />
    <glyph glyph-name="Yacute" unicode="&#xdd;" horiz-adv-x="624" 
d="M-1 710h157l156 -258l158 258h155l-242 -391v-319h-141v318zM374 908h151v-13l-154 -119h-126v12z" />
    <glyph glyph-name="Thorn" unicode="&#xde;" horiz-adv-x="575" 
d="M68 710h141v-121h80q142 0 201 -60.5t59 -155.5q0 -93 -61 -158t-192 -65h-87v-150h-141v710zM296 461h-87v-186h82q118 0 118 93q0 44 -28.5 68.5t-84.5 24.5z" />
    <glyph glyph-name="germandbls" unicode="&#xdf;" horiz-adv-x="531" 
d="M273 710q89 0 139.5 -51t50.5 -120q0 -59 -31.5 -104t-86.5 -63q65 -11 112.5 -60.5t47.5 -130.5q0 -91 -51.5 -141t-129.5 -50q-34 0 -66.5 8.5t-46.5 20.5v111h10q27 -27 72 -27q36 0 59 20.5t23 55.5q0 104 -139 129v104q97 14 97 102q0 33 -18.5 57.5t-52.5 24.5
q-85 0 -85 -118v-478h-130v467q0 117 56.5 180t169.5 63z" />
    <glyph glyph-name="agrave" unicode="&#xe0;" horiz-adv-x="519" 
d="M228 430q76 0 111 -51l2 40h128v-419h-128v49q-42 -59 -117 -59q-85 0 -140 59t-55 161q0 104 58 162t141 58zM251 314q-40 0 -64.5 -30t-24.5 -76q0 -45 24.5 -74t64.5 -29q42 0 65 29t23 76q0 46 -23 75t-65 29zM122 643h128l77 -145v-10h-111l-94 145v10z" />
    <glyph glyph-name="aacute" unicode="&#xe1;" horiz-adv-x="519" 
d="M228 430q76 0 111 -51l2 40h128v-419h-128v49q-42 -59 -117 -59q-85 0 -140 59t-55 161q0 104 58 162t141 58zM251 314q-40 0 -64.5 -30t-24.5 -76q0 -45 24.5 -74t64.5 -29q42 0 65 29t23 76q0 46 -23 75t-65 29zM273 643h128v-10l-90 -145h-113v10z" />
    <glyph glyph-name="acircumflex" unicode="&#xe2;" horiz-adv-x="519" 
d="M228 430q76 0 111 -51l2 40h128v-419h-128v49q-42 -59 -117 -59q-85 0 -140 59t-55 161q0 104 58 162t141 58zM251 314q-40 0 -64.5 -30t-24.5 -76q0 -45 24.5 -74t64.5 -29q42 0 65 29t23 76q0 46 -23 75t-65 29zM226 643h79l99 -145v-10h-100l-39 61l-38 -61h-100v10z
" />
    <glyph glyph-name="atilde" unicode="&#xe3;" horiz-adv-x="519" 
d="M228 430q76 0 111 -51l2 40h128v-419h-128v49q-42 -59 -117 -59q-85 0 -140 59t-55 161q0 104 58 162t141 58zM251 314q-40 0 -64.5 -30t-24.5 -76q0 -45 24.5 -74t64.5 -29q42 0 65 29t23 76q0 46 -23 75t-65 29zM196 625q30 0 62.5 -14t43.5 -14q27 0 27 33h77
q9 -21 9 -48q0 -37 -20 -61t-56 -24q-32 0 -65.5 14.5t-48.5 14.5q-32 0 -32 -33h-75q-6 18 -6 40q0 39 22 65.5t62 26.5z" />
    <glyph glyph-name="adieresis" unicode="&#xe4;" horiz-adv-x="519" 
d="M228 430q76 0 111 -51l2 40h128v-419h-128v49q-42 -59 -117 -59q-85 0 -140 59t-55 161q0 104 58 162t141 58zM251 314q-40 0 -64.5 -30t-24.5 -76q0 -45 24.5 -74t64.5 -29q42 0 65 29t23 76q0 46 -23 75t-65 29zM167 637q30 0 50.5 -21t20.5 -51t-20.5 -51.5
t-50.5 -21.5t-51 21.5t-21 51.5t21 51t51 21zM365 637q30 0 50.5 -21t20.5 -51t-20.5 -51.5t-50.5 -21.5t-51 21.5t-21 51.5t21 51t51 21z" />
    <glyph glyph-name="aring" unicode="&#xe5;" horiz-adv-x="519" 
d="M228 430q76 0 111 -51l2 40h128v-419h-128v49q-42 -59 -117 -59q-85 0 -140 59t-55 161q0 104 58 162t141 58zM251 314q-40 0 -64.5 -30t-24.5 -76q0 -45 24.5 -74t64.5 -29q42 0 65 29t23 76q0 46 -23 75t-65 29zM265 689q50 0 83.5 -32.5t33.5 -80.5q0 -46 -34 -80
t-83 -34q-50 0 -83.5 33t-33.5 81q0 46 33.5 79.5t83.5 33.5zM265 619q-18 0 -30 -12t-12 -31t12 -31.5t30 -12.5q19 0 31 12.5t12 31.5q0 18 -12 30.5t-31 12.5z" />
    <glyph glyph-name="ae" unicode="&#xe6;" horiz-adv-x="736" 
d="M241 430q85 0 131 -53q60 53 141 53q91 0 142.5 -60.5t51.5 -153.5q0 -22 -3 -40h-283q4 -33 31 -56.5t72 -23.5q59 0 109 50l60 -77q-24 -33 -71 -56t-106 -23q-105 0 -166 67q-18 -19 -34.5 -31t-52.5 -24t-82 -12q-63 0 -106.5 33t-43.5 96q0 60 47 97t133 37
q45 0 82 -10v7q0 28 -18.5 46.5t-60.5 18.5q-56 0 -111 -40l-50 85q29 27 78.5 48.5t109.5 21.5zM236 181q-33 0 -53.5 -13.5t-20.5 -36.5q0 -19 14.5 -32t44.5 -13q33 0 56.5 12.5t30.5 24.5q-10 26 -13 49q-33 9 -59 9zM504 328q-36 0 -57 -23t-26 -52h160
q-3 28 -20.5 51.5t-56.5 23.5z" />
    <glyph glyph-name="ccedilla" unicode="&#xe7;" horiz-adv-x="408" 
d="M248 430q90 0 139 -53l-48 -97q-37 34 -81 34q-45 0 -72 -29t-27 -74q0 -46 27 -76.5t77 -30.5q60 0 100 41h9v-114q-38 -35 -114 -40l-15 -24q41 -3 63 -24t22 -48q0 -42 -29 -62.5t-69 -20.5q-36 0 -65 12v59h9q22 -12 48 -12q31 0 31 21q0 23 -35 23q-17 0 -35 -4
l-14 16l35 66q-81 12 -128 70.5t-47 146.5q0 94 61.5 157t157.5 63z" />
    <glyph glyph-name="egrave" unicode="&#xe8;" horiz-adv-x="476" 
d="M105 643h128l77 -145v-10h-111l-94 145v10zM253 430q91 0 142.5 -60.5t51.5 -153.5q0 -22 -3 -40h-284q5 -33 32 -56.5t72 -23.5q59 0 109 50l60 -77q-24 -32 -72.5 -55.5t-104.5 -23.5q-106 0 -166.5 61t-60.5 159q0 95 62 157.5t162 62.5zM244 328q-36 0 -57 -23
t-26 -52h160q-3 28 -20.5 51.5t-56.5 23.5z" />
    <glyph glyph-name="eacute" unicode="&#xe9;" horiz-adv-x="476" 
d="M270 643h128v-10l-90 -145h-113v10zM253 430q91 0 142.5 -60.5t51.5 -153.5q0 -22 -3 -40h-284q5 -33 32 -56.5t72 -23.5q59 0 109 50l60 -77q-24 -32 -72.5 -55.5t-104.5 -23.5q-106 0 -166.5 61t-60.5 159q0 95 62 157.5t162 62.5zM244 328q-36 0 -57 -23t-26 -52h160
q-3 28 -20.5 51.5t-56.5 23.5z" />
    <glyph glyph-name="ecircumflex" unicode="&#xea;" horiz-adv-x="476" 
d="M253 430q91 0 142.5 -60.5t51.5 -153.5q0 -22 -3 -40h-284q5 -33 32 -56.5t72 -23.5q59 0 109 50l60 -77q-24 -32 -72.5 -55.5t-104.5 -23.5q-106 0 -166.5 61t-60.5 159q0 95 62 157.5t162 62.5zM244 328q-36 0 -57 -23t-26 -52h160q-3 28 -20.5 51.5t-56.5 23.5z
M210 643h79l99 -145v-10h-100l-39 61l-38 -61h-100v10z" />
    <glyph glyph-name="edieresis" unicode="&#xeb;" horiz-adv-x="476" 
d="M253 430q91 0 142.5 -60.5t51.5 -153.5q0 -22 -3 -40h-284q5 -33 32 -56.5t72 -23.5q59 0 109 50l60 -77q-24 -32 -72.5 -55.5t-104.5 -23.5q-106 0 -166.5 61t-60.5 159q0 95 62 157.5t162 62.5zM244 328q-36 0 -57 -23t-26 -52h160q-3 28 -20.5 51.5t-56.5 23.5z
M154 637q30 0 50.5 -21t20.5 -51t-20.5 -51.5t-50.5 -21.5t-51 21.5t-21 51.5t21 51t51 21zM352 637q30 0 50.5 -21t20.5 -51t-20.5 -51.5t-50.5 -21.5t-51 21.5t-21 51.5t21 51t51 21z" />
    <glyph glyph-name="igrave" unicode="&#xec;" horiz-adv-x="231" 
d="M-1 643h121l52 -145v-10h-108l-65 145v10zM50 419h130v-419h-130v419z" />
    <glyph glyph-name="iacute" unicode="&#xed;" horiz-adv-x="231" 
d="M117 643h120v-10l-65 -145h-108v10zM50 419h130v-419h-130v419z" />
    <glyph glyph-name="icircumflex" unicode="&#xee;" horiz-adv-x="231" 
d="M76 643h79l89 -145v-10h-97l-32 58l-31 -58h-97v10zM50 419h130v-419h-130v419z" />
    <glyph glyph-name="idieresis" unicode="&#xef;" horiz-adv-x="231" 
d="M44 629q26 0 43.5 -18.5t17.5 -45.5t-17.5 -46t-43.5 -19q-25 0 -43 19t-18 46q0 26 18 45t43 19zM186 629q26 0 44 -19t18 -45q0 -27 -18 -46t-44 -19q-25 0 -43 19t-18 46q0 26 18 45t43 19zM50 419h130v-419h-130v419z" />
    <glyph glyph-name="eth" unicode="&#xf0;" horiz-adv-x="501" 
d="M72 710h162q48 -48 78 -85l122 46l36 -87l-101 -38q103 -160 103 -307q0 -106 -55.5 -177.5t-169.5 -71.5q-93 0 -155.5 60t-62.5 163q0 94 61 153.5t146 59.5q43 0 63 -18q-9 37 -49 94l-123 -46l-35 86l99 37q-69 82 -119 119v12zM250 317q-40 0 -64.5 -30t-24.5 -78
q0 -47 25.5 -77t65.5 -30q39 0 63.5 30t24.5 76q0 47 -25.5 78t-64.5 31z" />
    <glyph glyph-name="ntilde" unicode="&#xf1;" horiz-adv-x="501" 
d="M190 625q30 0 62.5 -14t43.5 -14q27 0 27 33h77q9 -21 9 -48q0 -37 -20 -61t-56 -24q-32 0 -65.5 14.5t-48.5 14.5q-32 0 -32 -33h-75q-6 18 -6 40q0 39 22 65.5t62 26.5zM50 419h130v-59q21 26 57.5 48t84.5 22q57 0 94.5 -42t37.5 -124v-264h-130v227q0 77 -56 77
q-43 0 -88 -47v-257h-130v419z" />
    <glyph glyph-name="ograve" unicode="&#xf2;" horiz-adv-x="501" 
d="M105 643h128l77 -145v-10h-111l-94 145v10zM251 430q98 0 160 -64.5t62 -157.5q0 -94 -61 -156t-161 -62t-161 62.5t-61 155.5t62 157.5t160 64.5zM250 317q-40 0 -64.5 -30t-24.5 -78q0 -47 25.5 -77t65.5 -30q39 0 63.5 29.5t24.5 76.5t-25.5 78t-64.5 31z" />
    <glyph glyph-name="oacute" unicode="&#xf3;" horiz-adv-x="501" 
d="M273 643h128v-10l-90 -145h-113v10zM251 430q98 0 160 -64.5t62 -157.5q0 -94 -61 -156t-161 -62t-161 62.5t-61 155.5t62 157.5t160 64.5zM250 317q-40 0 -64.5 -30t-24.5 -78q0 -47 25.5 -77t65.5 -30q39 0 63.5 29.5t24.5 76.5t-25.5 78t-64.5 31z" />
    <glyph glyph-name="ocircumflex" unicode="&#xf4;" horiz-adv-x="501" 
d="M211 643h79l99 -145v-10h-100l-39 61l-38 -61h-100v10zM251 430q98 0 160 -64.5t62 -157.5q0 -94 -61 -156t-161 -62t-161 62.5t-61 155.5t62 157.5t160 64.5zM250 317q-40 0 -64.5 -30t-24.5 -78q0 -47 25.5 -77t65.5 -30q39 0 63.5 29.5t24.5 76.5t-25.5 78t-64.5 31z
" />
    <glyph glyph-name="otilde" unicode="&#xf5;" horiz-adv-x="501" 
d="M183 625q30 0 62.5 -14t43.5 -14q27 0 27 33h77q9 -21 9 -48q0 -37 -20 -61t-56 -24q-32 0 -65.5 14.5t-48.5 14.5q-32 0 -32 -33h-75q-6 18 -6 40q0 39 22 65.5t62 26.5zM251 430q98 0 160 -64.5t62 -157.5q0 -94 -61 -156t-161 -62t-161 62.5t-61 155.5t62 157.5
t160 64.5zM250 317q-40 0 -64.5 -30t-24.5 -78q0 -47 25.5 -77t65.5 -30q39 0 63.5 29.5t24.5 76.5t-25.5 78t-64.5 31z" />
    <glyph glyph-name="odieresis" unicode="&#xf6;" horiz-adv-x="501" 
d="M251 430q98 0 160 -64.5t62 -157.5q0 -94 -61 -156t-161 -62t-161 62.5t-61 155.5t62 157.5t160 64.5zM250 317q-40 0 -64.5 -30t-24.5 -78q0 -47 25.5 -77t65.5 -30q39 0 63.5 29.5t24.5 76.5t-25.5 78t-64.5 31zM152 637q30 0 50.5 -21t20.5 -51t-20.5 -51.5
t-50.5 -21.5t-51 21.5t-21 51.5t21 51t51 21zM350 637q30 0 50.5 -21t20.5 -51t-20.5 -51.5t-50.5 -21.5t-51 21.5t-21 51.5t21 51t51 21z" />
    <glyph glyph-name="divide" unicode="&#xf7;" horiz-adv-x="430" 
d="M44 283h342v-114h-342v114zM217 444q28 0 47 -19t19 -47q0 -27 -19 -46t-47 -19q-27 0 -46.5 19t-19.5 46q0 28 19.5 47t46.5 19zM217 140q28 0 46.5 -19t18.5 -47q0 -27 -18.5 -46t-46.5 -19q-27 0 -46.5 19t-19.5 46q0 28 19.5 47t46.5 19z" />
    <glyph glyph-name="oslash" unicode="&#xf8;" horiz-adv-x="501" 
d="M251 430q54 0 100 -22l40 58h81l-66 -95q67 -65 67 -163q0 -94 -61 -156t-161 -62q-51 0 -97 19l-37 -52h-80l62 87q-70 62 -70 164q0 93 62 157.5t160 64.5zM250 317q-40 0 -64.5 -30t-24.5 -78q0 -36 13 -59l110 159q-18 8 -34 8zM340 208q0 29 -11 54l-107 -155
q11 -5 30 -5q39 0 63.5 29.5t24.5 76.5z" />
    <glyph glyph-name="ugrave" unicode="&#xf9;" horiz-adv-x="499" 
d="M105 643h128l77 -145v-10h-111l-94 145v10zM47 419h130v-213q0 -46 13.5 -68.5t49.5 -22.5q42 0 79 44v260h130v-419h-128v55q-17 -24 -53 -44.5t-80 -20.5q-61 -1 -101 37.5t-40 119.5v272z" />
    <glyph glyph-name="uacute" unicode="&#xfa;" horiz-adv-x="499" 
d="M271 643h128v-10l-90 -145h-113v10zM47 419h130v-213q0 -46 13.5 -68.5t49.5 -22.5q42 0 79 44v260h130v-419h-128v55q-17 -24 -53 -44.5t-80 -20.5q-61 -1 -101 37.5t-40 119.5v272z" />
    <glyph glyph-name="ucircumflex" unicode="&#xfb;" horiz-adv-x="499" 
d="M47 419h130v-213q0 -46 13.5 -68.5t49.5 -22.5q42 0 79 44v260h130v-419h-128v55q-17 -24 -53 -44.5t-80 -20.5q-61 -1 -101 37.5t-40 119.5v272zM216 643h79l99 -145v-10h-100l-39 61l-38 -61h-100v10z" />
    <glyph glyph-name="udieresis" unicode="&#xfc;" horiz-adv-x="499" 
d="M47 419h130v-213q0 -46 13.5 -68.5t49.5 -22.5q42 0 79 44v260h130v-419h-128v55q-17 -24 -53 -44.5t-80 -20.5q-61 -1 -101 37.5t-40 119.5v272zM156 637q30 0 50.5 -21t20.5 -51t-20.5 -51.5t-50.5 -21.5t-51 21.5t-21 51.5t21 51t51 21zM354 637q30 0 50.5 -21
t20.5 -51t-20.5 -51.5t-50.5 -21.5t-51 21.5t-21 51.5t21 51t51 21z" />
    <glyph glyph-name="yacute" unicode="&#xfd;" horiz-adv-x="470" 
d="M6 419h142l95 -250l97 250h132l-244 -596h-132l82 192zM277 643h128v-10l-90 -145h-113v10z" />
    <glyph glyph-name="thorn" unicode="&#xfe;" horiz-adv-x="516" 
d="M47 710h130v-335q51 55 129 55q77 0 129 -61t52 -159q0 -97 -55.5 -158.5t-136.5 -61.5q-80 0 -118 51v-218h-130v887zM266 315q-41 0 -65 -30.5t-24 -77.5q0 -44 24 -73.5t65 -29.5q40 0 64.5 29t24.5 76q0 46 -24 76t-65 30z" />
    <glyph glyph-name="ydieresis" unicode="&#xff;" horiz-adv-x="470" 
d="M6 419h142l95 -250l97 250h132l-244 -596h-132l82 192zM152 637q30 0 50.5 -21t20.5 -51t-20.5 -51.5t-50.5 -21.5t-51 21.5t-21 51.5t21 51t51 21zM350 637q30 0 50.5 -21t20.5 -51t-20.5 -51.5t-50.5 -21.5t-51 21.5t-21 51.5t21 51t51 21z" />
    <glyph glyph-name="Amacron" unicode="&#x100;" horiz-adv-x="642" 
d="M314 714h13l322 -714h-148l-49 112h-264l-48 -112h-147zM320 418l-82 -190h164zM155 900h328v-113h-328v113z" />
    <glyph glyph-name="amacron" unicode="&#x101;" horiz-adv-x="519" 
d="M228 430q76 0 111 -51l2 40h128v-419h-128v49q-42 -59 -117 -59q-85 0 -140 59t-55 161q0 104 58 162t141 58zM251 314q-40 0 -64.5 -30t-24.5 -76q0 -45 24.5 -74t64.5 -29q42 0 65 29t23 76q0 46 -23 75t-65 29zM116 611h300v-100h-300v100z" />
    <glyph glyph-name="Abreve" unicode="&#x102;" horiz-adv-x="642" 
d="M314 714h13l322 -714h-148l-49 112h-264l-48 -112h-147zM320 418l-82 -190h164zM161 912h114q1 -23 12 -39t32 -16q40 0 44 55h113q-2 -64 -40 -103.5t-117 -39.5t-118 40.5t-40 102.5z" />
    <glyph glyph-name="abreve" unicode="&#x103;" horiz-adv-x="519" 
d="M228 430q76 0 111 -51l2 40h128v-419h-128v49q-42 -59 -117 -59q-85 0 -140 59t-55 161q0 104 58 162t141 58zM251 314q-40 0 -64.5 -30t-24.5 -76q0 -45 24.5 -74t64.5 -29q42 0 65 29t23 76q0 46 -23 75t-65 29zM118 635h98q2 -63 46 -63q43 0 46 63h97
q-1 -69 -36 -110t-107 -41q-71 0 -107 42t-37 109z" />
    <glyph glyph-name="Aogonek" unicode="&#x104;" horiz-adv-x="642" 
d="M314 714h13l322 -714q-49 -6 -72 -25t-23 -42q0 -27 29 -27q15 0 29 9h10v-88q-27 -15 -69 -15q-51 0 -80 23.5t-29 63.5q0 58 57 101l-48 112h-265l-48 -112h-147zM320 418l-81 -190h162z" />
    <glyph glyph-name="aogonek" unicode="&#x105;" horiz-adv-x="519" 
d="M228 430q76 0 111 -51l2 40h128v-419q-38 -9 -59.5 -26.5t-21.5 -39.5q0 -14 9 -22t23 -8q18 0 32 9h9v-86q-27 -15 -69 -15q-50 0 -77 24t-27 63q0 57 53 100v50q-42 -59 -117 -59q-85 0 -140 59t-55 161q0 104 58 162t141 58zM251 314q-40 0 -64.5 -30t-24.5 -76
q0 -45 24.5 -74t64.5 -29q42 0 65 29t23 76q0 46 -23 75t-65 29z" />
    <glyph glyph-name="Cacute" unicode="&#x106;" horiz-adv-x="631" 
d="M381 720q83 0 138.5 -28.5t84.5 -65.5l-71 -104q-66 66 -150 66q-88 0 -140.5 -62.5t-52.5 -163.5q0 -108 57.5 -174t154.5 -66q55 0 102 26.5t75 61.5h10v-142q-14 -15 -36 -30.5t-70.5 -31.5t-104.5 -16q-151 0 -243.5 99.5t-92.5 263.5q0 166 96 266.5t243 100.5z
M432 908h151v-13l-154 -119h-126v12z" />
    <glyph glyph-name="cacute" unicode="&#x107;" horiz-adv-x="408" 
d="M248 430q90 0 139 -53l-48 -97q-37 34 -81 34q-45 0 -72 -29t-27 -74q0 -46 27 -76.5t77 -30.5q60 0 100 41h9v-114q-20 -18 -55.5 -29.5t-72.5 -11.5q-98 0 -156.5 60.5t-58.5 159.5q0 94 61.5 157t157.5 63zM261 643h128v-10l-90 -145h-113v10z" />
    <glyph glyph-name="Ccircumflex" unicode="&#x108;" horiz-adv-x="631" 
d="M381 720q83 0 138.5 -28.5t84.5 -65.5l-71 -104q-66 66 -150 66q-88 0 -140.5 -62.5t-52.5 -163.5q0 -108 57.5 -174t154.5 -66q55 0 102 26.5t75 61.5h10v-142q-14 -15 -36 -30.5t-70.5 -31.5t-104.5 -16q-151 0 -243.5 99.5t-92.5 263.5q0 166 96 266.5t243 100.5z
M343 918h77l125 -132v-10h-116l-48 47l-47 -47h-116v10z" />
    <glyph glyph-name="ccircumflex" unicode="&#x109;" horiz-adv-x="408" 
d="M248 430q90 0 139 -53l-48 -97q-37 34 -81 34q-45 0 -72 -29t-27 -74q0 -46 27 -76.5t77 -30.5q60 0 100 41h9v-114q-20 -18 -55.5 -29.5t-72.5 -11.5q-98 0 -156.5 60.5t-58.5 159.5q0 94 61.5 157t157.5 63zM204 643h79l99 -145v-10h-100l-39 61l-38 -61h-100v10z" />
    <glyph glyph-name="Cdotaccent" unicode="&#x10a;" horiz-adv-x="631" 
d="M381 720q83 0 138.5 -28.5t84.5 -65.5l-71 -104q-66 66 -150 66q-88 0 -140.5 -62.5t-52.5 -163.5q0 -108 57.5 -174t154.5 -66q55 0 102 26.5t75 61.5h10v-142q-14 -15 -36 -30.5t-70.5 -31.5t-104.5 -16q-151 0 -243.5 99.5t-92.5 263.5q0 166 96 266.5t243 100.5z
M379 933q35 0 59 -24.5t24 -58.5t-24 -58.5t-59 -24.5t-59.5 24.5t-24.5 58.5t24.5 58.5t59.5 24.5z" />
    <glyph glyph-name="cdotaccent" unicode="&#x10b;" horiz-adv-x="408" 
d="M239 645q32 0 53.5 -21.5t21.5 -53.5t-21.5 -53.5t-53.5 -21.5t-54 21.5t-22 53.5t22 53.5t54 21.5zM248 430q90 0 139 -53l-48 -97q-37 34 -81 34q-45 0 -72 -29t-27 -74q0 -46 27 -76.5t77 -30.5q60 0 100 41h9v-114q-20 -18 -55.5 -29.5t-72.5 -11.5
q-98 0 -156.5 60.5t-58.5 159.5q0 94 61.5 157t157.5 63z" />
    <glyph glyph-name="Ccaron" unicode="&#x10c;" horiz-adv-x="631" 
d="M216 916h115l49 -53l47 53h116v-10l-125 -132h-77l-125 132v10zM381 720q83 0 138.5 -28.5t84.5 -65.5l-71 -104q-66 66 -150 66q-88 0 -140.5 -62.5t-52.5 -163.5q0 -108 57.5 -174t154.5 -66q55 0 102 26.5t75 61.5h10v-142q-14 -15 -36 -30.5t-70.5 -31.5t-104.5 -16
q-151 0 -243.5 99.5t-92.5 263.5q0 166 96 266.5t243 100.5z" />
    <glyph glyph-name="ccaron" unicode="&#x10d;" horiz-adv-x="408" 
d="M248 430q90 0 139 -53l-48 -97q-37 34 -81 34q-45 0 -72 -29t-27 -74q0 -46 27 -76.5t77 -30.5q60 0 100 41h9v-114q-20 -18 -55.5 -29.5t-72.5 -11.5q-98 0 -156.5 60.5t-58.5 159.5q0 94 61.5 157t157.5 63zM101 643h100l39 -61l38 61h100v-10l-99 -145h-79l-99 145v10
z" />
    <glyph glyph-name="Dcaron" unicode="&#x10e;" horiz-adv-x="695" 
d="M161 916h115l49 -53l47 53h116v-10l-125 -132h-77l-125 132v10zM68 710h198q187 0 287 -91t100 -257q0 -179 -102 -270.5t-292 -91.5h-191v710zM209 580v-450h56q240 0 240 229q0 63 -20.5 108t-56.5 68.5t-75.5 34t-85.5 10.5h-58z" />
    <glyph glyph-name="dcaron" unicode="&#x10f;" horiz-adv-x="630" 
d="M516 733h123l-26 -242h-97v242zM339 710h130v-710h-128v49q-42 -59 -117 -59q-85 0 -140 59t-55 161q0 104 58 162t141 58q71 0 111 -52v332zM251 314q-40 0 -64.5 -30t-24.5 -76q0 -45 24.5 -74t64.5 -29q42 0 65 29t23 76q0 46 -23 75t-65 29z" />
    <glyph glyph-name="Dcroat" unicode="&#x110;" horiz-adv-x="695" 
d="M68 710h198q187 0 287 -91t100 -257q0 -179 -102 -270.5t-292 -91.5h-191v297h-68v129h68v284zM209 580v-154h140v-129h-140v-167h56q240 0 240 229q0 63 -20.5 108t-56.5 68.5t-75.5 34t-85.5 10.5h-58z" />
    <glyph glyph-name="dcroat" unicode="&#x111;" horiz-adv-x="516" 
d="M339 710h130v-102h53v-112h-53v-496h-128v49q-42 -59 -117 -59q-85 0 -140 59t-55 161q0 104 58 162t141 58q71 0 111 -52v118h-129v112h129v102zM251 314q-40 0 -64.5 -30t-24.5 -76q0 -45 24.5 -74t64.5 -29q42 0 65 29t23 76q0 46 -23 75t-65 29z" />
    <glyph glyph-name="Emacron" unicode="&#x112;" horiz-adv-x="526" 
d="M110 900h328v-113h-328v113zM68 710h408v-130h-267v-154h250v-129h-250v-167h267v-130h-408v710z" />
    <glyph glyph-name="emacron" unicode="&#x113;" horiz-adv-x="476" 
d="M100 611h300v-100h-300v100zM253 430q91 0 142.5 -60.5t51.5 -153.5q0 -22 -3 -40h-284q5 -33 32 -56.5t72 -23.5q59 0 109 50l60 -77q-24 -32 -72.5 -55.5t-104.5 -23.5q-106 0 -166.5 61t-60.5 159q0 95 62 157.5t162 62.5zM244 328q-36 0 -57 -23t-26 -52h160
q-3 28 -20.5 51.5t-56.5 23.5z" />
    <glyph glyph-name="Ebreve" unicode="&#x114;" horiz-adv-x="526" 
d="M118 912h114q1 -23 12 -39t32 -16q40 0 44 55h113q-2 -64 -40 -103.5t-117 -39.5t-118 40.5t-40 102.5zM68 710h408v-130h-267v-154h250v-129h-250v-167h267v-130h-408v710z" />
    <glyph glyph-name="ebreve" unicode="&#x115;" horiz-adv-x="476" 
d="M105 635h98q2 -63 46 -63q43 0 46 63h97q-1 -69 -36 -110t-107 -41q-71 0 -107 42t-37 109zM253 430q91 0 142.5 -60.5t51.5 -153.5q0 -22 -3 -40h-284q5 -33 32 -56.5t72 -23.5q59 0 109 50l60 -77q-24 -32 -72.5 -55.5t-104.5 -23.5q-106 0 -166.5 61t-60.5 159
q0 95 62 157.5t162 62.5zM244 328q-36 0 -57 -23t-26 -52h160q-3 28 -20.5 51.5t-56.5 23.5z" />
    <glyph glyph-name="Edotaccent" unicode="&#x116;" horiz-adv-x="526" 
d="M68 710h408v-130h-267v-154h250v-129h-250v-167h267v-130h-408v710zM281 933q35 0 59 -24.5t24 -58.5t-24 -58.5t-59 -24.5t-59.5 24.5t-24.5 58.5t24.5 58.5t59.5 24.5z" />
    <glyph glyph-name="edotaccent" unicode="&#x117;" horiz-adv-x="476" 
d="M251 645q32 0 53.5 -21.5t21.5 -53.5t-21.5 -53.5t-53.5 -21.5t-54 21.5t-22 53.5t22 53.5t54 21.5zM253 430q91 0 142.5 -60.5t51.5 -153.5q0 -22 -3 -40h-284q5 -33 32 -56.5t72 -23.5q59 0 109 50l60 -77q-24 -32 -72.5 -55.5t-104.5 -23.5q-106 0 -166.5 61
t-60.5 159q0 95 62 157.5t162 62.5zM244 328q-36 0 -57 -23t-26 -52h160q-3 28 -20.5 51.5t-56.5 23.5z" />
    <glyph glyph-name="Eogonek" unicode="&#x118;" horiz-adv-x="526" 
d="M68 710h408v-130h-267v-154h250v-129h-250v-167h267v-130q-32 -7 -52.5 -26.5t-20.5 -40.5q0 -27 27 -27q16 0 31 9h10v-88q-27 -15 -70 -15q-50 0 -79.5 24t-29.5 63q0 58 58 101h-282v710z" />
    <glyph glyph-name="eogonek" unicode="&#x119;" horiz-adv-x="476" 
d="M253 430q91 0 142.5 -60.5t51.5 -153.5q0 -22 -3 -40h-284q5 -33 32 -56.5t72 -23.5q59 0 109 50l60 -77q-18 -22 -47 -43q-65 -45 -65 -92q0 -13 9.5 -21.5t23.5 -8.5q18 0 32 9h9v-86q-27 -15 -69 -15q-50 0 -77.5 24t-27.5 63q0 49 38 91h-16q-99 4 -156.5 65
t-57.5 155q0 95 62 157.5t162 62.5zM244 328q-36 0 -57 -23t-26 -52h160q-3 28 -20.5 51.5t-56.5 23.5z" />
    <glyph glyph-name="Ecaron" unicode="&#x11a;" horiz-adv-x="526" 
d="M115 916h115l49 -53l47 53h116v-10l-125 -132h-77l-125 132v10zM68 710h408v-130h-267v-154h250v-129h-250v-167h267v-130h-408v710z" />
    <glyph glyph-name="ecaron" unicode="&#x11b;" horiz-adv-x="476" 
d="M253 430q91 0 142.5 -60.5t51.5 -153.5q0 -22 -3 -40h-284q5 -33 32 -56.5t72 -23.5q59 0 109 50l60 -77q-24 -32 -72.5 -55.5t-104.5 -23.5q-106 0 -166.5 61t-60.5 159q0 95 62 157.5t162 62.5zM244 328q-36 0 -57 -23t-26 -52h160q-3 28 -20.5 51.5t-56.5 23.5z
M111 643h100l39 -61l38 61h100v-10l-99 -145h-79l-99 145v10z" />
    <glyph glyph-name="Gcircumflex" unicode="&#x11c;" horiz-adv-x="712" 
d="M405 720q80 0 142 -27t98 -64l-68 -109q-79 68 -173 68q-90 0 -152 -59t-62 -170q0 -117 59 -177t144 -60q96 0 132 48v124h-127v117h261v-290q-36 -59 -110.5 -95t-158.5 -36q-164 0 -256 100.5t-92 261.5q0 164 97.5 266t265.5 102zM356 918h77l125 -132v-10h-116
l-48 47l-47 -47h-116v10z" />
    <glyph glyph-name="gcircumflex" unicode="&#x11d;" horiz-adv-x="515" 
d="M228 643h79l99 -145v-10h-100l-39 61l-38 -61h-100v10zM228 430q73 0 111 -51l2 40h128v-372q0 -118 -63.5 -176.5t-166.5 -58.5q-57 0 -107.5 19.5t-82.5 51.5l55 89q61 -52 128 -52q52 0 79.5 28t27.5 80v22q-40 -56 -118 -56q-83 0 -137.5 57.5t-54.5 158.5
q0 103 58.5 161.5t140.5 58.5zM251 314q-40 0 -64.5 -30t-24.5 -76q0 -45 24.5 -74t64.5 -29q42 0 65 29t23 76q0 46 -23 75t-65 29z" />
    <glyph glyph-name="Gbreve" unicode="&#x11e;" horiz-adv-x="712" 
d="M229 912h114q1 -23 12 -39t32 -16q40 0 44 55h113q-2 -64 -40 -103.5t-117 -39.5t-118 40.5t-40 102.5zM405 720q80 0 142 -27t98 -64l-68 -109q-79 68 -173 68q-90 0 -152 -59t-62 -170q0 -117 59 -177t144 -60q96 0 132 48v124h-127v117h261v-290q-36 -59 -110.5 -95
t-158.5 -36q-164 0 -256 100.5t-92 261.5q0 164 97.5 266t265.5 102z" />
    <glyph glyph-name="gbreve" unicode="&#x11f;" horiz-adv-x="515" 
d="M122 635h98q2 -63 46 -63q43 0 46 63h97q-1 -69 -36 -110t-107 -41q-71 0 -107 42t-37 109zM228 430q73 0 111 -51l2 40h128v-372q0 -118 -63.5 -176.5t-166.5 -58.5q-57 0 -107.5 19.5t-82.5 51.5l55 89q61 -52 128 -52q52 0 79.5 28t27.5 80v22q-40 -56 -118 -56
q-83 0 -137.5 57.5t-54.5 158.5q0 103 58.5 161.5t140.5 58.5zM251 314q-40 0 -64.5 -30t-24.5 -76q0 -45 24.5 -74t64.5 -29q42 0 65 29t23 76q0 46 -23 75t-65 29z" />
    <glyph glyph-name="Gdotaccent" unicode="&#x120;" horiz-adv-x="712" 
d="M391 933q35 0 59 -24.5t24 -58.5t-24 -58.5t-59 -24.5t-59.5 24.5t-24.5 58.5t24.5 58.5t59.5 24.5zM405 720q80 0 142 -27t98 -64l-68 -109q-79 68 -173 68q-90 0 -152 -59t-62 -170q0 -117 59 -177t144 -60q96 0 132 48v124h-127v117h261v-290q-36 -59 -110.5 -95
t-158.5 -36q-164 0 -256 100.5t-92 261.5q0 164 97.5 266t265.5 102z" />
    <glyph glyph-name="gdotaccent" unicode="&#x121;" horiz-adv-x="515" 
d="M268 645q32 0 53.5 -21.5t21.5 -53.5t-21.5 -53.5t-53.5 -21.5t-54 21.5t-22 53.5t22 53.5t54 21.5zM228 430q73 0 111 -51l2 40h128v-372q0 -118 -63.5 -176.5t-166.5 -58.5q-57 0 -107.5 19.5t-82.5 51.5l55 89q61 -52 128 -52q52 0 79.5 28t27.5 80v22
q-40 -56 -118 -56q-83 0 -137.5 57.5t-54.5 158.5q0 103 58.5 161.5t140.5 58.5zM251 314q-40 0 -64.5 -30t-24.5 -76q0 -45 24.5 -74t64.5 -29q42 0 65 29t23 76q0 46 -23 75t-65 29z" />
    <glyph glyph-name="uni0122" unicode="&#x122;" horiz-adv-x="712" 
d="M390 -27q26 0 41.5 -16t15.5 -41q0 -27 -23 -72l-26 -50h-69l40 79q-14 4 -26 16t-12 32q0 22 16.5 37t42.5 15zM405 720q80 0 142 -27t98 -64l-68 -109q-79 68 -173 68q-90 0 -152 -59t-62 -170q0 -117 59 -177t144 -60q96 0 132 48v124h-127v117h261v-290
q-36 -59 -110.5 -95t-158.5 -36q-164 0 -256 100.5t-92 261.5q0 164 97.5 266t265.5 102z" />
    <glyph glyph-name="uni0123" unicode="&#x123;" horiz-adv-x="515" 
d="M259 696h76l-58 -104q43 -10 43 -52q0 -24 -17 -40.5t-46 -16.5q-28 0 -46.5 18t-18.5 44q0 34 28 80zM228 430q73 0 111 -51l2 40h128v-372q0 -118 -63.5 -176.5t-166.5 -58.5q-57 0 -107.5 19.5t-82.5 51.5l55 89q61 -52 128 -52q52 0 79.5 28t27.5 80v22
q-40 -56 -118 -56q-83 0 -137.5 57.5t-54.5 158.5q0 103 58.5 161.5t140.5 58.5zM251 314q-40 0 -64.5 -30t-24.5 -76q0 -45 24.5 -74t64.5 -29q42 0 65 29t23 76q0 46 -23 75t-65 29z" />
    <glyph glyph-name="Hcircumflex" unicode="&#x124;" horiz-adv-x="720" 
d="M68 710h141v-277h302v277h141v-710h-141v299h-302v-299h-141v710zM321 918h77l125 -132v-10h-116l-48 47l-47 -47h-116v10z" />
    <glyph glyph-name="hcircumflex" unicode="&#x125;" horiz-adv-x="498" 
d="M47 710h130v-350q58 69 142 69q57 0 94.5 -41.5t37.5 -123.5v-264h-130v226q0 77 -56 77q-41 0 -88 -47v-256h-130v710zM235 912h77l125 -132v-10h-116l-48 47l-47 -47h-116v10z" />
    <glyph glyph-name="Hbar" unicode="&#x126;" horiz-adv-x="720" 
d="M68 710h141v-78h302v78h141v-78h75v-116h-75v-516h-141v299h-302v-299h-141v516h-77v116h77v78zM209 433h302v83h-302v-83z" />
    <glyph glyph-name="hbar" unicode="&#x127;" horiz-adv-x="498" 
d="M47 710h130v-101h128v-112h-128v-137q58 69 142 69q57 0 94.5 -41.5t37.5 -123.5v-264h-130v226q0 77 -56 77q-41 0 -88 -47v-256h-130v497h-52v112h52v101z" />
    <glyph glyph-name="Itilde" unicode="&#x128;" horiz-adv-x="277" 
d="M64 915q27 0 67.5 -16.5t58.5 -16.5q32 0 32 40h75q8 -27 8 -54q0 -39 -23 -66t-63 -27q-31 0 -74.5 16t-57.5 16q-35 0 -35 -39h-75q-5 20 -5 41q0 45 24.5 75.5t67.5 30.5zM68 710h141v-710h-141v710z" />
    <glyph glyph-name="itilde" unicode="&#x129;" horiz-adv-x="231" 
d="M58 623q23 0 51 -10.5t34 -10.5q23 0 23 29h71q9 -23 9 -54q0 -39 -19 -57.5t-47 -18.5q-24 0 -53 10.5t-40 10.5q-26 0 -26 -29h-70q-6 14 -6 44q0 42 20.5 64t52.5 22zM50 419h130v-419h-130v419z" />
    <glyph glyph-name="Imacron" unicode="&#x12a;" horiz-adv-x="277" 
d="M-2 900h280v-113h-280v113zM68 710h141v-710h-141v710z" />
    <glyph glyph-name="imacron" unicode="&#x12b;" horiz-adv-x="231" 
d="M0 611h231v-100h-231v100zM50 419h130v-419h-130v419z" />
    <glyph glyph-name="Ibreve" unicode="&#x12c;" horiz-adv-x="277" 
d="M-10 912h111q2 -54 37 -54q33 0 37 54h110q-2 -64 -38 -103.5t-109 -39.5t-110 40.5t-38 102.5zM68 710h141v-710h-141v710z" />
    <glyph glyph-name="ibreve" unicode="&#x12d;" horiz-adv-x="231" 
d="M-16 635h97q3 -62 35 -62t35 62h97q-2 -71 -34.5 -111t-97.5 -40t-98 41t-34 110zM50 419h130v-419h-130v419z" />
    <glyph glyph-name="Iogonek" unicode="&#x12e;" horiz-adv-x="277" 
d="M68 710h141v-710q-85 -12 -85 -64q0 -33 31 -33q18 0 33 10h9v-86q-27 -15 -70 -15q-51 0 -80 24.5t-29 67.5q0 53 50 96v710z" />
    <glyph glyph-name="iogonek" unicode="&#x12f;" horiz-adv-x="231" 
d="M50 419h130v-419q-36 -7 -56 -24t-20 -40q0 -15 9 -23.5t23 -8.5q18 0 33 9h9v-86q-27 -15 -69 -15q-50 0 -77.5 24.5t-27.5 66.5q0 54 46 96v420zM116 645q32 0 53 -21.5t21 -53.5t-21.5 -53.5t-52.5 -21.5q-32 0 -54 21.5t-22 53.5t22 53.5t54 21.5z" />
    <glyph glyph-name="Idotaccent" unicode="&#x130;" horiz-adv-x="277" 
d="M68 710h141v-710h-141v710zM139 933q35 0 59 -24.5t24 -58.5t-24 -58.5t-59 -24.5t-59.5 24.5t-24.5 58.5t24.5 58.5t59.5 24.5z" />
    <glyph glyph-name="dotlessi" unicode="&#x131;" horiz-adv-x="231" 
d="M50 419h130v-419h-130v419z" />
    <glyph glyph-name="IJ" unicode="&#x132;" horiz-adv-x="667" 
d="M68 710h141v-710h-141v710zM464 710h141v-508q0 -105 -49 -158.5t-128 -53.5q-84 0 -124 34v116h9q35 -22 73 -22q15 0 26 2.5t24.5 11t20.5 29.5t7 52v497z" />
    <glyph glyph-name="ij" unicode="&#x133;" horiz-adv-x="458" 
d="M50 419h130v-419h-130v419zM116 645q32 0 53 -21.5t21 -53.5t-21.5 -53.5t-52.5 -21.5q-32 0 -54 21.5t-22 53.5t22 53.5t54 21.5zM280 419h130v-409q0 -98 -41.5 -144.5t-125.5 -46.5q-19 0 -42 6v104h24q29 0 42 17t13 55v418zM346 645q32 0 53 -21.5t21 -53.5
t-21.5 -53.5t-52.5 -21.5q-32 0 -54 21.5t-22 53.5t22 53.5t54 21.5z" />
    <glyph glyph-name="Jcircumflex" unicode="&#x134;" horiz-adv-x="387" 
d="M208 918h80l111 -132v-11h-113l-39 47l-37 -47h-113v11zM184 710h141v-508q0 -105 -49 -158.5t-128 -53.5q-84 0 -124 34v116h9q35 -22 73 -22q15 0 26 2.5t24.5 11t20.5 29.5t7 52v497z" />
    <glyph glyph-name="jcircumflex" unicode="&#x135;" horiz-adv-x="228" 
d="M77 643h79l88 -145v-10h-97l-31 58l-31 -58h-98v10zM50 419h130v-409q0 -98 -41.5 -144.5t-125.5 -46.5q-14 0 -42 6v104h24q29 0 42 17t13 55v418z" />
    <glyph glyph-name="uni0136" unicode="&#x136;" horiz-adv-x="629" 
d="M343 -27q26 0 41.5 -16t15.5 -41q0 -27 -23 -72l-26 -50h-69l40 79q-14 4 -26 16t-12 32q0 22 16.5 37t42.5 15zM68 710h141v-272l245 272h168l-282 -316l290 -394h-168l-215 289l-38 -42v-247h-141v710z" />
    <glyph glyph-name="uni0137" unicode="&#x137;" horiz-adv-x="466" 
d="M47 710h130v-419l129 128h162l-183 -181l189 -238h-155l-127 160l-15 -14v-146h-130v710zM251 -27q26 0 40.5 -15.5t14.5 -40.5q0 -24 -22 -68l-27 -55h-68l40 82q-35 10 -35 47q0 21 16 35.5t41 14.5z" />
    <glyph glyph-name="kgreenlandic" unicode="&#x138;" horiz-adv-x="469" 
d="M50 419h130v-127l127 127h164l-183 -181l189 -238h-155l-127 156l-15 -14v-142h-130v419z" />
    <glyph glyph-name="Lacute" unicode="&#x139;" horiz-adv-x="475" 
d="M68 710h141v-580h236v-130h-377v710zM206 908h151v-13l-154 -119h-126v12z" />
    <glyph glyph-name="lacute" unicode="&#x13a;" horiz-adv-x="225" 
d="M47 710h130v-710h-130v710zM180 908h151v-13l-154 -119h-126v12z" />
    <glyph glyph-name="uni013B" unicode="&#x13b;" horiz-adv-x="475" 
d="M268 -27q26 0 41.5 -16t15.5 -41q0 -27 -23 -72l-26 -50h-69l40 79q-14 4 -26 16t-12 32q0 22 16.5 37t42.5 15zM68 710h141v-580h236v-130h-377v710z" />
    <glyph glyph-name="uni013C" unicode="&#x13c;" horiz-adv-x="225" 
d="M113 -27q26 0 40.5 -15.5t14.5 -40.5q0 -24 -22 -68l-27 -55h-68l40 82q-35 10 -35 47q0 21 16 35.5t41 14.5zM47 710h130v-710h-130v710z" />
    <glyph glyph-name="Lcaron" unicode="&#x13d;" horiz-adv-x="475" 
d="M305 733h123l-26 -242h-97v242zM68 710h141v-580h236v-130h-377v710z" />
    <glyph glyph-name="lcaron" unicode="&#x13e;" horiz-adv-x="339" 
d="M225 733h123l-26 -242h-97v242zM47 710h130v-710h-130v710z" />
    <glyph glyph-name="Ldot" unicode="&#x13f;" horiz-adv-x="475" 
d="M378 442q32 0 54 -22t22 -54t-22 -53.5t-54 -21.5t-53.5 21.5t-21.5 53.5t21.5 54t53.5 22zM68 710h141v-580h236v-130h-377v710z" />
    <glyph glyph-name="ldot" unicode="&#x140;" horiz-adv-x="353" 
d="M47 710h130v-710h-130v710zM290 442q32 0 53.5 -22t21.5 -53q0 -32 -21.5 -54t-53.5 -22t-54 22t-22 54t22 53.5t54 21.5z" />
    <glyph glyph-name="Lslash" unicode="&#x141;" horiz-adv-x="475" 
d="M68 710h141v-251l113 65v-134l-113 -65v-195h236v-130h-377v249l-69 -39v134l69 39v327z" />
    <glyph glyph-name="lslash" unicode="&#x142;" horiz-adv-x="225" 
d="M47 710h130v-222l54 31v-126l-54 -31v-362h-130v298l-52 -30v126l52 30v286z" />
    <glyph glyph-name="Nacute" unicode="&#x143;" horiz-adv-x="702" 
d="M394 908h151v-13l-154 -119h-126v12zM68 715h15l410 -407v402h141v-721h-20l-405 403v-392h-141v715z" />
    <glyph glyph-name="nacute" unicode="&#x144;" horiz-adv-x="501" 
d="M277 643h128v-10l-90 -145h-113v10zM50 419h130v-59q21 26 57.5 48t84.5 22q57 0 94.5 -42t37.5 -124v-264h-130v227q0 77 -56 77q-43 0 -88 -47v-257h-130v419z" />
    <glyph glyph-name="uni0145" unicode="&#x145;" horiz-adv-x="702" 
d="M392 -27q26 0 41.5 -16t15.5 -41q0 -27 -23 -72l-26 -50h-69l40 79q-14 4 -26 16t-12 32q0 22 16.5 37t42.5 15zM68 715h15l410 -407v402h141v-721h-20l-405 403v-392h-141v715z" />
    <glyph glyph-name="uni0146" unicode="&#x146;" horiz-adv-x="501" 
d="M257 -27q26 0 40.5 -15.5t14.5 -40.5q0 -24 -22 -68l-27 -55h-68l40 82q-35 10 -35 47q0 21 16 35.5t41 14.5zM50 419h130v-59q21 26 57.5 48t84.5 22q57 0 94.5 -42t37.5 -124v-264h-130v227q0 77 -56 77q-43 0 -88 -47v-257h-130v419z" />
    <glyph glyph-name="Ncaron" unicode="&#x147;" horiz-adv-x="702" 
d="M191 916h115l49 -53l47 53h116v-10l-125 -132h-77l-125 132v10zM68 715h15l410 -407v402h141v-721h-20l-405 403v-392h-141v715z" />
    <glyph glyph-name="ncaron" unicode="&#x148;" horiz-adv-x="501" 
d="M129 643h100l39 -61l38 61h100v-10l-99 -145h-79l-99 145v10zM50 419h130v-59q21 26 57.5 48t84.5 22q57 0 94.5 -42t37.5 -124v-264h-130v227q0 77 -56 77q-43 0 -88 -47v-257h-130v419z" />
    <glyph glyph-name="napostrophe" unicode="&#x149;" horiz-adv-x="593" 
d="M97 720q33 0 53.5 -22t20.5 -53q0 -39 -38 -108l-51 -95h-81l73 138q-22 6 -37.5 23.5t-15.5 44.5q0 30 20.5 51t55.5 21zM142 419h130v-59q21 26 57.5 48t84.5 22q57 0 94.5 -42t37.5 -124v-264h-130v227q0 77 -56 77q-43 0 -88 -47v-257h-130v419z" />
    <glyph glyph-name="Eng" unicode="&#x14a;" horiz-adv-x="702" 
d="M68 714h19l406 -412v408h141v-688q-1 -104 -49.5 -157t-127.5 -53q-83 0 -124 34v116h10q42 -22 72 -22q15 0 26 3t24.5 11.5t20.5 29t7 51.5v65l-284 294v-394h-141v714z" />
    <glyph glyph-name="eng" unicode="&#x14b;" horiz-adv-x="501" 
d="M50 419h128v-62q20 27 58 50t86 23q57 0 94.5 -42t37.5 -124v-252q0 -100 -42.5 -145.5t-124.5 -45.5q-13 0 -43 6v104h25q55 0 55 72v224q0 77 -56 77q-43 0 -88 -47v-257h-130v419z" />
    <glyph glyph-name="Omacron" unicode="&#x14c;" horiz-adv-x="756" 
d="M213 900h328v-113h-328v113zM378 720q146 0 240.5 -102.5t94.5 -261.5q0 -164 -94 -265t-241 -101q-148 0 -242 100.5t-94 265.5q0 160 94 262t242 102zM376 588q-76 0 -130 -61t-54 -171q0 -108 53.5 -171t132.5 -63t132.5 61.5t53.5 169.5q0 111 -55.5 173t-132.5 62z
" />
    <glyph glyph-name="omacron" unicode="&#x14d;" horiz-adv-x="501" 
d="M100 611h300v-100h-300v100zM251 430q98 0 160 -64.5t62 -157.5q0 -94 -61 -156t-161 -62t-161 62.5t-61 155.5t62 157.5t160 64.5zM250 317q-40 0 -64.5 -30t-24.5 -78q0 -47 25.5 -77t65.5 -30q39 0 63.5 29.5t24.5 76.5t-25.5 78t-64.5 31z" />
    <glyph glyph-name="Obreve" unicode="&#x14e;" horiz-adv-x="756" 
d="M220 912h114q1 -23 12 -39t32 -16q40 0 44 55h113q-2 -64 -40 -103.5t-117 -39.5t-118 40.5t-40 102.5zM378 720q146 0 240.5 -102.5t94.5 -261.5q0 -164 -94 -265t-241 -101q-148 0 -242 100.5t-94 265.5q0 160 94 262t242 102zM376 588q-76 0 -130 -61t-54 -171
q0 -108 53.5 -171t132.5 -63t132.5 61.5t53.5 169.5q0 111 -55.5 173t-132.5 62z" />
    <glyph glyph-name="obreve" unicode="&#x14f;" horiz-adv-x="501" 
d="M106 635h98q2 -63 46 -63q43 0 46 63h97q-1 -69 -36 -110t-107 -41q-71 0 -107 42t-37 109zM251 430q98 0 160 -64.5t62 -157.5q0 -94 -61 -156t-161 -62t-161 62.5t-61 155.5t62 157.5t160 64.5zM250 317q-40 0 -64.5 -30t-24.5 -78q0 -47 25.5 -77t65.5 -30
q39 0 63.5 29.5t24.5 76.5t-25.5 78t-64.5 31z" />
    <glyph glyph-name="Ohungarumlaut" unicode="&#x150;" horiz-adv-x="756" 
d="M378 720q146 0 240.5 -102.5t94.5 -261.5q0 -164 -94 -265t-241 -101q-148 0 -242 100.5t-94 265.5q0 160 94 262t242 102zM376 588q-76 0 -130 -61t-54 -171q0 -108 53.5 -171t132.5 -63t132.5 61.5t53.5 169.5q0 111 -55.5 173t-132.5 62zM306 908h153v-11l-138 -121
h-124v10zM550 908h149v-11l-146 -121h-126v10z" />
    <glyph glyph-name="ohungarumlaut" unicode="&#x151;" horiz-adv-x="501" 
d="M188 643h121v-10l-88 -145h-104v10zM372 643h121v-10l-100 -145h-104v10zM251 430q98 0 160 -64.5t62 -157.5q0 -94 -61 -156t-161 -62t-161 62.5t-61 155.5t62 157.5t160 64.5zM250 317q-40 0 -64.5 -30t-24.5 -78q0 -47 25.5 -77t65.5 -30q39 0 63.5 29.5t24.5 76.5
t-25.5 78t-64.5 31z" />
    <glyph glyph-name="OE" unicode="&#x152;" horiz-adv-x="1015" 
d="M375 720q115 0 189 -69v59h402v-130h-264v-154h246v-129h-246v-167h264v-130h-402v63q-71 -73 -192 -73q-144 0 -237 100.5t-93 265.5q0 160 93.5 262t239.5 102zM376 588q-76 0 -130 -61t-54 -171q0 -108 53.5 -171t132.5 -63t132.5 61.5t53.5 169.5q0 111 -55.5 173
t-132.5 62z" />
    <glyph glyph-name="oe" unicode="&#x153;" horiz-adv-x="780" 
d="M251 430q94 0 150 -67q62 67 155 67q91 0 143 -60.5t52 -153.5q0 -22 -3 -40h-284q0 -1 1 -5t1 -5q9 -31 35 -50.5t67 -19.5q60 0 108 50l61 -77q-25 -33 -72 -56t-105 -23q-101 0 -160 66q-63 -66 -149 -66q-100 0 -161 62.5t-61 155.5t62 157.5t160 64.5zM250 317
q-40 0 -64.5 -30t-24.5 -78q0 -47 25.5 -77t65.5 -30q39 0 63.5 29.5t24.5 76.5t-25.5 78t-64.5 31zM548 328q-36 0 -57.5 -23t-25.5 -52h160q-3 28 -20.5 51.5t-56.5 23.5z" />
    <glyph glyph-name="Racute" unicode="&#x154;" horiz-adv-x="588" 
d="M68 710h216q120 0 189.5 -51t69.5 -157q0 -75 -44 -127t-116 -70l194 -305h-160l-179 286h-31v-286h-139v710zM207 582v-177h76q115 0 115 90q0 87 -109 87h-82zM335 908h151v-13l-154 -119h-126v12z" />
    <glyph glyph-name="racute" unicode="&#x155;" horiz-adv-x="340" 
d="M202 643h128v-10l-90 -145h-113v10zM50 419h130v-86q17 39 48 68t67 29q16 0 23 -4v-139h-15q-85 -1 -123 -64v-223h-130v419z" />
    <glyph glyph-name="uni0156" unicode="&#x156;" horiz-adv-x="588" 
d="M319 -27q26 0 41.5 -16t15.5 -41q0 -27 -23 -72l-26 -50h-69l40 79q-14 4 -26 16t-12 32q0 22 16.5 37t42.5 15zM68 710h216q120 0 189.5 -51t69.5 -157q0 -75 -44 -127t-116 -70l194 -305h-160l-179 286h-31v-286h-139v710zM207 582v-177h76q115 0 115 90q0 87 -109 87
h-82z" />
    <glyph glyph-name="uni0157" unicode="&#x157;" horiz-adv-x="340" 
d="M115 -27q26 0 40.5 -15.5t14.5 -40.5q0 -24 -22 -68l-27 -55h-68l40 82q-35 10 -35 47q0 21 16 35.5t41 14.5zM50 419h130v-86q17 39 48 68t67 29q16 0 23 -4v-139h-15q-85 -1 -123 -64v-223h-130v419z" />
    <glyph glyph-name="Rcaron" unicode="&#x158;" horiz-adv-x="588" 
d="M136 916h115l49 -53l47 53h116v-10l-125 -132h-77l-125 132v10zM68 710h216q120 0 189.5 -51t69.5 -157q0 -75 -44 -127t-116 -70l194 -305h-160l-179 286h-31v-286h-139v710zM207 582v-177h76q115 0 115 90q0 87 -109 87h-82z" />
    <glyph glyph-name="rcaron" unicode="&#x159;" horiz-adv-x="340" 
d="M50 419h130v-86q17 39 48 68t67 29q16 0 23 -4v-139h-15q-85 -1 -123 -64v-223h-130v419zM59 643h100l39 -61l38 61h100v-10l-99 -145h-79l-99 145v10z" />
    <glyph glyph-name="Sacute" unicode="&#x15a;" horiz-adv-x="512" 
d="M277 720q58 0 109.5 -23.5t83.5 -64.5l-73 -101q-53 57 -119 57q-35 0 -56.5 -16.5t-21.5 -42.5q0 -25 15.5 -41t57.5 -43l78 -49q77 -47 105 -96t28 -108q0 -78 -62 -140t-174 -62q-70 0 -123.5 21t-77.5 45v140h11q80 -74 172 -74q52 0 78.5 20.5t26.5 51.5
q0 30 -18.5 51t-63.5 48l-55 33q-31 18 -50.5 32.5t-44.5 39.5t-38 58t-13 73q0 77 60 134t165 57zM342 908h151v-13l-154 -119h-126v12z" />
    <glyph glyph-name="sacute" unicode="&#x15b;" horiz-adv-x="366" 
d="M198 430q88 0 138 -45l-40 -92q-37 31 -84 31q-24 0 -34.5 -8.5t-10.5 -18.5q0 -13 14 -21t57 -25q106 -41 106 -126q0 -56 -42 -95.5t-132 -39.5q-81 0 -131 37v109h11q53 -40 110 -40q54 0 54 28q0 12 -12.5 22.5t-45.5 24.5q-32 13 -55 26t-44 41t-21 64
q0 55 43.5 91.5t118.5 36.5zM218 643h128v-10l-90 -145h-113v10z" />
    <glyph glyph-name="Scircumflex" unicode="&#x15c;" horiz-adv-x="512" 
d="M277 720q58 0 109.5 -23.5t83.5 -64.5l-73 -101q-53 57 -119 57q-35 0 -56.5 -16.5t-21.5 -42.5q0 -25 15.5 -41t57.5 -43l78 -49q77 -47 105 -96t28 -108q0 -78 -62 -140t-174 -62q-70 0 -123.5 21t-77.5 45v140h11q80 -74 172 -74q52 0 78.5 20.5t26.5 51.5
q0 30 -18.5 51t-63.5 48l-55 33q-31 18 -50.5 32.5t-44.5 39.5t-38 58t-13 73q0 77 60 134t165 57zM241 918h77l125 -132v-10h-116l-48 47l-47 -47h-116v10z" />
    <glyph glyph-name="scircumflex" unicode="&#x15d;" horiz-adv-x="366" 
d="M198 430q88 0 138 -45l-40 -92q-37 31 -84 31q-24 0 -34.5 -8.5t-10.5 -18.5q0 -13 14 -21t57 -25q106 -41 106 -126q0 -56 -42 -95.5t-132 -39.5q-81 0 -131 37v109h11q53 -40 110 -40q54 0 54 28q0 12 -12.5 22.5t-45.5 24.5q-32 13 -55 26t-44 41t-21 64
q0 55 43.5 91.5t118.5 36.5zM163 643h79l99 -145v-10h-100l-39 61l-38 -61h-100v10z" />
    <glyph glyph-name="Scedilla" unicode="&#x15e;" horiz-adv-x="512" 
d="M277 720q58 0 109.5 -23.5t83.5 -64.5l-73 -101q-53 57 -119 57q-35 0 -56.5 -16.5t-21.5 -42.5q0 -25 15.5 -41t57.5 -43l78 -49q76 -48 104.5 -97t28.5 -107q0 -68 -48 -126t-137 -72l-17 -26q41 -3 62.5 -24.5t21.5 -49.5q0 -42 -29.5 -62t-70.5 -20q-32 0 -65 12v60
h9q18 -11 45 -11q30 0 30 20q0 19 -29 21q-16 1 -37 -4l-15 17l33 63q-67 2 -117 22.5t-73 43.5v140h11q80 -74 172 -74q52 0 78.5 20.5t26.5 51.5q0 30 -18.5 51t-63.5 48l-55 33q-31 18 -50.5 32.5t-44.5 39.5t-38 58t-13 73q0 77 60 134t165 57z" />
    <glyph glyph-name="scedilla" unicode="&#x15f;" horiz-adv-x="366" 
d="M198 430q88 0 138 -45l-40 -92q-37 31 -84 31q-24 0 -34.5 -8.5t-10.5 -18.5q0 -13 14 -21t57 -25q106 -41 106 -126q0 -49 -31.5 -86t-99.5 -46l-17 -26q41 -3 63 -24t22 -48q0 -42 -29 -62.5t-69 -20.5q-36 0 -65 12v59h9q23 -12 48 -12q31 0 31 21q0 23 -35 23
q-12 1 -35 -4l-14 16l34 63q-74 5 -117 37v109h11q53 -40 110 -40q54 0 54 28q0 12 -12.5 22.5t-45.5 24.5q-32 13 -55 26t-44 41t-21 64q0 55 43.5 91.5t118.5 36.5z" />
    <glyph glyph-name="Scaron" unicode="&#x160;" horiz-adv-x="512" 
d="M117 916h115l49 -53l47 53h116v-10l-125 -132h-77l-125 132v10zM277 720q58 0 109.5 -23.5t83.5 -64.5l-73 -101q-53 57 -119 57q-35 0 -56.5 -16.5t-21.5 -42.5q0 -25 15.5 -41t57.5 -43l78 -49q77 -47 105 -96t28 -108q0 -78 -62 -140t-174 -62q-70 0 -123.5 21
t-77.5 45v140h11q80 -74 172 -74q52 0 78.5 20.5t26.5 51.5q0 30 -18.5 51t-63.5 48l-55 33q-31 18 -50.5 32.5t-44.5 39.5t-38 58t-13 73q0 77 60 134t165 57z" />
    <glyph glyph-name="scaron" unicode="&#x161;" horiz-adv-x="366" 
d="M198 430q88 0 138 -45l-40 -92q-37 31 -84 31q-24 0 -34.5 -8.5t-10.5 -18.5q0 -13 14 -21t57 -25q106 -41 106 -126q0 -56 -42 -95.5t-132 -39.5q-81 0 -131 37v109h11q53 -40 110 -40q54 0 54 28q0 12 -12.5 22.5t-45.5 24.5q-32 13 -55 26t-44 41t-21 64
q0 55 43.5 91.5t118.5 36.5zM62 643h100l39 -61l38 61h100v-10l-99 -145h-79l-99 145v10z" />
    <glyph glyph-name="uni0162" unicode="&#x162;" horiz-adv-x="581" 
d="M34 710h514v-130h-187v-580h-31l-21 -32q41 -3 62.5 -24.5t21.5 -49.5q0 -42 -29.5 -62t-70.5 -20q-32 0 -65 12v60h9q18 -11 45 -11q30 0 30 20q0 19 -29 21q-16 1 -37 -4l-15 17l38 73h-49v580h-186v130z" />
    <glyph glyph-name="uni0163" unicode="&#x163;" horiz-adv-x="328" 
d="M214 619h12v-200h81v-112h-81v-307h-42l-21 -33q41 -3 63 -24t22 -48q0 -42 -29 -62.5t-69 -20.5q-36 0 -65 12v59h9q22 -12 48 -12q31 0 31 21q0 23 -35 23q-17 0 -35 -4l-14 16l39 73h-32v307h-63v112h62v129z" />
    <glyph glyph-name="Tcaron" unicode="&#x164;" horiz-adv-x="581" 
d="M128 916h115l49 -53l47 53h116v-10l-125 -132h-77l-125 132v10zM34 710h514v-130h-187v-580h-141v580h-186v130z" />
    <glyph glyph-name="tcaron" unicode="&#x165;" horiz-adv-x="394" 
d="M274 679h121l-26 -215h-95v215zM214 619h12v-200h81v-112h-81v-307h-130v307h-63v112h62v129z" />
    <glyph glyph-name="Tbar" unicode="&#x166;" horiz-adv-x="581" 
d="M34 710h514v-130h-187v-154h117v-129h-117v-297h-141v297h-118v129h118v154h-186v130z" />
    <glyph glyph-name="tbar" unicode="&#x167;" horiz-adv-x="328" 
d="M214 619h12v-200h81v-112h-81v-72h77v-98h-77v-137h-130v137h-65v98h65v72h-63v112h62v129z" />
    <glyph glyph-name="Utilde" unicode="&#x168;" horiz-adv-x="703" 
d="M263 911q35 0 85.5 -18.5t72.5 -18.5q29 0 29 43h75q9 -25 9 -55q0 -40 -24 -66.5t-66 -26.5q-39 0 -90.5 18.5t-70.5 18.5q-16 0 -25.5 -12t-9.5 -31h-75q-5 20 -5 41q0 45 25.5 76t69.5 31zM62 710h141v-346q0 -144 37 -192q38 -50 112 -50q73 0 112 51q36 48 36 169
v368h141v-396q0 -156 -73 -240t-220 -84q-145 0 -216 82q-39 43 -54.5 98.5t-15.5 143.5v396z" />
    <glyph glyph-name="utilde" unicode="&#x169;" horiz-adv-x="499" 
d="M47 419h130v-213q0 -46 13.5 -68.5t49.5 -22.5q42 0 79 44v260h130v-419h-128v55q-17 -24 -53 -44.5t-80 -20.5q-61 -1 -101 37.5t-40 119.5v272zM189 625q30 0 62.5 -14t43.5 -14q27 0 27 33h77q9 -21 9 -48q0 -37 -20 -61t-56 -24q-32 0 -65.5 14.5t-48.5 14.5
q-32 0 -32 -33h-75q-6 18 -6 40q0 39 22 65.5t62 26.5z" />
    <glyph glyph-name="Umacron" unicode="&#x16a;" horiz-adv-x="703" 
d="M186 900h328v-113h-328v113zM62 710h141v-346q0 -144 37 -192q38 -50 112 -50q73 0 112 51q36 48 36 169v368h141v-396q0 -156 -73 -240t-220 -84q-145 0 -216 82q-39 43 -54.5 98.5t-15.5 143.5v396z" />
    <glyph glyph-name="umacron" unicode="&#x16b;" horiz-adv-x="499" 
d="M103 611h300v-100h-300v100zM47 419h130v-213q0 -46 13.5 -68.5t49.5 -22.5q42 0 79 44v260h130v-419h-128v55q-17 -24 -53 -44.5t-80 -20.5q-61 -1 -101 37.5t-40 119.5v272z" />
    <glyph glyph-name="Ubreve" unicode="&#x16c;" horiz-adv-x="703" 
d="M193 912h114q1 -23 12 -39t32 -16q40 0 44 55h113q-2 -64 -40 -103.5t-117 -39.5t-118 40.5t-40 102.5zM62 710h141v-346q0 -144 37 -192q38 -50 112 -50q73 0 112 51q36 48 36 169v368h141v-396q0 -156 -73 -240t-220 -84q-145 0 -216 82q-39 43 -54.5 98.5t-15.5 143.5
v396z" />
    <glyph glyph-name="ubreve" unicode="&#x16d;" horiz-adv-x="499" 
d="M109 635h98q2 -63 46 -63q43 0 46 63h97q-1 -69 -36 -110t-107 -41q-71 0 -107 42t-37 109zM47 419h130v-213q0 -46 13.5 -68.5t49.5 -22.5q42 0 79 44v260h130v-419h-128v55q-17 -24 -53 -44.5t-80 -20.5q-61 -1 -101 37.5t-40 119.5v272z" />
    <glyph glyph-name="Uring" unicode="&#x16e;" horiz-adv-x="703" 
d="M62 710h141v-346q0 -144 37 -192q38 -50 112 -50q73 0 112 51q36 48 36 169v368h141v-396q0 -156 -73 -240t-220 -84q-145 0 -216 82q-39 43 -54.5 98.5t-15.5 143.5v396zM350 971q54 0 90 -35t36 -86t-36 -86t-90 -35q-53 0 -89 35.5t-36 85.5t36 85.5t89 35.5zM350 897
q-19 0 -32 -13.5t-13 -33.5t13 -33.5t32 -13.5q20 0 33 13.5t13 33.5t-13 33.5t-33 13.5z" />
    <glyph glyph-name="uring" unicode="&#x16f;" horiz-adv-x="499" 
d="M47 419h130v-213q0 -46 13.5 -68.5t49.5 -22.5q42 0 79 44v260h130v-419h-128v55q-17 -24 -53 -44.5t-80 -20.5q-61 -1 -101 37.5t-40 119.5v272zM255 689q50 0 83.5 -32.5t33.5 -80.5q0 -46 -34 -80t-83 -34q-50 0 -83.5 33t-33.5 81q0 46 33.5 79.5t83.5 33.5zM255 619
q-18 0 -30 -12t-12 -31t12 -31.5t30 -12.5q19 0 31 12.5t12 31.5q0 18 -12 30.5t-31 12.5z" />
    <glyph glyph-name="Uhungarumlaut" unicode="&#x170;" horiz-adv-x="703" 
d="M62 710h141v-346q0 -144 37 -192q38 -50 112 -50q73 0 112 51q36 48 36 169v368h141v-396q0 -156 -73 -240t-220 -84q-145 0 -216 82q-39 43 -54.5 98.5t-15.5 143.5v396zM269 908h153v-11l-138 -121h-124v10zM513 908h149v-11l-146 -121h-126v10z" />
    <glyph glyph-name="uhungarumlaut" unicode="&#x171;" horiz-adv-x="499" 
d="M47 419h130v-213q0 -46 13.5 -68.5t49.5 -22.5q42 0 79 44v260h130v-419h-128v55q-17 -24 -53 -44.5t-80 -20.5q-61 -1 -101 37.5t-40 119.5v272zM179 643h121v-10l-88 -145h-104v10zM363 643h121v-10l-100 -145h-104v10z" />
    <glyph glyph-name="Uogonek" unicode="&#x172;" horiz-adv-x="703" 
d="M62 710h141v-346q0 -144 37 -192q38 -50 112 -50q73 0 112 51q36 48 36 169v368h141v-396q0 -93 -23.5 -154t-75.5 -110q-4 -4 -35 -28.5t-46 -44.5t-15 -43q0 -31 32 -31q20 0 33 10h10v-86q-27 -15 -75 -15q-50 0 -78.5 24t-28.5 64q0 47 37 91q-8 -1 -28 -1
q-145 0 -216 82q-39 43 -54.5 98.5t-15.5 143.5v396z" />
    <glyph glyph-name="uogonek" unicode="&#x173;" horiz-adv-x="499" 
d="M47 419h130v-213q0 -46 13.5 -68.5t49.5 -22.5q42 0 79 44v260h130v-419q-38 -10 -60 -28.5t-22 -38.5q0 -29 32 -29q19 0 33 9h9v-86q-27 -15 -69 -15q-50 0 -77.5 24t-27.5 63q0 57 54 99v57q-17 -24 -53 -44.5t-80 -20.5q-61 -1 -101 37.5t-40 119.5v272z" />
    <glyph glyph-name="Wcircumflex" unicode="&#x174;" horiz-adv-x="927" 
d="M0 710h146l152 -409l159 321h15l158 -319l151 407h146l-270 -718h-15l-178 363l-178 -363h-15zM426 918h77l125 -132v-10h-116l-48 47l-47 -47h-116v10z" />
    <glyph glyph-name="wcircumflex" unicode="&#x175;" horiz-adv-x="642" 
d="M284 643h79l99 -145v-10h-100l-39 61l-38 -61h-100v10zM-5 419h141l84 -191l95 186h19l93 -186l82 191h138l-193 -423h-19l-113 204l-113 -204h-19z" />
    <glyph glyph-name="Ycircumflex" unicode="&#x176;" horiz-adv-x="624" 
d="M-1 710h157l156 -258l158 258h155l-242 -391v-319h-141v318zM276 918h77l125 -132v-10h-116l-48 47l-47 -47h-116v10z" />
    <glyph glyph-name="ycircumflex" unicode="&#x177;" horiz-adv-x="470" 
d="M6 419h142l95 -250l97 250h132l-244 -596h-132l82 192zM211 643h79l99 -145v-10h-100l-39 61l-38 -61h-100v10z" />
    <glyph glyph-name="Ydieresis" unicode="&#x178;" horiz-adv-x="624" 
d="M-1 710h157l156 -258l158 258h155l-242 -391v-319h-141v318zM196 930q32 0 55 -23t23 -55t-23 -55.5t-55 -23.5q-33 0 -55.5 23t-22.5 56q0 32 22.5 55t55.5 23zM435 930q33 0 55 -22.5t22 -55.5t-22 -56t-55 -23t-56 23.5t-23 55.5t23 55t56 23z" />
    <glyph glyph-name="Zacute" unicode="&#x179;" horiz-adv-x="595" 
d="M59 710h512v-30l-337 -550h319v-130h-510v85l302 495h-286v130zM363 908h151v-13l-154 -119h-126v12z" />
    <glyph glyph-name="zacute" unicode="&#x17a;" horiz-adv-x="405" 
d="M229 643h128v-10l-90 -145h-113v10zM36 419h347v-52l-185 -253h180v-114h-343v78l170 227h-169v114z" />
    <glyph glyph-name="Zdotaccent" unicode="&#x17b;" horiz-adv-x="595" 
d="M59 710h512v-30l-337 -550h319v-130h-510v85l302 495h-286v130zM323 933q35 0 59 -24.5t24 -58.5t-24 -58.5t-59 -24.5t-59.5 24.5t-24.5 58.5t24.5 58.5t59.5 24.5z" />
    <glyph glyph-name="zdotaccent" unicode="&#x17c;" horiz-adv-x="405" 
d="M216 645q32 0 53.5 -21.5t21.5 -53.5t-21.5 -53.5t-53.5 -21.5t-54 21.5t-22 53.5t22 53.5t54 21.5zM36 419h347v-52l-185 -253h180v-114h-343v78l170 227h-169v114z" />
    <glyph glyph-name="Zcaron" unicode="&#x17d;" horiz-adv-x="595" 
d="M167 916h115l49 -53l47 53h116v-10l-125 -132h-77l-125 132v10zM59 710h512v-30l-337 -550h319v-130h-510v85l302 495h-286v130z" />
    <glyph glyph-name="zcaron" unicode="&#x17e;" horiz-adv-x="405" 
d="M36 419h347v-52l-185 -253h180v-114h-343v78l170 227h-169v114zM77 643h100l39 -61l38 61h100v-10l-99 -145h-79l-99 145v10z" />
    <glyph glyph-name="longs" unicode="&#x17f;" horiz-adv-x="236" 
d="M213 713q32 0 52 -4v-112h-10q-44 0 -61 -19.5t-17 -66.5v-511h-130v535q0 87 44 132.5t122 45.5z" />
    <glyph glyph-name="uni018F" unicode="&#x18f;" horiz-adv-x="733" 
d="M370 720q145 0 233 -102t88 -263q0 -157 -92 -261t-239 -104q-143 0 -230 99.5t-90 246.5q-1 38 3 67h494q-2 22 -4 29q-16 68 -63.5 111t-121.5 43q-60 0 -115.5 -27t-92.5 -64l-71 96q46 52 127 90.5t174 38.5zM190 287q6 -71 53 -118t118 -47q70 0 116 46t59 119h-346
z" />
    <glyph glyph-name="florin" unicode="&#x192;" horiz-adv-x="372" 
d="M280 674q52 0 84 -16l-19 -115q-15 5 -37 5q-49 0 -53 -83l-2 -45h76v-117h-81l-9 -162q-2 -47 -6.5 -80.5t-15 -65t-27 -50.5t-43 -30.5t-62.5 -11.5q-49 0 -76 20v114h9q15 -7 38 -7q28 0 38.5 16.5t12.5 62.5l12 194h-59v117h63l4 65q6 89 41 139t112 50z" />
    <glyph glyph-name="Aringacute" unicode="&#x1fa;" horiz-adv-x="642" 
d="M314 714h13l322 -714h-148l-49 112h-264l-48 -112h-147zM320 418l-82 -190h164zM393 1121h151v-13l-154 -119h-126v12zM320 969q54 0 90 -35t36 -86t-36 -86t-90 -35q-53 0 -89 35.5t-36 85.5t36 85.5t89 35.5zM320 895q-19 0 -32 -13.5t-13 -33.5t13 -33.5t32 -13.5
q20 0 33 13.5t13 33.5t-13 33.5t-33 13.5z" />
    <glyph glyph-name="aringacute" unicode="&#x1fb;" horiz-adv-x="519" 
d="M228 430q76 0 111 -51l2 40h128v-419h-128v49q-42 -59 -117 -59q-85 0 -140 59t-55 161q0 104 58 162t141 58zM251 314q-40 0 -64.5 -30t-24.5 -76q0 -45 24.5 -74t64.5 -29q42 0 65 29t23 76q0 46 -23 75t-65 29zM287 877h128v-10l-90 -145h-113v10zM263 689
q50 0 83.5 -32.5t33.5 -80.5q0 -46 -34 -80t-83 -34q-50 0 -83.5 33t-33.5 81q0 46 33.5 79.5t83.5 33.5zM263 619q-18 0 -30 -12t-12 -31t12 -31.5t30 -12.5q19 0 31 12.5t12 31.5q0 18 -12 30.5t-31 12.5z" />
    <glyph glyph-name="AEacute" unicode="&#x1fc;" horiz-adv-x="879" 
d="M272 710h437v-130h-273l58 -152h270v-129h-220l64 -169h264v-130h-358l-50 131h-274l-48 -131h-144zM328 496l-93 -247h185zM551 908h151v-13l-154 -119h-126v12z" />
    <glyph glyph-name="aeacute" unicode="&#x1fd;" horiz-adv-x="736" 
d="M407 643h128v-10l-90 -145h-113v10zM241 430q85 0 131 -53q60 53 141 53q91 0 142.5 -60.5t51.5 -153.5q0 -22 -3 -40h-283q4 -33 31 -56.5t72 -23.5q59 0 109 50l60 -77q-24 -33 -71 -56t-106 -23q-105 0 -166 67q-18 -19 -34.5 -31t-52.5 -24t-82 -12q-63 0 -106.5 33
t-43.5 96q0 60 47 97t133 37q45 0 82 -10v7q0 28 -18.5 46.5t-60.5 18.5q-56 0 -111 -40l-50 85q29 27 78.5 48.5t109.5 21.5zM236 181q-33 0 -53.5 -13.5t-20.5 -36.5q0 -19 14.5 -32t44.5 -13q33 0 56.5 12.5t30.5 24.5q-10 26 -13 49q-33 9 -59 9zM504 328q-36 0 -57 -23
t-26 -52h160q-3 28 -20.5 51.5t-56.5 23.5z" />
    <glyph glyph-name="Oslashacute" unicode="&#x1fe;" horiz-adv-x="756" 
d="M378 720q88 0 164 -43l49 74h105l-84 -127q101 -104 101 -268t-94 -265t-241 -101q-88 0 -159 37l-52 -79h-106l86 131q-105 102 -105 277q0 160 94 262t242 102zM376 588q-76 0 -130 -61t-54 -171q0 -92 39 -151l235 357q-41 26 -90 26zM529 497l-234 -354
q38 -21 83 -21q79 0 132.5 61.5t53.5 169.5q0 82 -35 144zM437 908h151v-13l-154 -119h-126v12z" />
    <glyph glyph-name="oslashacute" unicode="&#x1ff;" horiz-adv-x="501" 
d="M272 643h128v-10l-90 -145h-113v10zM251 430q54 0 100 -22l40 58h81l-66 -95q67 -65 67 -163q0 -94 -61 -156t-161 -62q-51 0 -97 19l-37 -52h-80l62 87q-70 62 -70 164q0 93 62 157.5t160 64.5zM250 317q-40 0 -64.5 -30t-24.5 -78q0 -36 13 -59l110 159q-18 8 -34 8z
M340 208q0 29 -11 54l-107 -155q11 -5 30 -5q39 0 63.5 29.5t24.5 76.5z" />
    <glyph glyph-name="uni0218" unicode="&#x218;" horiz-adv-x="512" 
d="M280 -27q26 0 41.5 -16t15.5 -41q0 -27 -23 -72l-26 -50h-69l40 79q-14 4 -26 16t-12 32q0 22 16.5 37t42.5 15zM277 720q58 0 109.5 -23.5t83.5 -64.5l-73 -101q-53 57 -119 57q-35 0 -56.5 -16.5t-21.5 -42.5q0 -25 15.5 -41t57.5 -43l78 -49q77 -47 105 -96t28 -108
q0 -78 -62 -140t-174 -62q-70 0 -123.5 21t-77.5 45v140h11q80 -74 172 -74q52 0 78.5 20.5t26.5 51.5q0 30 -18.5 51t-63.5 48l-55 33q-31 18 -50.5 32.5t-44.5 39.5t-38 58t-13 73q0 77 60 134t165 57z" />
    <glyph glyph-name="uni0219" unicode="&#x219;" horiz-adv-x="366" 
d="M198 430q88 0 138 -45l-40 -92q-37 31 -84 31q-24 0 -34.5 -8.5t-10.5 -18.5q0 -13 14 -21t57 -25q106 -41 106 -126q0 -56 -42 -95.5t-132 -39.5q-81 0 -131 37v109h11q53 -40 110 -40q54 0 54 28q0 12 -12.5 22.5t-45.5 24.5q-32 13 -55 26t-44 41t-21 64
q0 55 43.5 91.5t118.5 36.5zM198 -27q26 0 40.5 -15.5t14.5 -40.5q0 -24 -22 -68l-27 -55h-68l40 82q-35 10 -35 47q0 21 16 35.5t41 14.5z" />
    <glyph glyph-name="uni021A" unicode="&#x21a;" horiz-adv-x="581" 
d="M292 -27q26 0 41.5 -16t15.5 -41q0 -27 -23 -72l-26 -50h-69l40 79q-14 4 -26 16t-12 32q0 22 16.5 37t42.5 15zM34 710h514v-130h-187v-580h-141v580h-186v130z" />
    <glyph glyph-name="uni021B" unicode="&#x21b;" horiz-adv-x="328" 
d="M159 -27q26 0 40.5 -15.5t14.5 -40.5q0 -24 -22 -68l-27 -55h-68l40 82q-35 10 -35 47q0 21 16 35.5t41 14.5zM214 619h12v-200h81v-112h-81v-307h-130v307h-63v112h62v129z" />
    <glyph glyph-name="uni0237" unicode="&#x237;" horiz-adv-x="228" 
d="M50 419h130v-409q0 -98 -41.5 -144.5t-125.5 -46.5q-14 0 -42 6v104h24q29 0 42 17t13 55v418z" />
    <glyph glyph-name="uni0259" unicode="&#x259;" horiz-adv-x="476" 
d="M231 430q104 0 160 -60t56 -159q0 -95 -59.5 -158t-157.5 -63q-95 0 -148 60t-53 153q0 22 3 40h283q-4 34 -29.5 57t-70.5 23q-63 0 -112 -49l-58 76q26 30 76.5 55t109.5 25zM155 166q3 -28 20.5 -51.5t56.5 -23.5q35 0 56.5 23t26.5 52h-160z" />
    <glyph glyph-name="uni02BB" unicode="&#x2bb;" horiz-adv-x="220" 
d="M119 710h81l-73 -137q53 -16 53 -68q0 -31 -20.5 -52t-55.5 -21q-33 0 -53.5 22t-20.5 54q0 38 38 107z" />
    <glyph glyph-name="uni02BC" unicode="&#x2bc;" horiz-adv-x="220" 
d="M117 720q33 0 53.5 -22t20.5 -53q0 -39 -38 -108l-51 -95h-81l73 138q-22 6 -37.5 23.5t-15.5 44.5q0 30 20.5 51t55.5 21z" />
    <glyph glyph-name="circumflex" unicode="&#x2c6;" horiz-adv-x="316" 
d="M118 643h79l99 -145v-10h-100l-39 61l-38 -61h-100v10z" />
    <glyph glyph-name="caron" unicode="&#x2c7;" horiz-adv-x="316" 
d="M19 643h100l39 -61l38 61h100v-10l-99 -145h-79l-99 145v10z" />
    <glyph glyph-name="uni02C9" unicode="&#x2c9;" horiz-adv-x="340" 
d="M20 611h300v-100h-300v100z" />
    <glyph glyph-name="breve" unicode="&#x2d8;" horiz-adv-x="327" 
d="M19 635h98q2 -63 46 -63q43 0 46 63h97q-1 -69 -36 -110t-107 -41q-71 0 -107 42t-37 109z" />
    <glyph glyph-name="dotaccent" unicode="&#x2d9;" horiz-adv-x="190" 
d="M95 645q32 0 53.5 -21.5t21.5 -53.5t-21.5 -53.5t-53.5 -21.5t-54 21.5t-22 53.5t22 53.5t54 21.5z" />
    <glyph glyph-name="ring" unicode="&#x2da;" horiz-adv-x="274" 
d="M136 689q50 0 83.5 -32.5t33.5 -80.5q0 -46 -33.5 -80t-83.5 -34t-83.5 33t-33.5 81q0 46 33.5 79.5t83.5 33.5zM136 619q-18 0 -30 -12t-12 -31t12 -31.5t30 -12.5q19 0 31 12.5t12 31.5q0 18 -12 30.5t-31 12.5z" />
    <glyph glyph-name="ogonek" unicode="&#x2db;" horiz-adv-x="214" 
d="M160 41l28 -41q-32 -10 -50 -27.5t-18 -38.5q0 -13 9 -21.5t23 -8.5q18 0 32 9h9v-86q-27 -15 -69 -15q-50 0 -77.5 24t-27.5 63q0 46 36 84t105 58z" />
    <glyph glyph-name="tilde" unicode="&#x2dc;" horiz-adv-x="343" 
d="M104 625q30 0 62.5 -14t43.5 -14q27 0 27 33h77q9 -21 9 -48q0 -37 -20 -61t-56 -24q-32 0 -65.5 14.5t-48.5 14.5q-32 0 -32 -33h-75q-6 18 -6 40q0 39 22 65.5t62 26.5z" />
    <glyph glyph-name="hungarumlaut" unicode="&#x2dd;" horiz-adv-x="416" 
d="M91 643h121v-10l-88 -145h-104v10zM275 643h121v-10l-100 -145h-104v10z" />
    <glyph glyph-name="gravecomb" unicode="&#x300;" 
d="M-410 643h128l77 -145v-10h-111l-94 145v10z" />
    <glyph glyph-name="acutecomb" unicode="&#x301;" 
d="M-226 643h128v-10l-90 -145h-113v10z" />
    <glyph glyph-name="uni0302" unicode="&#x302;" 
d="M-284 643h79l99 -145v-10h-100l-39 61l-38 -61h-100v10z" />
    <glyph glyph-name="tildecomb" unicode="&#x303;" 
d="M-307 625q30 0 62.5 -14t43.5 -14q27 0 27 33h77q9 -21 9 -48q0 -37 -20 -61t-56 -24q-32 0 -65.5 14.5t-48.5 14.5q-32 0 -32 -33h-75q-6 18 -6 40q0 39 22 65.5t62 26.5z" />
    <glyph glyph-name="uni0304" unicode="&#x304;" 
d="M-394 611h300v-100h-300v100z" />
    <glyph glyph-name="uni0306" unicode="&#x306;" 
d="M-328 635h98q2 -63 46 -63q43 0 46 63h97q-1 -69 -36 -110t-107 -41q-71 0 -107 42t-37 109z" />
    <glyph glyph-name="uni0307" unicode="&#x307;" 
d="M-112 645q32 0 53.5 -21.5t21.5 -53.5t-21.5 -53.5t-53.5 -21.5t-54 21.5t-22 53.5t22 53.5t54 21.5z" />
    <glyph glyph-name="uni0308" unicode="&#x308;" 
d="M-188 637q30 0 50.5 -21t20.5 -51t-20.5 -51.5t-50.5 -21.5t-51 21.5t-21 51.5t21 51t51 21zM10 637q30 0 50.5 -21t20.5 -51t-20.5 -51.5t-50.5 -21.5t-51 21.5t-21 51.5t21 51t51 21z" />
    <glyph glyph-name="uni030A" unicode="&#x30a;" 
d="M-138 689q50 0 83.5 -32.5t33.5 -80.5q0 -46 -33.5 -80t-83.5 -34t-83.5 33t-33.5 81q0 46 33.5 79.5t83.5 33.5zM-138 619q-18 0 -30 -12t-12 -31t12 -31.5t30 -12.5q19 0 31 12.5t12 31.5q0 18 -12 30.5t-31 12.5z" />
    <glyph glyph-name="uni030B" unicode="&#x30b;" 
d="M-361 643h121v-10l-88 -145h-104v10zM-177 643h121v-10l-100 -145h-104v10z" />
    <glyph glyph-name="uni030C" unicode="&#x30c;" 
d="M-331 643h100l39 -61l38 61h100v-10l-99 -145h-79l-99 145v10z" />
    <glyph glyph-name="uni0312" unicode="&#x312;" 
d="M-115 696h76l-58 -104q43 -10 43 -52q0 -24 -17 -40.5t-46 -16.5q-28 0 -46.5 18t-18.5 44q0 34 28 80z" />
    <glyph glyph-name="uni0313" unicode="&#x313;" 
d="M-102 698q28 0 45.5 -18t17.5 -45q0 -32 -27 -80l-39 -70h-76l57 103q-43 10 -43 53q0 24 18 40.5t47 16.5z" />
    <glyph glyph-name="uni0326" unicode="&#x326;" 
d="M-113 -27q26 0 40.5 -15.5t14.5 -40.5q0 -24 -22 -68l-27 -55h-68l40 82q-35 10 -35 47q0 21 16 35.5t41 14.5z" />
    <glyph glyph-name="uni0327" unicode="&#x327;" 
d="M-195 5h57l-25 -38q41 -3 63 -24t22 -48q0 -42 -29 -62.5t-69 -20.5q-36 0 -65 12v59h9q22 -12 48 -12q31 0 31 21q0 23 -36 23q-16 0 -34 -4l-14 16z" />
    <glyph glyph-name="uni0328" unicode="&#x328;" 
d="M-72 41l28 -41q-32 -10 -50 -27.5t-18 -38.5q0 -13 9 -21.5t23 -8.5q18 0 32 9h9v-86q-27 -15 -69 -15q-50 0 -77.5 24t-27.5 63q0 46 36 84t105 58z" />
    <glyph glyph-name="uni0335" unicode="&#x335;" 
d="M-396 255h304v-93h-304v93z" />
    <glyph glyph-name="uni0336" unicode="&#x336;" 
d="M-726 243h700v-120h-700v120z" />
    <glyph glyph-name="uni0394" unicode="&#x394;" horiz-adv-x="663" 
d="M326 713h12l329 -713h-671zM331 445l-144 -330h286z" />
    <glyph glyph-name="uni03A9" unicode="&#x3a9;" horiz-adv-x="815" 
d="M412 720q152 0 247 -92.5t95 -236.5q0 -76 -32.5 -151t-92.5 -120h152v-120h-319v103q68 44 111 120t43 158q-1 90 -51.5 154.5t-155.5 64.5q-100 0 -155 -63.5t-55 -157.5q0 -77 43.5 -155t109.5 -121v-103h-318v120h149q-63 51 -92.5 123.5t-29.5 149.5q0 143 101 235
t250 92z" />
    <glyph glyph-name="uni03BC" unicode="&#x3bc;" horiz-adv-x="498" 
d="M46 419h130v-219q0 -44 13.5 -66t49.5 -22q42 0 77 45v262h130l-2 -419h-114l-2 52q-11 -24 -40.5 -43.5t-64.5 -19.5q-45 0 -61 17q14 -70 14 -138v-47h-130v598z" />
    <glyph glyph-name="pi" unicode="&#x3c0;" horiz-adv-x="505" 
d="M51 419h404v-419h-130v305h-144l-1 -305h-130z" />
    <glyph glyph-name="Wgrave" unicode="&#x1e80;" horiz-adv-x="927" 
d="M257 908h151l129 -120v-12h-126l-154 119v13zM0 710h146l152 -409l159 321h15l158 -319l151 407h146l-270 -718h-15l-178 363l-178 -363h-15z" />
    <glyph glyph-name="wgrave" unicode="&#x1e81;" horiz-adv-x="642" 
d="M171 643h128l77 -145v-10h-111l-94 145v10zM-5 419h141l84 -191l95 186h19l93 -186l82 191h138l-193 -423h-19l-113 204l-113 -204h-19z" />
    <glyph glyph-name="Wacute" unicode="&#x1e82;" horiz-adv-x="927" 
d="M530 908h151v-13l-154 -119h-126v12zM0 710h146l152 -409l159 321h15l158 -319l151 407h146l-270 -718h-15l-178 363l-178 -363h-15z" />
    <glyph glyph-name="wacute" unicode="&#x1e83;" horiz-adv-x="642" 
d="M347 643h128v-10l-90 -145h-113v10zM-5 419h141l84 -191l95 186h19l93 -186l82 191h138l-193 -423h-19l-113 204l-113 -204h-19z" />
    <glyph glyph-name="Wdieresis" unicode="&#x1e84;" horiz-adv-x="927" 
d="M346 930q32 0 55 -23t23 -55t-23 -55.5t-55 -23.5q-33 0 -55.5 23t-22.5 56q0 32 22.5 55t55.5 23zM585 930q33 0 55 -22.5t22 -55.5t-22 -56t-55 -23t-56 23.5t-23 55.5t23 55t56 23zM0 710h146l152 -409l159 321h15l158 -319l151 407h146l-270 -718h-15l-178 363
l-178 -363h-15z" />
    <glyph glyph-name="wdieresis" unicode="&#x1e85;" horiz-adv-x="642" 
d="M-5 419h141l84 -191l95 186h19l93 -186l82 191h138l-193 -423h-19l-113 204l-113 -204h-19zM224 637q30 0 50.5 -21t20.5 -51t-20.5 -51.5t-50.5 -21.5t-51 21.5t-21 51.5t21 51t51 21zM422 637q30 0 50.5 -21t20.5 -51t-20.5 -51.5t-50.5 -21.5t-51 21.5t-21 51.5t21 51
t51 21z" />
    <glyph glyph-name="uni1E9E" unicode="&#x1e9e;" horiz-adv-x="658" 
d="M366 720q91 0 155.5 -35t91.5 -84l-168 -204q34 -9 59.5 -20.5t56 -34t47.5 -59.5t17 -86q0 -94 -63 -150.5t-158 -56.5q-108 0 -159 48v126h12q15 -17 50.5 -32t75.5 -15q48 0 72 25.5t24 62.5q0 46 -40 71.5t-126 36.5v90l128 156q-9 11 -33 22t-57 11q-43 0 -73 -17
t-45.5 -47t-22 -62t-6.5 -70v-396h-142v401q0 161 82 240t222 79z" />
    <glyph glyph-name="Ygrave" unicode="&#x1ef2;" horiz-adv-x="624" 
d="M-1 710h157l156 -258l158 258h155l-242 -391v-319h-141v318zM109 908h151l129 -120v-12h-126l-154 119v13z" />
    <glyph glyph-name="ygrave" unicode="&#x1ef3;" horiz-adv-x="470" 
d="M6 419h142l95 -250l97 250h132l-244 -596h-132l82 192zM95 643h128l77 -145v-10h-111l-94 145v10z" />
    <glyph glyph-name="uni2007" unicode="&#x2007;" horiz-adv-x="574" 
 />
    <glyph glyph-name="uni2008" unicode="&#x2008;" horiz-adv-x="213" 
 />
    <glyph glyph-name="uni200B" unicode="&#x200b;" horiz-adv-x="0" 
 />
    <glyph glyph-name="endash" unicode="&#x2013;" horiz-adv-x="500" 
d="M25 282h450v-121h-450v121z" />
    <glyph glyph-name="emdash" unicode="&#x2014;" horiz-adv-x="750" 
d="M25 282h700v-120h-700v120z" />
    <glyph glyph-name="quoteleft" unicode="&#x2018;" horiz-adv-x="226" 
d="M119 710h81l-73 -137q53 -16 53 -68q0 -31 -20.5 -52t-55.5 -21q-33 0 -53.5 22t-20.5 54q0 38 38 107z" />
    <glyph glyph-name="quoteright" unicode="&#x2019;" horiz-adv-x="226" 
d="M122 720q33 0 53.5 -22t20.5 -53q0 -39 -38 -108l-51 -95h-81l73 138q-22 6 -37.5 23.5t-15.5 44.5q0 30 20.5 51t55.5 21z" />
    <glyph glyph-name="quotesinglbase" unicode="&#x201a;" horiz-adv-x="226" 
d="M122 141q33 0 53.5 -22t20.5 -54q0 -39 -38 -108l-51 -94h-81l73 137q-22 6 -37.5 23.5t-15.5 44.5q0 31 20.5 52t55.5 21z" />
    <glyph glyph-name="quotedblleft" unicode="&#x201c;" horiz-adv-x="415" 
d="M119 710h81l-73 -137q53 -16 53 -68q0 -31 -20.5 -52t-55.5 -21q-33 0 -53.5 22t-20.5 54q0 38 38 107zM308 710h81l-73 -137q53 -16 53 -68q0 -31 -20.5 -52t-55.5 -21q-33 0 -53.5 22t-20.5 54q0 38 38 107z" />
    <glyph glyph-name="quotedblright" unicode="&#x201d;" horiz-adv-x="415" 
d="M122 720q33 0 53.5 -22t20.5 -53q0 -39 -38 -108l-51 -95h-81l73 138q-22 6 -37.5 23.5t-15.5 44.5q0 30 20.5 51t55.5 21zM311 720q33 0 53.5 -22t20.5 -53q0 -35 -38 -108l-51 -95h-81l73 138q-22 6 -37.5 23.5t-15.5 44.5q0 30 20.5 51t55.5 21z" />
    <glyph glyph-name="quotedblbase" unicode="&#x201e;" horiz-adv-x="414" 
d="M122 141q33 0 53.5 -22t20.5 -54q0 -39 -38 -108l-51 -94h-81l73 137q-22 6 -37.5 23.5t-15.5 44.5q0 31 20.5 52t55.5 21zM310 141q33 0 53.5 -22t20.5 -54q0 -39 -38 -108l-51 -94h-81l73 137q-22 6 -37.5 23.5t-15.5 44.5q0 31 20.5 52t55.5 21z" />
    <glyph glyph-name="dagger" unicode="&#x2020;" horiz-adv-x="412" 
d="M142 710h129v-177h108v-120h-108v-485h-129v485h-109v120h109v177z" />
    <glyph glyph-name="daggerdbl" unicode="&#x2021;" horiz-adv-x="413" 
d="M142 710h129v-177h108v-120h-108v-178h109v-119h-109v-188h-129v188h-108v119h108v178h-109v120h109v177z" />
    <glyph glyph-name="bullet" unicode="&#x2022;" horiz-adv-x="371" 
d="M185 450q59 0 98.5 -40.5t39.5 -100.5q0 -59 -39.5 -99.5t-98.5 -40.5q-58 0 -97.5 40.5t-39.5 99.5t39.5 100t97.5 41z" />
    <glyph glyph-name="ellipsis" unicode="&#x2026;" horiz-adv-x="715" 
d="M106 141q32 0 54 -22.5t22 -53.5t-22 -53t-54 -22t-53.5 22t-21.5 53q0 32 22 54t53 22zM357 141q31 0 53.5 -22.5t22.5 -53.5t-22 -53t-54 -22q-31 0 -53 22t-22 53q0 32 22 54t53 22zM607 141q31 0 53.5 -22.5t22.5 -53.5t-22 -53t-54 -22q-31 0 -53 22t-22 53
q0 32 22 54t53 22z" />
    <glyph glyph-name="perthousand" unicode="&#x2030;" horiz-adv-x="1231" 
d="M205 674q71 0 122 -50.5t51 -122.5q0 -70 -51 -120.5t-122 -50.5t-121 50t-50 121q0 72 50 122.5t121 50.5zM205 569q-28 0 -46.5 -19.5t-18.5 -48.5q0 -28 18.5 -47t46.5 -19t47 19t19 47q0 29 -19 48.5t-47 19.5zM630 333q71 0 121.5 -50.5t50.5 -121.5t-50.5 -121
t-121.5 -50t-121 50t-50 121t50 121.5t121 50.5zM630 228q-28 0 -46.5 -19t-18.5 -48q0 -28 18.5 -47t46.5 -19t47 18.5t19 47.5t-19 48t-47 19zM1024 333q71 0 122 -50.5t51 -121.5t-51 -121t-122 -50t-121 50t-50 121t50 121.5t121 50.5zM1024 228q-28 0 -46.5 -19
t-18.5 -48q0 -28 18.5 -47t46.5 -19q29 0 48 19t19 47q0 29 -19.5 48t-47.5 19zM571 663h111l-415 -663h-111z" />
    <glyph glyph-name="minute" unicode="&#x2032;" horiz-adv-x="172" 
d="M46 659h111l-30 -236h-111z" />
    <glyph glyph-name="second" unicode="&#x2033;" horiz-adv-x="338" 
d="M46 659h111l-30 -239h-111zM212 659h111l-31 -239h-111z" />
    <glyph glyph-name="guilsinglleft" unicode="&#x2039;" horiz-adv-x="280" 
d="M184 366l65 -64l-97 -96l97 -94l-65 -66l-157 157v7z" />
    <glyph glyph-name="guilsinglright" unicode="&#x203a;" horiz-adv-x="280" 
d="M95 366l158 -156v-7l-158 -157l-64 66l97 94l-97 96z" />
    <glyph glyph-name="fraction" unicode="&#x2044;" horiz-adv-x="116" 
d="M210 663h111l-415 -663h-111z" />
    <glyph glyph-name="uni2070" unicode="&#x2070;" horiz-adv-x="435" 
d="M218 819q87 0 137 -61.5t50 -160.5q0 -102 -52 -164t-135 -62t-136 62t-53 164q0 98 51.5 160t137.5 62zM218 713q-30 0 -48 -28.5t-18 -85.5q0 -61 18 -91.5t47 -30.5q65 0 65 118q0 58 -17.5 88t-46.5 30z" />
    <glyph glyph-name="uni2074" unicode="&#x2074;" horiz-adv-x="408" 
d="M229 812h108v-251h50v-98h-50v-85h-115v86h-204v82zM222 681l-92 -120h92v120z" />
    <glyph glyph-name="uni2075" unicode="&#x2075;" horiz-adv-x="366" 
d="M90 812h229v-103h-147l-8 -52q20 5 33 5q62 0 104.5 -32t42.5 -105q0 -69 -47 -111.5t-122 -42.5q-93 0 -156 52l50 88q49 -35 88 -35q28 0 46 13t18 35q0 49 -70 49q-42 0 -75 -13l-22 13z" />
    <glyph glyph-name="uni2076" unicode="&#x2076;" horiz-adv-x="382" 
d="M166 812h133l-112 -150q23 5 36 5q59 0 100 -34.5t41 -102.5q0 -74 -48 -116.5t-117 -42.5q-89 0 -132 47.5t-43 114.5q0 46 25 96q37 72 117 183zM193 578q-21 0 -34 -15t-13 -37q0 -25 13.5 -38t33.5 -13q21 0 34.5 13.5t13.5 38.5q0 24 -13 37.5t-35 13.5z" />
    <glyph glyph-name="uni2077" unicode="&#x2077;" horiz-adv-x="379" 
d="M24 812h359v-13l-208 -421h-132l161 326h-180v108z" />
    <glyph glyph-name="uni2078" unicode="&#x2078;" horiz-adv-x="384" 
d="M194 819q67 0 107 -34t40 -81q0 -62 -57 -97q35 -14 56.5 -42t21.5 -62q0 -60 -44.5 -96t-124.5 -36q-81 0 -126 35.5t-45 93.5q0 36 22.5 64t54.5 41q-26 16 -41.5 41t-15.5 50q0 54 42 88.5t110 34.5zM193 728q-18 0 -30.5 -10t-12.5 -27q0 -29 43 -55q41 23 41 54
q0 19 -12.5 28.5t-28.5 9.5zM192 565q-20 -5 -34.5 -21t-14.5 -34q0 -19 13 -32t38 -13q20 0 33.5 13.5t13.5 31.5q0 15 -12.5 31.5t-36.5 23.5z" />
    <glyph glyph-name="uni2079" unicode="&#x2079;" horiz-adv-x="384" 
d="M190 819q86 0 128 -46t42 -108q0 -55 -40 -135q-30 -61 -92 -152h-128q19 26 95 151q-12 -6 -34 -6q-54 0 -97.5 35.5t-43.5 102.5q0 74 48.5 116t121.5 42zM191 715q-22 0 -35.5 -14t-13.5 -38t14 -37.5t35 -13.5t34 15t13 37q0 25 -13.5 38t-33.5 13z" />
    <glyph glyph-name="uni2080" unicode="&#x2080;" horiz-adv-x="435" 
d="M218 269q87 0 137 -61.5t50 -160.5q0 -102 -52 -164t-135 -62t-136 62t-53 164q0 98 51.5 160t137.5 62zM218 163q-30 0 -48 -28.5t-18 -85.5q0 -61 18 -91.5t47 -30.5q65 0 65 118q0 58 -17.5 88t-46.5 30z" />
    <glyph glyph-name="uni2081" unicode="&#x2081;" horiz-adv-x="286" 
d="M229 264h11v-436h-124v265l-68 -28l-42 101z" />
    <glyph glyph-name="uni2082" unicode="&#x2082;" horiz-adv-x="377" 
d="M198 269q44 0 76 -14t47 -37t21 -43t6 -40q0 -50 -28 -89.5t-71 -72.5t-50 -42h153v-103h-326q0 48 39 108q21 33 63.5 68.5t70 64t27.5 57.5q0 16 -10 26.5t-28 10.5t-30 -11t-12 -28q0 -5 3 -23l-101 -23q-14 28 -14 55q0 54 43 95t121 41z" />
    <glyph glyph-name="uni2083" unicode="&#x2083;" horiz-adv-x="339" 
d="M172 269q22 0 43.5 -5t43 -16t34.5 -33.5t13 -53.5q0 -74 -72 -103q87 -28 87 -106q0 -51 -40 -91t-120 -40q-90 0 -155 53l51 83q47 -33 85 -33q26 0 41 10.5t15 28.5q0 24 -23.5 33.5t-71.5 9.5h-16v86h26q72 0 72 39q0 14 -11.5 24.5t-32.5 10.5q-33 0 -74 -27l-46 76
q22 19 63 36.5t88 17.5z" />
    <glyph glyph-name="uni2084" unicode="&#x2084;" horiz-adv-x="408" 
d="M229 262h108v-251h50v-98h-50v-85h-115v86h-204v82zM222 131l-92 -120h92v120z" />
    <glyph glyph-name="uni2085" unicode="&#x2085;" horiz-adv-x="366" 
d="M90 262h229v-103h-147l-8 -52q20 5 33 5q62 0 104.5 -32t42.5 -105q0 -69 -47 -111.5t-122 -42.5q-93 0 -156 52l50 88q49 -35 88 -35q28 0 46 13t18 35q0 49 -70 49q-42 0 -75 -13l-22 13z" />
    <glyph glyph-name="uni2086" unicode="&#x2086;" horiz-adv-x="382" 
d="M166 262h133l-112 -150q23 5 36 5q59 0 100 -34.5t41 -102.5q0 -74 -48 -116.5t-117 -42.5q-89 0 -132 47.5t-43 114.5q0 46 25 96q37 72 117 183zM193 28q-21 0 -34 -15t-13 -37q0 -25 13.5 -38t33.5 -13q21 0 34.5 13.5t13.5 38.5q0 24 -13 37.5t-35 13.5z" />
    <glyph glyph-name="uni2087" unicode="&#x2087;" horiz-adv-x="379" 
d="M24 262h359v-13l-208 -421h-132l161 326h-180v108z" />
    <glyph glyph-name="uni2088" unicode="&#x2088;" horiz-adv-x="384" 
d="M194 269q67 0 107 -34t40 -81q0 -62 -57 -97q35 -14 56.5 -42t21.5 -62q0 -60 -44.5 -96t-124.5 -36q-81 0 -126 35.5t-45 93.5q0 36 22.5 64t54.5 41q-26 16 -41.5 41t-15.5 50q0 54 42 88.5t110 34.5zM193 178q-18 0 -30.5 -10t-12.5 -27q0 -29 43 -55q41 23 41 54
q0 19 -12.5 28.5t-28.5 9.5zM192 15q-20 -5 -34.5 -21t-14.5 -34q0 -19 13 -32t38 -13q20 0 33.5 13.5t13.5 31.5q0 15 -12.5 31.5t-36.5 23.5z" />
    <glyph glyph-name="uni2089" unicode="&#x2089;" horiz-adv-x="384" 
d="M190 269q86 0 128 -46t42 -108q0 -55 -40 -135q-30 -61 -92 -152h-128q19 26 95 151q-12 -6 -34 -6q-54 0 -97.5 35.5t-43.5 102.5q0 74 48.5 116t121.5 42zM191 165q-22 0 -35.5 -14t-13.5 -38t14 -37.5t35 -13.5t34 15t13 37q0 25 -13.5 38t-33.5 13z" />
    <glyph glyph-name="uni208D" unicode="&#x208d;" horiz-adv-x="225" 
d="M123 313h99q-43 -72 -59 -132t-16 -134q0 -151 76 -274h-99q-36 32 -66.5 105.5t-30.5 168.5q0 94 29.5 164t66.5 102z" />
    <glyph glyph-name="uni208E" unicode="&#x208e;" horiz-adv-x="226" 
d="M3 313h98q38 -31 67.5 -101t29.5 -165t-30 -169t-66 -105h-100q77 122 77 274q0 75 -16 135t-60 131z" />
    <glyph glyph-name="Euro" unicode="&#x20ac;" horiz-adv-x="534" 
d="M363 674q91 0 151 -52l-53 -105q-41 30 -94 30q-98 0 -130 -104h191v-82h-204v-47h204v-83h-193q29 -115 132 -115q73 0 120 57h11v-133q-52 -50 -152 -50q-110 0 -170.5 66t-78.5 175h-65v83h58q-1 9 -1 22t1 25h-58v82h67q22 105 87.5 168t176.5 63z" />
    <glyph glyph-name="uni20B0" unicode="&#x20b0;" horiz-adv-x="563" 
d="M383 674q74 0 118 -49t44 -127q0 -70 -27.5 -134.5t-77.5 -137.5q60 -124 60 -218t-53 -145t-133 -51q-38 0 -73 16v117h11q22 -12 50 -12q30 0 50 24.5t20 56.5q0 53 -27 107l-106 -131h-14l-61 123l-54 -113h-123l169 326h12l83 -154l41 57q-28 55 -42 86t-28 79.5
t-14 90.5q0 77 48.5 133t126.5 56zM384 554q-21 0 -34 -18.5t-13 -52.5q0 -54 43 -142q48 77 48 148q0 24 -12 44.5t-32 20.5z" />
    <glyph glyph-name="uni20B9" unicode="&#x20b9;" horiz-adv-x="509" 
d="M56 531h160q-26 50 -101 50h-59v82h420v-82h-152q20 -20 30 -50h122v-83h-118q-18 -118 -160 -157l195 -291h-150l-187 281v94h33q114 0 133 73h-166v83z" />
    <glyph glyph-name="uni20BA" unicode="&#x20ba;" horiz-adv-x="554" 
d="M117 663h135v-117l141 54v-87l-141 -55v-47l141 55v-87l-141 -54v-208q66 12 107 66.5t42 143.5h133q-2 -150 -87.5 -243.5t-226.5 -93.5q-55 0 -103 16v278l-86 -33v85l86 33v46l-86 -33v89l86 33v159z" />
    <glyph glyph-name="uni2100" unicode="&#x2100;" horiz-adv-x="767" 
d="M657 327q65 0 105 -36l-37 -85q-25 19 -56 19q-30 0 -48 -19t-18 -47t17.5 -47.5t52.5 -19.5q37 0 66 25h10v-100q-37 -27 -98 -27q-78 0 -124 46.5t-46 121.5q0 72 48.5 120.5t127.5 48.5zM173 672q30 0 52 -12t30 -26l3 29h120v-319h-121v32q-33 -41 -88 -41
q-62 0 -105 45t-43 123q0 81 44.5 125t107.5 44zM200 571q-25 0 -41 -19t-16 -48q0 -30 16 -49t41 -19q27 0 41.5 18t14.5 49t-15 49.5t-41 18.5zM613 663h111l-415 -663h-111z" />
    <glyph glyph-name="uni2101" unicode="&#x2101;" horiz-adv-x="770" 
d="M637 326q74 0 113 -34l-33 -80q-35 21 -65 21q-25 0 -25 -15q0 -6 9.5 -11.5t41.5 -17.5q77 -30 77 -93q0 -44 -34 -75.5t-108 -31.5q-62 0 -102 28v93h10q37 -28 82 -28q32 0 32 15q0 12 -36 26q-25 11 -40.5 19t-33.5 31t-18 52q0 42 34 71t96 30zM173 672q30 0 52 -12
t30 -26l3 29h120v-319h-121v32q-33 -41 -88 -41q-62 0 -105 45t-43 123q0 81 44.5 125t107.5 44zM200 571q-25 0 -41 -19t-16 -48q0 -30 16 -49t41 -19q27 0 41.5 18t14.5 49t-15 49.5t-41 18.5zM613 663h111l-415 -663h-111z" />
    <glyph glyph-name="uni2105" unicode="&#x2105;" horiz-adv-x="759" 
d="M197 672q65 0 105 -36l-37 -85q-25 19 -56 19q-30 0 -48 -19t-18 -47t17.5 -47.5t52.5 -19.5q37 0 66 25h10v-100q-37 -27 -98 -27q-78 0 -124 46.5t-46 121.5q0 72 48.5 120.5t127.5 48.5zM559 327q78 0 127.5 -49.5t49.5 -121.5q0 -71 -49 -118.5t-128 -47.5
q-80 0 -129 47.5t-49 118.5q0 72 49.5 121.5t128.5 49.5zM559 226q-25 0 -40.5 -19t-15.5 -51q0 -30 15.5 -47.5t40.5 -17.5q24 0 39.5 17.5t15.5 47.5q0 31 -15 50.5t-40 19.5zM518 663h111l-415 -663h-111z" />
    <glyph glyph-name="uni2106" unicode="&#x2106;" horiz-adv-x="804" 
d="M197 672q65 0 105 -36l-37 -85q-25 19 -56 19q-30 0 -48 -19t-18 -47t17.5 -47.5t52.5 -19.5q37 0 66 25h10v-100q-37 -27 -98 -27q-78 0 -124 46.5t-46 121.5q0 72 48.5 120.5t127.5 48.5zM442 320h122v-161q0 -31 9 -43t30 -12q28 0 47 28v188h122v-319h-119v43
q-12 -19 -40 -35.5t-61 -16.5q-46 0 -78 28.5t-32 88.5v211zM518 663h111l-415 -663h-111z" />
    <glyph glyph-name="uni2113" unicode="&#x2113;" horiz-adv-x="427" 
d="M264 674q65 0 92.5 -38.5t27.5 -90.5q0 -130 -110 -234q-18 -18 -38 -33v-124q0 -52 10 -75.5t33 -23.5q43 0 62 103l54 -10q-26 -156 -145 -156q-153 0 -153 197v12q-18 -10 -58 -30l-20 50l78 44v200q0 102 45.5 155.5t121.5 53.5zM277 616q-10 0 -17.5 -4.5t-11.5 -16
t-7 -21t-4 -28.5t-1 -29v-33v-12v-118q8 7 23 22q59 67 59 164q0 76 -41 76z" />
    <glyph glyph-name="uni2116" unicode="&#x2116;" horiz-adv-x="1079" 
d="M875 674q78 0 127.5 -49t49.5 -120t-49 -119t-128 -48q-80 0 -129 48t-49 119t49.5 120t128.5 49zM875 574q-26 0 -41 -19t-15 -51q0 -30 15.5 -47.5t40.5 -17.5t40 17.5t15 47.5q0 31 -15 50.5t-40 19.5zM699 311h352v-101h-352v101zM68 715h15l410 -407v402h141v-721
h-20l-405 403v-392h-141v715z" />
    <glyph glyph-name="uni2117" unicode="&#x2117;" horiz-adv-x="821" 
d="M411 720q153 0 252.5 -103.5t99.5 -262.5q0 -151 -101 -257.5t-251 -106.5q-154 0 -253.5 102.5t-99.5 261.5q0 152 100 259t253 107zM411 658q-127 0 -208.5 -84.5t-81.5 -217.5q0 -128 82 -216t208 -88q127 0 208 85.5t81 218.5q0 127 -82.5 214.5t-206.5 87.5z
M275 582h155q177 0 177 -150q0 -62 -39.5 -106.5t-129.5 -44.5h-49v-154h-114v455zM389 479v-97h42q61 0 61 49q0 48 -60 48h-43z" />
    <glyph glyph-name="trademark" unicode="&#x2122;" horiz-adv-x="663" 
d="M31 710h235v-75h-74v-225h-86v225h-75v75zM345 712h11l113 -146l107 146h11l54 -302h-83l-26 132l-58 -79h-11l-59 82l-25 -135h-83z" />
    <glyph glyph-name="Omega" unicode="&#x2126;" horiz-adv-x="815" 
d="M412 720q152 0 247 -92.5t95 -236.5q0 -76 -32.5 -151t-92.5 -120h152v-120h-319v103q68 44 111 120t43 158q-1 90 -51.5 154.5t-155.5 64.5q-100 0 -155 -63.5t-55 -157.5q0 -77 43.5 -155t109.5 -121v-103h-318v120h149q-63 51 -92.5 123.5t-29.5 149.5q0 143 101 235
t250 92z" />
    <glyph glyph-name="estimated" unicode="&#x212e;" horiz-adv-x="746" 
d="M379 674q152 0 238.5 -100t86.5 -258h-487v-217q69 -53 171 -53q172 0 255 134l42 -26q-98 -164 -297 -164q-158 0 -251.5 97.5t-93.5 244.5q0 145 93 243.5t243 98.5zM379 617q-94 0 -162 -50v-181h316v184q-65 47 -154 47z" />
    <glyph glyph-name="uni214D" unicode="&#x214d;" horiz-adv-x="1037" 
d="M241 668h12l225 -437h-129l-23 46h-159l-22 -46h-128zM875 439q38 0 74 -15.5t56 -38.5l-53 -81q-34 29 -71 29q-38 0 -38 -25q0 -15 32 -34l53 -31q49 -29 66 -57.5t17 -62.5q0 -53 -42.5 -93t-116.5 -40q-88 0 -132 37v108h9q50 -41 107 -41q50 0 50 28q0 12 -9 20.5
t-33 22.5l-29 16q-25 15 -41.5 27t-35.5 40.5t-19 61.5q0 54 40.5 91.5t115.5 37.5zM247 441l-40 -82h80zM772 663h111l-415 -663h-111z" />
    <glyph glyph-name="uni2150" unicode="&#x2150;" horiz-adv-x="904" 
d="M549 434h359v-13l-208 -421h-132l161 326h-180v108zM229 667h11v-436h-124v265l-68 -28l-42 101zM556 663h111l-415 -663h-111z" />
    <glyph glyph-name="uni2151" unicode="&#x2151;" horiz-adv-x="867" 
d="M229 667h11v-436h-124v265l-68 -28l-42 101zM556 663h111l-415 -663h-111zM672 441q86 0 128 -46t42 -108q0 -55 -40 -135q-30 -61 -92 -152h-128q19 26 95 151q-12 -6 -34 -6q-54 0 -97.5 35.5t-43.5 102.5q0 74 48.5 116t121.5 42zM673 337q-22 0 -35.5 -14t-13.5 -38
t14 -37.5t35 -13.5t34 15t13 37q0 25 -13.5 38t-33.5 13z" />
    <glyph glyph-name="uni2152" unicode="&#x2152;" horiz-adv-x="1212" 
d="M229 667h11v-436h-124v265l-68 -28l-42 101zM720 436h11v-436h-124v265l-68 -28l-42 101zM556 663h111l-415 -663h-111zM995 440q87 0 137 -61.5t50 -160.5q0 -102 -52 -164t-135 -62t-136 62t-53 164q0 98 51.5 160t137.5 62zM995 334q-30 0 -48 -28.5t-18 -85.5
q0 -61 18 -91.5t47 -30.5q65 0 65 118q0 58 -17.5 88t-46.5 30z" />
    <glyph glyph-name="onethird" unicode="&#x2153;" horiz-adv-x="842" 
d="M675 441q22 0 43.5 -5t43 -16t34.5 -33.5t13 -53.5q0 -74 -72 -103q87 -28 87 -106q0 -51 -40 -91t-120 -40q-90 0 -155 53l51 83q46 -33 85 -33q26 0 41 10.5t15 28.5q0 24 -23.5 33.5t-71.5 9.5h-16v86h26q72 0 72 39q0 14 -11.5 24.5t-32.5 10.5q-34 0 -74 -27l-46 76
q22 19 63 36.5t88 17.5zM229 667h11v-436h-124v265l-68 -28l-42 101zM556 663h111l-415 -663h-111z" />
    <glyph glyph-name="twothirds" unicode="&#x2154;" horiz-adv-x="948" 
d="M198 672q44 0 76 -14t47 -37t21 -43t6 -40q0 -50 -28 -89.5t-71 -72.5t-50 -42h153v-103h-326q0 48 39 108q21 33 63.5 68.5t70 64t27.5 57.5q0 16 -10 26.5t-28 10.5t-30 -11t-12 -28q0 -5 3 -23l-101 -23q-14 28 -14 55q0 54 43 95t121 41zM781 441q22 0 43.5 -5
t43 -16t34.5 -33.5t13 -53.5q0 -74 -72 -103q87 -28 87 -106q0 -51 -40 -91t-120 -40q-90 0 -155 53l51 83q46 -33 85 -33q26 0 41 10.5t15 28.5q0 24 -23.5 33.5t-71.5 9.5h-16v86h26q72 0 72 39q0 14 -11.5 24.5t-32.5 10.5q-34 0 -74 -27l-46 76q22 19 63 36.5t88 17.5z
M662 663h111l-415 -663h-111z" />
    <glyph glyph-name="uni2155" unicode="&#x2155;" horiz-adv-x="835" 
d="M559 434h229v-103h-147l-8 -52q20 5 33 5q62 0 104.5 -32t42.5 -105q0 -69 -47 -111.5t-122 -42.5q-93 0 -156 52l50 88q49 -35 88 -35q28 0 46 13t18 35q0 49 -70 49q-42 0 -75 -13l-22 13zM229 667h11v-436h-124v265l-68 -28l-42 101zM556 663h111l-415 -663h-111z" />
    <glyph glyph-name="uni2156" unicode="&#x2156;" horiz-adv-x="942" 
d="M665 434h229v-103h-147l-8 -52q20 5 33 5q62 0 104.5 -32t42.5 -105q0 -69 -47 -111.5t-122 -42.5q-93 0 -156 52l50 88q49 -35 88 -35q28 0 46 13t18 35q0 49 -70 49q-42 0 -75 -13l-22 13zM198 672q44 0 76 -14t47 -37t21 -43t6 -40q0 -50 -28 -89.5t-71 -72.5t-50 -42
h153v-103h-326q0 48 39 108q21 33 63.5 68.5t70 64t27.5 57.5q0 16 -10 26.5t-28 10.5t-30 -11t-12 -28q0 -5 3 -23l-101 -23q-14 28 -14 55q0 54 43 95t121 41zM662 663h111l-415 -663h-111z" />
    <glyph glyph-name="uni2157" unicode="&#x2157;" horiz-adv-x="869" 
d="M592 434h229v-103h-147l-8 -52q20 5 33 5q62 0 104.5 -32t42.5 -105q0 -69 -47 -111.5t-122 -42.5q-93 0 -156 52l50 88q49 -35 88 -35q28 0 46 13t18 35q0 49 -70 49q-42 0 -75 -13l-22 13zM172 672q22 0 43.5 -5t43 -16t34.5 -33.5t13 -53.5q0 -74 -72 -103
q87 -28 87 -106q0 -51 -40 -91t-120 -40q-90 0 -155 53l51 83q46 -33 85 -33q26 0 41 10.5t15 28.5q0 24 -23.5 33.5t-71.5 9.5h-16v86h26q72 0 72 39q0 14 -11.5 24.5t-32.5 10.5q-33 0 -74 -27l-46 76q22 19 63 36.5t88 17.5zM590 663h111l-415 -663h-111z" />
    <glyph glyph-name="uni2158" unicode="&#x2158;" horiz-adv-x="948" 
d="M229 665h108v-251h50v-98h-50v-85h-115v86h-204v82zM222 534l-92 -120h92v120zM671 434h229v-103h-147l-8 -52q20 5 33 5q62 0 104.5 -32t42.5 -105q0 -69 -47 -111.5t-122 -42.5q-93 0 -156 52l50 88q49 -35 88 -35q28 0 46 13t18 35q0 49 -70 49q-42 0 -75 -13l-22 13z
M669 663h111l-415 -663h-111z" />
    <glyph glyph-name="uni2159" unicode="&#x2159;" horiz-adv-x="809" 
d="M592 434h133l-112 -150q23 5 36 5q59 0 100 -34.5t41 -102.5q0 -74 -48 -116.5t-117 -42.5q-89 0 -132 47.5t-43 114.5q0 46 25 96q37 72 117 183zM619 200q-21 0 -34 -15t-13 -37q0 -25 13.5 -38t33.5 -13q21 0 34.5 13.5t13.5 38.5q0 24 -13 37.5t-35 13.5zM229 667h11
v-436h-124v265l-68 -28l-42 101zM556 663h111l-415 -663h-111z" />
    <glyph glyph-name="uni215A" unicode="&#x215a;" horiz-adv-x="859" 
d="M642 434h133l-112 -150q23 5 36 5q59 0 100 -34.5t41 -102.5q0 -74 -48 -116.5t-117 -42.5q-89 0 -132 47.5t-43 114.5q0 46 25 96q37 72 117 183zM669 200q-21 0 -34 -15t-13 -37q0 -25 13.5 -38t33.5 -13q21 0 34.5 13.5t13.5 38.5q0 24 -13 37.5t-35 13.5zM90 665h229
v-103h-147l-8 -52q20 5 33 5q62 0 104.5 -32t42.5 -105q0 -69 -47 -111.5t-122 -42.5q-93 0 -156 52l50 88q49 -35 88 -35q28 0 46 13t18 35q0 49 -70 49q-42 0 -75 -13l-22 13zM606 663h111l-415 -663h-111z" />
    <glyph glyph-name="oneeighth" unicode="&#x215b;" horiz-adv-x="852" 
d="M229 667h11v-436h-124v265l-68 -28l-42 101zM556 663h111l-415 -663h-111zM662 441q67 0 107 -34t40 -81q0 -62 -57 -97q35 -14 56.5 -42t21.5 -62q0 -60 -44.5 -96t-124.5 -36q-81 0 -126 35.5t-45 93.5q0 36 22.5 64t54.5 41q-26 16 -41.5 41t-15.5 50q0 54 42 88.5
t110 34.5zM661 350q-18 0 -30.5 -10t-12.5 -27q0 -29 43 -55q41 23 41 54q0 19 -12.5 28.5t-28.5 9.5zM660 187q-20 -5 -34.5 -21t-14.5 -34q0 -19 13 -32t38 -13q20 0 33.5 13.5t13.5 31.5q0 15 -12.5 31.5t-36.5 23.5z" />
    <glyph glyph-name="threeeighths" unicode="&#x215c;" horiz-adv-x="886" 
d="M172 672q22 0 43.5 -5t43 -16t34.5 -33.5t13 -53.5q0 -74 -72 -103q87 -28 87 -106q0 -51 -40 -91t-120 -40q-90 0 -155 53l51 83q46 -33 85 -33q26 0 41 10.5t15 28.5q0 24 -23.5 33.5t-71.5 9.5h-16v86h26q72 0 72 39q0 14 -11.5 24.5t-32.5 10.5q-33 0 -74 -27l-46 76
q22 19 63 36.5t88 17.5zM590 663h111l-415 -663h-111zM696 441q67 0 107 -34t40 -81q0 -62 -57 -97q35 -14 56.5 -42t21.5 -62q0 -60 -44.5 -96t-124.5 -36q-81 0 -126 35.5t-45 93.5q0 36 22.5 64t54.5 41q-26 16 -41.5 41t-15.5 50q0 54 42 88.5t110 34.5zM695 350
q-18 0 -30.5 -10t-12.5 -27q0 -29 43 -55q41 23 41 54q0 19 -12.5 28.5t-28.5 9.5zM694 187q-20 -5 -34.5 -21t-14.5 -34q0 -19 13 -32t38 -13q20 0 33.5 13.5t13.5 31.5q0 15 -12.5 31.5t-36.5 23.5z" />
    <glyph glyph-name="fiveeighths" unicode="&#x215d;" horiz-adv-x="902" 
d="M90 665h229v-103h-147l-8 -52q20 5 33 5q62 0 104.5 -32t42.5 -105q0 -69 -47 -111.5t-122 -42.5q-93 0 -156 52l50 88q49 -35 88 -35q28 0 46 13t18 35q0 49 -70 49q-42 0 -75 -13l-22 13zM606 663h111l-415 -663h-111zM712 441q67 0 107 -34t40 -81q0 -62 -57 -97
q35 -14 56.5 -42t21.5 -62q0 -60 -44.5 -96t-124.5 -36q-81 0 -126 35.5t-45 93.5q0 36 22.5 64t54.5 41q-26 16 -41.5 41t-15.5 50q0 54 42 88.5t110 34.5zM711 350q-18 0 -30.5 -10t-12.5 -27q0 -29 43 -55q41 23 41 54q0 19 -12.5 28.5t-28.5 9.5zM710 187
q-20 -5 -34.5 -21t-14.5 -34q0 -19 13 -32t38 -13q20 0 33.5 13.5t13.5 31.5q0 15 -12.5 31.5t-36.5 23.5z" />
    <glyph glyph-name="seveneighths" unicode="&#x215e;" horiz-adv-x="820" 
d="M24 665h359v-13l-208 -421h-132l161 326h-180v108zM524 663h111l-415 -663h-111zM630 441q67 0 107 -34t40 -81q0 -62 -57 -97q35 -14 56.5 -42t21.5 -62q0 -60 -44.5 -96t-124.5 -36q-81 0 -126 35.5t-45 93.5q0 36 22.5 64t54.5 41q-26 16 -41.5 41t-15.5 50
q0 54 42 88.5t110 34.5zM629 350q-18 0 -30.5 -10t-12.5 -27q0 -29 43 -55q41 23 41 54q0 19 -12.5 28.5t-28.5 9.5zM628 187q-20 -5 -34.5 -21t-14.5 -34q0 -19 13 -32t38 -13q20 0 33.5 13.5t13.5 31.5q0 15 -12.5 31.5t-36.5 23.5z" />
    <glyph glyph-name="uni215F" unicode="&#x215f;" horiz-adv-x="463" 
d="M229 667h11v-436h-124v265l-68 -28l-42 101zM556 663h111l-415 -663h-111z" />
    <glyph glyph-name="uni2189" unicode="&#x2189;" horiz-adv-x="930" 
d="M763 441q22 0 43.5 -5t43 -16t34.5 -33.5t13 -53.5q0 -74 -72 -103q87 -28 87 -106q0 -51 -40 -91t-120 -40q-90 0 -155 53l51 83q46 -33 85 -33q26 0 41 10.5t15 28.5q0 24 -23.5 33.5t-71.5 9.5h-16v86h26q72 0 72 39q0 14 -11.5 24.5t-32.5 10.5q-34 0 -74 -27l-46 76
q22 19 63 36.5t88 17.5zM218 671q87 0 137 -61.5t50 -160.5q0 -102 -52 -164t-135 -62t-136 62t-53 164q0 98 51.5 160t137.5 62zM218 565q-30 0 -48 -28.5t-18 -85.5q0 -61 18 -91.5t47 -30.5q65 0 65 118q0 58 -17.5 88t-46.5 30zM644 663h111l-415 -663h-111z" />
    <glyph glyph-name="arrowup" unicode="&#x2191;" horiz-adv-x="566" 
d="M-2 427l283 283l287 -284l-93 -94l-47 48q-42 44 -76 85v-465h-141v465q-23 -30 -75 -86l-46 -48z" />
    <glyph glyph-name="arrowdown" unicode="&#x2193;" horiz-adv-x="566" 
d="M567 283l-283 -283l-287 284l93 94l47 -48q42 -44 76 -85v465h141v-465q23 30 75 86l46 48z" />
    <glyph glyph-name="uni2196" unicode="&#x2196;" horiz-adv-x="614" 
d="M31 632h408v-131h-71q-54 0 -111 5l357 -360l-99 -99l-356 357q5 -50 5 -110v-70h-133v408z" />
    <glyph glyph-name="uni2197" unicode="&#x2197;" horiz-adv-x="614" 
d="M175 632h408v-408h-133v70q0 60 5 110l-356 -357l-99 99l357 360q-57 -5 -111 -5h-71v131z" />
    <glyph glyph-name="uni2198" unicode="&#x2198;" horiz-adv-x="614" 
d="M583 53h-408v131h71q54 0 111 -5l-357 360l99 99l356 -357q-5 50 -5 110v70h133v-408z" />
    <glyph glyph-name="uni2199" unicode="&#x2199;" horiz-adv-x="614" 
d="M439 53h-408v408h133v-70q0 -60 -5 -110l356 357l99 -99l-357 -360q57 5 111 5h71v-131z" />
    <glyph glyph-name="partialdiff" unicode="&#x2202;" horiz-adv-x="538" 
d="M219 720q126 0 205.5 -84.5t79.5 -251.5q0 -79 -17 -149t-49 -125.5t-84.5 -87.5t-118.5 -32q-102 0 -155.5 63t-53.5 151q0 104 63.5 165t164.5 61q39 0 74 -16.5t50 -36.5q1 3 1 35q0 56 -17.5 96t-47.5 59t-59.5 27t-63.5 8q-59 0 -105 -18h-10v113q67 23 143 23z
M254 317q-41 0 -70.5 -27.5t-29.5 -76.5q0 -51 25 -80.5t64 -29.5q48 0 81 41.5t39 103.5q-10 26 -40 47.5t-69 21.5z" />
    <glyph glyph-name="Delta" unicode="&#x2206;" horiz-adv-x="663" 
d="M326 713h12l329 -713h-671zM331 445l-144 -330h286z" />
    <glyph glyph-name="product" unicode="&#x220f;" horiz-adv-x="731" 
d="M66 710h599v-773h-136v643h-326v-643h-137v773z" />
    <glyph glyph-name="summation" unicode="&#x2211;" horiz-adv-x="615" 
d="M35 710h538v-129h-344l207 -265l-209 -251h367v-129h-560v81l243 297l-242 315v81z" />
    <glyph glyph-name="minus" unicode="&#x2212;" horiz-adv-x="430" 
d="M44 286h342v-120h-342v120z" />
    <glyph glyph-name="uni2215" unicode="&#x2215;" horiz-adv-x="430" 
d="M245 663h131l-189 -663h-132z" />
    <glyph glyph-name="uni2219" unicode="&#x2219;" horiz-adv-x="430" 
d="M214 450q59 0 98.5 -40.5t39.5 -100.5q0 -59 -39.5 -99.5t-98.5 -40.5q-58 0 -97.5 40.5t-39.5 99.5t39.5 100t97.5 41z" />
    <glyph glyph-name="radical" unicode="&#x221a;" horiz-adv-x="536" 
d="M45 419h188l72 -221l110 565h135l-189 -869h-61l-156 394h-99v131z" />
    <glyph glyph-name="infinity" unicode="&#x221e;" horiz-adv-x="838" 
d="M227 499q95 0 196 -110l13.5 14l15 15.5l15 14.5t17.5 15t17.5 13t20 13t20.5 9.5t24 9t24.5 4.5t27.5 2q80 0 130.5 -52t50.5 -128q0 -77 -54 -129.5t-135 -52.5q-94 0 -195 110l-13.5 -14l-15 -15.5l-15 -14.5t-17.5 -15t-17.5 -13t-20 -13t-20.5 -9.5t-24 -9
t-24.5 -4.5t-27.5 -2q-80 0 -130.5 52t-50.5 128q0 77 54 129.5t134 52.5zM230 390q-29 0 -49 -21.5t-20 -51.5t21 -51.5t48 -21.5q47 0 109 75q-22 23 -34 34.5t-33.5 24t-41.5 12.5zM608 392q-47 0 -109 -75q21 -22 33.5 -34t34 -24.5t41.5 -12.5q29 0 49 21.5t20 51.5
t-21 51.5t-48 21.5z" />
    <glyph glyph-name="integral" unicode="&#x222b;" horiz-adv-x="333" 
d="M257 765q50 0 81 -25l-21 -93q-15 10 -40 10q-56 0 -56 -99q0 -47 10 -233.5t10 -225.5q0 -212 -164 -212q-55 0 -84 21l22 97q20 -11 43 -11q31 0 42 23.5t11 73.5q0 53 -10.5 239.5t-10.5 219.5q0 215 167 215z" />
    <glyph glyph-name="approxequal" unicode="&#x2248;" horiz-adv-x="430" 
d="M143 409q31 0 69.5 -20t59.5 -20q34 0 56 47l73 -28q2 -55 -31 -96t-82 -41q-33 0 -74 17.5t-58 17.5q-38 0 -60 -37l-68 37q0 39 32.5 81t82.5 42zM143 219q31 0 69 -20t59 -20q36 0 57 48l73 -29q2 -55 -31 -96t-82 -41q-33 0 -74 17.5t-58 17.5q-38 0 -60 -37l-68 37
q0 39 32.5 81t82.5 42z" />
    <glyph glyph-name="notequal" unicode="&#x2260;" horiz-adv-x="430" 
d="M44 375h189l40 88h85l-40 -88h68v-114h-111l-31 -70h142v-114h-186l-32 -71h-85l31 71h-70v114h114l32 70h-146v114z" />
    <glyph glyph-name="lessequal" unicode="&#x2264;" horiz-adv-x="430" 
d="M373 506v-136l-153 -57l153 -54v-129l-329 140v82zM41 93h338v-120h-338v120z" />
    <glyph glyph-name="greaterequal" unicode="&#x2265;" horiz-adv-x="430" 
d="M57 506l329 -154v-82l-329 -140v129l153 54l-153 57v136zM51 93h338v-120h-338v120z" />
    <glyph glyph-name="dotmath" unicode="&#x22c5;" horiz-adv-x="430" 
d="M215 302q31 0 53 -22t22 -53q0 -32 -21.5 -54t-53.5 -22t-54 22t-22 54t22 53.5t54 21.5z" />
    <glyph glyph-name="filledbox" unicode="&#x25a0;" horiz-adv-x="870" 
d="M80 710h710v-710h-710v710z" />
    <glyph glyph-name="uni25A1" unicode="&#x25a1;" horiz-adv-x="870" 
d="M80 710h710v-710h-710v710zM166 625v-540h538v540h-538z" />
    <glyph glyph-name="uni25AA" unicode="&#x25aa;" horiz-adv-x="394" 
d="M75 417h244v-244h-244v244z" />
    <glyph glyph-name="triagup" unicode="&#x25b2;" horiz-adv-x="560" 
d="M280 710l275 -710h-550z" />
    <glyph glyph-name="triagdn" unicode="&#x25bc;" horiz-adv-x="560" 
d="M279 -14l-275 710h550z" />
    <glyph glyph-name="lozenge" unicode="&#x25ca;" horiz-adv-x="563" 
d="M275 720h12l245 -392l-246 -391h-11l-245 391zM280 515l-108 -186l108 -191l109 189z" />
    <glyph glyph-name="circle" unicode="&#x25cb;" horiz-adv-x="797" 
d="M399 718q153 0 254.5 -104.5t101.5 -259.5q0 -154 -101.5 -258.5t-254.5 -104.5q-154 0 -255.5 104.5t-101.5 258.5q0 155 101.5 259.5t255.5 104.5zM399 632q-117 0 -193.5 -79.5t-76.5 -198.5q0 -118 77 -197.5t193 -79.5q115 0 192 79.5t77 197.5q0 119 -77 198.5
t-192 79.5z" />
    <glyph glyph-name="uni25CF" unicode="&#x25cf;" horiz-adv-x="797" 
d="M399 718q153 0 254.5 -104.5t101.5 -259.5q0 -154 -101.5 -258.5t-254.5 -104.5q-154 0 -255.5 104.5t-101.5 258.5q0 155 101.5 259.5t255.5 104.5z" />
    <glyph glyph-name="uni2602" unicode="&#x2602;" horiz-adv-x="710" 
d="M355 660q137 0 227 -89t90 -244h-6q-12 31 -38.5 49.5t-61.5 18.5t-62 -18.5t-39 -49.5h-7q-24 56 -81 65v-283q0 -79 -65 -79q-29 0 -46.5 19.5t-14.5 49.5h41q0 -31 21 -31t21 35v290q-28 -4 -49.5 -22.5t-31.5 -43.5h-7q-12 31 -39.5 49.5t-62.5 18.5
q-34 0 -60.5 -18.5t-38.5 -49.5h-7q0 153 90.5 243t226.5 90z" />
    <glyph glyph-name="uni2605" unicode="&#x2605;" horiz-adv-x="812" 
d="M407 720l109 -257l286 -21l-218 -180l67 -269l-244 145l-246 -145l68 269l-219 180l287 21z" />
    <glyph glyph-name="uni2614" unicode="&#x2614;" horiz-adv-x="710" 
d="M355 660q137 0 227 -89t90 -244h-6q-12 31 -38.5 49.5t-61.5 18.5t-62 -18.5t-39 -49.5h-7q-24 56 -81 65v-283q0 -79 -65 -79q-29 0 -46.5 19.5t-14.5 49.5h41q0 -31 21 -31t21 35v290q-28 -4 -49.5 -22.5t-31.5 -43.5h-7q-12 31 -39.5 49.5t-62.5 18.5
q-34 0 -60.5 -18.5t-38.5 -49.5h-7q0 153 90.5 243t226.5 90zM94 692q22 -20 22 -44q0 -8 -6.5 -14t-15.5 -6t-14.5 6t-5.5 14q0 26 20 44zM154 793q22 -20 22 -43q0 -9 -6.5 -15t-15.5 -6q-20 0 -20 21q0 25 20 43zM227 732q22 -20 22 -44q0 -8 -6.5 -14t-15.5 -6t-14.5 6
t-5.5 14q0 26 20 44zM289 826q22 -20 22 -43q0 -9 -6.5 -15t-15.5 -6q-20 0 -20 21q0 25 20 43zM354 753q22 -20 22 -44q0 -8 -6.5 -14t-15.5 -6t-14.5 6t-5.5 14q0 26 20 44zM418 825q22 -20 22 -43q0 -9 -6.5 -15t-15.5 -6q-20 0 -20 21q0 25 20 43zM482 732
q22 -20 22 -44q0 -8 -6.5 -14t-15.5 -6t-14.5 6t-5.5 14q0 26 20 44zM554 792q22 -20 22 -43q0 -9 -6.5 -15t-15.5 -6q-20 0 -20 21q0 25 20 43zM614 691q22 -20 22 -44q0 -8 -6.5 -14t-15.5 -6t-14.5 6t-5.5 14q0 26 20 44z" />
    <glyph glyph-name="uni261C" unicode="&#x261c;" horiz-adv-x="735" 
d="M23 471h327q43 0 93 -11l-48 19q-47 18 -47 71q0 15 6 30l264 -109v-324h-276q-28 0 -47 19.5t-19 48.5h147l-7 15h-138q-28 0 -47.5 20t-19.5 48h173l-8 15h-143q-28 0 -47.5 20t-19.5 48h177l-7 15h-241q-30 0 -51 22.5t-21 52.5zM636 471h65v-374h-65v374z" />
    <glyph glyph-name="uni261D" unicode="&#x261d;" horiz-adv-x="536" 
d="M143 688q30 0 52.5 -21t22.5 -51v-241l15 -7v177q29 0 49 -19.5t20 -47.5v-143l16 -8v173q28 0 48 -19.5t20 -47.5v-138l16 -7v147q28 0 48 -19t20 -47v-270h-327l-109 267q17 5 30 5q52 0 71 -47l19 -48q-11 57 -11 94v318zM143 82h327v-64h-327v64z" />
    <glyph glyph-name="uni261E" unicode="&#x261e;" horiz-adv-x="735" 
d="M385 471h327q0 -30 -21 -52.5t-51 -22.5h-241l-7 -15h177q0 -28 -19.5 -48t-47.5 -20h-143l-8 -15h173q0 -28 -19.5 -48t-47.5 -20h-138l-7 -15h147q0 -29 -19 -48.5t-47 -19.5h-276v324l264 109q6 -15 6 -30q0 -53 -47 -71l-48 -19q50 11 93 11zM34 471h65v-374h-65v374
z" />
    <glyph glyph-name="uni261F" unicode="&#x261f;" horiz-adv-x="536" 
d="M397 14q-30 0 -52.5 21t-22.5 51v241l-15 7v-177q-29 0 -49 19.5t-20 47.5v143l-16 8v-173q-28 0 -48 19.5t-20 47.5v138l-16 7v-147q-28 0 -48 19t-20 47v270h327l109 -267q-17 -5 -30 -5q-52 0 -71 47l-19 48q11 -57 11 -94v-318zM397 620h-327v64h327v-64z" />
    <glyph glyph-name="uni2693" unicode="&#x2693;" horiz-adv-x="648" 
d="M324 668q41 0 69.5 -28t28.5 -70q0 -28 -15.5 -52t-40.5 -36v-31h130v-75h-130v-280q92 15 145 97l-32 17q47 41 116 72q14 -72 14 -139l-35 19q-44 -69 -109.5 -105t-140.5 -36t-141 36.5t-108 104.5l-36 -19q0 67 14 139q69 -31 116 -72l-32 -17q52 -81 146 -97v280
h-130v75h130v31q-25 12 -40.5 36t-15.5 52q0 42 28 70t69 28zM324 599q-11 0 -18.5 -8.5t-7.5 -19.5t7.5 -19.5t18.5 -8.5q12 0 20.5 8.5t8.5 19.5t-8.5 19.5t-20.5 8.5z" />
    <glyph glyph-name="uniE002" unicode="&#xe002;" horiz-adv-x="566" 
d="M281 710l241 -239l-93 -92l-23 25q-27 25 -54 68v-472h-141v472q-24 -39 -54 -69l-24 -25l-90 93z" />
    <glyph glyph-name="uniE004" unicode="&#xe004;" horiz-adv-x="566" 
d="M284 0l-241 239l93 92l23 -25q27 -25 54 -68v472h141v-472q24 39 54 69l24 25l90 -93z" />
    <glyph glyph-name="uniE005" unicode="&#xe005;" horiz-adv-x="614" 
d="M31 632h374l-1 -131h-33q-55 0 -114 6l357 -361l-99 -99l-356 357q5 -62 5 -113v-33h-133v374z" />
    <glyph glyph-name="uniE006" unicode="&#xe006;" horiz-adv-x="614" 
d="M209 632h374v-374h-133v33q0 51 5 113l-356 -357l-99 99l357 361q-58 -6 -114 -6h-33z" />
    <glyph glyph-name="uniE007" unicode="&#xe007;" horiz-adv-x="614" 
d="M583 53h-374l1 131h33q56 0 114 -6l-357 361l99 99l356 -357q-5 62 -5 113v33h133v-374z" />
    <glyph glyph-name="uniE008" unicode="&#xe008;" horiz-adv-x="614" 
d="M405 53h-374v374h133v-33q0 -51 -5 -113l356 357l99 -99l-357 -361q59 6 114 6h33z" />
    <glyph glyph-name="uniE0F4" unicode="&#xe0f4;" horiz-adv-x="865" 
d="M433 753q168 0 279 -115t111 -284q0 -168 -111 -283t-279 -115t-279.5 115t-111.5 283q0 169 111.5 284t279.5 115z" />
    <glyph glyph-name="uniE0F5" unicode="&#xe0f5;" horiz-adv-x="865" 
d="M433 753q168 0 279 -115t111 -284q0 -168 -111 -283t-279 -115t-279.5 115t-111.5 283q0 169 111.5 284t279.5 115zM433 667q-132 0 -218 -89.5t-86 -223.5q0 -133 86 -222.5t218 -89.5q130 0 216.5 89.5t86.5 222.5t-86.5 223t-216.5 90z" />
    <glyph glyph-name="uniE0F6" unicode="&#xe0f6;" horiz-adv-x="918" 
d="M68 746h782v-782h-782v782z" />
    <glyph glyph-name="uniE0F7" unicode="&#xe0f7;" horiz-adv-x="918" 
d="M68 746h782v-782h-782v782zM154 661v-612h610v612h-610z" />
    <glyph glyph-name="uniE0F8" unicode="&#xe0f8;" horiz-adv-x="482" 
d="M242 523l59 -141l156 -11l-119 -98l37 -147l-133 79l-135 -79l37 147l-119 98l157 11z" />
    <glyph glyph-name="uniE0F9" unicode="&#xe0f9;" horiz-adv-x="757" 
d="M366 753q132 0 225 -117t93 -282q0 -166 -93.5 -282.5t-225.5 -116.5q-133 0 -226.5 116.5t-93.5 282.5q0 165 93.5 282t227.5 117zM365 724q-121 0 -205.5 -108t-84.5 -262q0 -126 60 -224v165h462v-159q57 99 57 218q0 154 -85 262t-204 108zM211 636q15 0 15 -14
q0 -12 -11 -15l56 -205h-121l56 205q-10 3 -10 15q0 14 15 14zM365 696q15 0 15 -15q0 -12 -12 -14l60 -265h-126l59 265q-11 4 -11 14q0 15 15 15zM522 636q15 0 15 -14q0 -12 -11 -15l57 -205h-121l55 205q-10 4 -10 15q0 14 15 14zM156 389h109v-81h-109v81zM308 389h114
v-81h-114v81zM468 389h109v-81h-109v81zM334 240l-25 -26v-125q-11 -3 -18 -8q-22 10 -50 10q-40 0 -63 -17l9 -9q17 13 53 13q55 0 86 -47q-8 -4 -15 -11q-17 17 -47 17q-20 0 -32 -9l12 -7q9 3 18 3q39 0 50 -30l16 -3q-2 10 -9 19q16 16 43 16q28 0 43 -23q-6 -6 -9 -13
l19 4q9 13 27.5 21.5t40.5 4.5l15 9q-16 8 -38 5q-12 21 -28 35q22 10 43 10q36 0 60 -21l9 9q-25 25 -69 25q-31 0 -53 -13l-10 6v129l-25 26h-53zM358 83q56 0 88 -52q-17 -5 -32 -18q-17 26 -52 26q-13 0 -22 -3q-16 23 -34 35q18 12 52 12z" />
    <glyph glyph-name="uniFB00" unicode="&#xfb00;" horiz-adv-x="593" 
d="M286 699q67 0 112 -33q44 47 124 47q28 0 51 -4v-112h-10q-44 0 -61 -19.5t-17 -66.5v-92h89v-112h-89v-307h-130v307h-134v-307h-130v307h-63v112h63v54q0 115 55 170.5t140 55.5zM303 580q-40 0 -61 -25t-21 -69v-67h134v105q0 34 1 37q-17 19 -53 19z" />
    <glyph glyph-name="fi" unicode="&#xfb01;" horiz-adv-x="532" 
d="M304 712q104 0 163 -68l-59 -90q-38 38 -90 38q-45 0 -71 -29t-26 -83v-61h261v-419h-131v307h-130v-307h-130v307h-63v112h63v72q0 109 64 165t149 56z" />
    <glyph glyph-name="fl" unicode="&#xfb02;" horiz-adv-x="536" 
d="M294 720q61 0 126 -37h69v-683h-131v582q-19 19 -57 19q-39 0 -59.5 -24.5t-20.5 -68.5v-89h91v-112h-91v-307h-130v307h-63v112h63v90q0 95 59.5 153t143.5 58z" />
    <glyph glyph-name="uniFB03" unicode="&#xfb03;" horiz-adv-x="793" 
d="M287 699q76 0 127 -44q60 57 151 57q107 0 163 -68l-59 -90q-37 38 -91 38q-44 0 -70 -29t-26 -82v-62h261v-419h-131v307h-130v-307h-130v307h-131v-307h-130v307h-63v112h63v54q0 115 55.5 170.5t140.5 55.5zM303 580q-82 0 -82 -93v-68h131v72q0 33 8 65
q-20 24 -57 24z" />
    <glyph glyph-name="uniFB04" unicode="&#xfb04;" horiz-adv-x="805" 
d="M286 699q75 0 127 -44q59 65 152 65q59 0 124 -37h69v-683h-131v582q-19 19 -56 19q-39 0 -60 -25t-21 -68v-89h91v-112h-91v-307h-130v307h-139v-307h-130v307h-63v112h63v54q0 115 55 170.5t140 55.5zM303 580q-40 0 -61 -24.5t-21 -68.5v-68h139v88q0 30 4 47
q-22 26 -61 26z" />
    <glyph glyph-name="uniFEFF" unicode="&#xfeff;" horiz-adv-x="0" 
 />
    <glyph glyph-name="caron.alt001" horiz-adv-x="160" 
d="M19 700h123l-26 -242h-97v242z" />
    <glyph glyph-name="uni030C.alt001" 
d="M-171 704h123l-26 -242h-97v242z" />
    <glyph glyph-name="uni0327.alt001" 
d="M-192 6h63l-26 -41q65 -10 65 -71q0 -46 -50 -82l-45 23q18 27 18 47q0 34 -55 34l-9 13z" />
    <glyph glyph-name="i.latn_TRK" horiz-adv-x="231" 
d="M50 419h130v-419h-130v419zM116 645q32 0 53 -21.5t21 -53.5t-21.5 -53.5t-52.5 -21.5q-32 0 -54 21.5t-22 53.5t22 53.5t54 21.5z" />
    <glyph glyph-name="Ldot.latn_CAT" horiz-adv-x="475" 
d="M378 442q32 0 54 -22t22 -54t-22 -53.5t-54 -21.5t-53.5 21.5t-21.5 53.5t21.5 54t53.5 22zM68 710h141v-580h236v-130h-377v710z" />
    <glyph glyph-name="ldot.latn_CAT" horiz-adv-x="353" 
d="M47 710h130v-710h-130v710zM290 442q32 0 53.5 -22t21.5 -53q0 -32 -21.5 -54t-53.5 -22t-54 22t-22 54t22 53.5t54 21.5z" />
    <glyph glyph-name="dollar.subs" horiz-adv-x="332" 
d="M144 299h71v-60q55 -9 95 -44l-48 -83q-30 30 -77 30q-32 0 -32 -22q0 -13 27 -27l23 -11q61 -30 85 -58t24 -70q0 -41 -27.5 -71.5t-69.5 -41.5v-66h-71v62q-65 7 -106 43v101h9q13 -14 46 -30t66 -16q37 0 37 24q0 10 -8 17t-31 18l-35 17q-39 19 -62.5 44.5
t-23.5 67.5q0 45 30.5 75.5t77.5 39.5v61z" />
    <glyph glyph-name="comma.subs" horiz-adv-x="164" 
d="M85 -52q26 0 43.5 -19t17.5 -44q0 -31 -34 -88l-33 -57h-66l52 91q-46 13 -46 56q0 25 17.5 43t48.5 18z" />
    <glyph glyph-name="hyphen.subs" horiz-adv-x="225" 
d="M21 77h185v-102h-185v102z" />
    <glyph glyph-name="period.subs" horiz-adv-x="164" 
d="M19 -116q0 26 18.5 45t44.5 19t44.5 -19t18.5 -45t-18.5 -44.5t-44.5 -18.5t-44.5 18.5t-18.5 44.5z" />
    <glyph glyph-name="cent.subs" horiz-adv-x="304" 
d="M137 241h72v-58q45 -5 76 -25l-29 -86q-25 18 -56 18q-26 0 -40.5 -14t-14.5 -33q0 -21 15 -35.5t42 -14.5q33 0 56 15h9v-89q-27 -16 -58 -20v-60h-72v62q-50 12 -81 48.5t-31 92.5q0 53 30 90.5t82 48.5v60z" />
    <glyph glyph-name="sterling.subs" horiz-adv-x="355" 
d="M196 269q36 0 62.5 -10t39.5 -23t20.5 -30.5t8.5 -26.5t1 -16q0 -37 -15 -69l-84 12q4 20 4 21q0 38 -34 38q-16 0 -25 -10.5t-9 -24.5q0 -16 26 -64h92v-75h-72q-1 -37 -10 -61q53 -11 75 -11q34 0 53 20h10v-93q-31 -25 -70 -25q-21 0 -56.5 8.5t-55.5 8.5
q-39 0 -88 -20l-36 79q20 19 66 31q8 16 8 44q0 8 -3 19h-73v75h39q-24 44 -24 79q0 55 42 89.5t108 34.5z" />
    <glyph glyph-name="yen.subs" horiz-adv-x="423" 
d="M6 262h127l78 -139l78 139h128l-114 -181h67v-58h-97v-31h97v-57h-97v-107h-123v107h-98v57h98v31h-98v58h67z" />
    <glyph glyph-name="Euro.subs" horiz-adv-x="389" 
d="M268 269q69 0 110 -32l-39 -89q-22 16 -59 16q-61 0 -82 -47h121v-58h-133q0 -1 -0.5 -6t-0.5 -8q0 -5 1 -11v-6h133v-57h-120q22 -45 79 -45q46 0 78 23h7v-103q-33 -25 -104 -25q-154 0 -189 150h-46v57h41v31h-41v58h46q35 152 198 152z" />
    <glyph glyph-name="uni20B0.subs" horiz-adv-x="425" 
d="M286 269q55 0 87 -32.5t32 -88.5q0 -83 -81 -174q43 -84 43 -141q0 -54 -32.5 -93t-91.5 -39q-34 0 -60 11v92h8q12 -6 24 -6q22 0 34.5 12t12.5 33q0 26 -14 56l-71 -70h-9l-39 66l-32 -59h-103l120 215h12l56 -97l21 23q-52 91 -52 154q0 55 36 96.5t99 41.5zM282 168
q-26 0 -26 -37q0 -29 23 -73q29 37 29 73q0 14 -6.5 25.5t-19.5 11.5z" />
    <glyph glyph-name="uni20B9.subs" horiz-adv-x="351" 
d="M40 172h92q-19 32 -73 32h-19v58h290v-58h-91q12 -15 16 -32h75v-58h-70q-6 -41 -34 -69t-69 -39l111 -178h-124l-104 167v70h13q70 0 84 49h-97v58z" />
    <glyph glyph-name="uni20BA.subs" horiz-adv-x="408" 
d="M71 264h124v-68l78 31v-61l-78 -31v-32l78 31v-61l-78 -31v-112q81 12 85 111h117q-2 -101 -61 -160.5t-169 -59.5q-60 0 -96 11v170l-52 -20v61l52 20v32l-52 -20v61l52 20v108z" />
    <glyph glyph-name="dollar.sups" horiz-adv-x="332" 
d="M144 849h71v-60q55 -9 95 -44l-48 -83q-30 30 -77 30q-32 0 -32 -22q0 -13 27 -27l23 -11q61 -30 85 -58t24 -70q0 -41 -27.5 -71.5t-69.5 -41.5v-66h-71v62q-65 7 -106 43v101h9q13 -14 46 -30t66 -16q37 0 37 24q0 10 -8 17t-31 18l-35 17q-39 19 -62.5 44.5
t-23.5 67.5q0 45 30.5 75.5t77.5 39.5v61z" />
    <glyph glyph-name="parenleft.sups" horiz-adv-x="225" 
d="M123 863h99q-43 -72 -59 -132t-16 -134q0 -151 76 -274h-99q-36 32 -66.5 105.5t-30.5 168.5q0 94 29.5 164t66.5 102z" />
    <glyph glyph-name="parenright.sups" horiz-adv-x="226" 
d="M3 863h98q38 -31 67.5 -101t29.5 -165t-30 -169t-66 -105h-100q77 122 77 274q0 75 -16 135t-60 131z" />
    <glyph glyph-name="comma.sups" horiz-adv-x="164" 
d="M85 498q26 0 43.5 -19t17.5 -44q0 -31 -34 -88l-33 -57h-66l52 91q-46 13 -46 56q0 25 17.5 43t48.5 18z" />
    <glyph glyph-name="hyphen.sups" horiz-adv-x="235" 
d="M25 627h185v-102h-185v102z" />
    <glyph glyph-name="period.sups" horiz-adv-x="164" 
d="M19 434q0 26 18.5 45t44.5 19t44.5 -19t18.5 -45t-18.5 -44.5t-44.5 -18.5t-44.5 18.5t-18.5 44.5z" />
    <glyph glyph-name="cent.sups" horiz-adv-x="304" 
d="M137 791h72v-58q45 -5 76 -25l-29 -86q-25 18 -56 18q-26 0 -40.5 -14t-14.5 -33q0 -21 15 -35.5t42 -14.5q33 0 56 15h9v-89q-27 -16 -58 -20v-60h-72v62q-50 12 -81 48.5t-31 92.5q0 53 30 90.5t82 48.5v60z" />
    <glyph glyph-name="sterling.sups" horiz-adv-x="355" 
d="M196 819q36 0 62.5 -10t39.5 -23t20.5 -30.5t8.5 -26.5t1 -16q0 -37 -15 -69l-84 12q4 20 4 21q0 38 -34 38q-16 0 -25 -10.5t-9 -24.5q0 -16 26 -64h92v-75h-72q-1 -37 -10 -61q53 -11 75 -11q34 0 53 20h10v-93q-31 -25 -70 -25q-21 0 -56.5 8.5t-55.5 8.5
q-39 0 -88 -20l-36 79q20 19 66 31q8 16 8 44q0 8 -3 19h-73v75h39q-24 44 -24 79q0 55 42 89.5t108 34.5z" />
    <glyph glyph-name="yen.sups" horiz-adv-x="423" 
d="M6 812h127l78 -139l78 139h128l-114 -181h67v-58h-97v-31h97v-57h-97v-107h-123v107h-98v57h98v31h-98v58h67z" />
    <glyph glyph-name="Euro.sups" horiz-adv-x="389" 
d="M268 819q69 0 110 -32l-39 -89q-22 16 -59 16q-61 0 -82 -47h121v-58h-133q0 -1 -0.5 -6t-0.5 -8q0 -5 1 -11v-6h133v-57h-120q22 -45 79 -45q46 0 78 23h7v-103q-33 -25 -104 -25q-154 0 -189 150h-46v57h41v31h-41v58h46q35 152 198 152z" />
    <glyph glyph-name="uni20B0.sups" horiz-adv-x="425" 
d="M286 819q55 0 87 -32.5t32 -88.5q0 -83 -81 -174q43 -84 43 -141q0 -54 -32.5 -93t-91.5 -39q-34 0 -60 11v92h8q12 -6 24 -6q22 0 34.5 12t12.5 33q0 26 -14 56l-71 -70h-9l-39 66l-32 -59h-103l120 215h12l56 -97l21 23q-52 91 -52 154q0 55 36 96.5t99 41.5zM282 718
q-26 0 -26 -37q0 -29 23 -73q29 37 29 73q0 14 -6.5 25.5t-19.5 11.5z" />
    <glyph glyph-name="uni20B9.sups" horiz-adv-x="351" 
d="M40 722h92q-19 32 -73 32h-19v58h290v-58h-91q12 -15 16 -32h75v-58h-70q-6 -41 -34 -69t-69 -39l111 -178h-124l-104 167v70h13q70 0 84 49h-97v58z" />
    <glyph glyph-name="uni20BA.sups" horiz-adv-x="408" 
d="M71 814h124v-68l78 31v-61l-78 -31v-32l78 31v-61l-78 -31v-112q81 12 85 111h117q-2 -101 -61 -160.5t-169 -59.5q-60 0 -96 11v170l-52 -20v61l52 20v32l-52 -20v61l52 20v108z" />
    <glyph glyph-name="dollar.numr" horiz-adv-x="332" 
d="M144 702h71v-60q55 -9 95 -44l-48 -83q-30 30 -77 30q-32 0 -32 -22q0 -13 27 -27l23 -11q61 -30 85 -58t24 -70q0 -41 -27.5 -71.5t-69.5 -41.5v-66h-71v62q-65 7 -106 43v101h9q13 -14 46 -30t66 -16q37 0 37 24q0 10 -8 17t-31 18l-35 17q-39 19 -62.5 44.5
t-23.5 67.5q0 45 30.5 75.5t77.5 39.5v61z" />
    <glyph glyph-name="parenleft.numr" horiz-adv-x="225" 
d="M123 718h99q-43 -72 -59 -132t-16 -134q0 -151 76 -274h-99q-36 32 -66.5 105.5t-30.5 168.5q0 94 29.5 164t66.5 102z" />
    <glyph glyph-name="parenright.numr" horiz-adv-x="226" 
d="M3 718h98q38 -31 67.5 -101t29.5 -165t-30 -169t-66 -105h-100q77 122 77 274q0 75 -16 135t-60 131z" />
    <glyph glyph-name="comma.numr" horiz-adv-x="164" 
d="M85 351q26 0 43.5 -19t17.5 -44q0 -31 -34 -88l-33 -57h-66l52 91q-46 13 -46 56q0 25 17.5 43t48.5 18z" />
    <glyph glyph-name="hyphen.numr" horiz-adv-x="225" 
d="M21 480h185v-102h-185v102z" />
    <glyph glyph-name="period.numr" horiz-adv-x="164" 
d="M19 287q0 26 18.5 45t44.5 19t44.5 -19t18.5 -45t-18.5 -44.5t-44.5 -18.5t-44.5 19t-18.5 44z" />
    <glyph glyph-name="zero.numr" horiz-adv-x="435" 
d="M218 671q87 0 137 -61.5t50 -160.5q0 -102 -52 -164t-135 -62t-136 62t-53 164q0 98 51.5 160t137.5 62zM218 565q-30 0 -48 -28.5t-18 -85.5q0 -61 18 -91.5t47 -30.5q65 0 65 118q0 58 -17.5 88t-46.5 30z" />
    <glyph glyph-name="one.numr" horiz-adv-x="286" 
d="M229 667h11v-436h-124v265l-68 -28l-42 101z" />
    <glyph glyph-name="two.numr" horiz-adv-x="377" 
d="M198 672q44 0 76 -14t47 -37t21 -43t6 -40q0 -50 -28 -89.5t-71 -72.5t-50 -42h153v-103h-326q0 48 39 108q21 33 63.5 68.5t70 64t27.5 57.5q0 16 -10 26.5t-28 10.5t-30 -11t-12 -28q0 -5 3 -23l-101 -23q-14 28 -14 55q0 54 43 95t121 41z" />
    <glyph glyph-name="three.numr" horiz-adv-x="339" 
d="M172 672q22 0 43.5 -5t43 -16t34.5 -33.5t13 -53.5q0 -74 -72 -103q87 -28 87 -106q0 -51 -40 -91t-120 -40q-90 0 -155 53l51 83q46 -33 85 -33q26 0 41 10.5t15 28.5q0 24 -23.5 33.5t-71.5 9.5h-16v86h26q72 0 72 39q0 14 -11.5 24.5t-32.5 10.5q-33 0 -74 -27l-46 76
q22 19 63 36.5t88 17.5z" />
    <glyph glyph-name="four.numr" horiz-adv-x="408" 
d="M229 665h108v-251h50v-98h-50v-85h-115v86h-204v82zM222 534l-92 -120h92v120z" />
    <glyph glyph-name="five.numr" horiz-adv-x="366" 
d="M90 665h229v-103h-147l-8 -52q20 5 33 5q62 0 104.5 -32t42.5 -105q0 -69 -47 -111.5t-122 -42.5q-93 0 -156 52l50 88q49 -35 88 -35q28 0 46 13t18 35q0 49 -70 49q-42 0 -75 -13l-22 13z" />
    <glyph glyph-name="six.numr" horiz-adv-x="382" 
d="M166 665h133l-112 -150q23 5 36 5q59 0 100 -34.5t41 -102.5q0 -74 -48 -116.5t-117 -42.5q-89 0 -132 47.5t-43 114.5q0 46 25 96q37 72 117 183zM193 431q-21 0 -34 -15t-13 -37q0 -25 13.5 -38t33.5 -13q21 0 34.5 13.5t13.5 38.5q0 24 -13 37.5t-35 13.5z" />
    <glyph glyph-name="seven.numr" horiz-adv-x="379" 
d="M24 665h359v-13l-208 -421h-132l161 326h-180v108z" />
    <glyph glyph-name="eight.numr" horiz-adv-x="384" 
d="M194 671q67 0 107 -34t40 -81q0 -62 -57 -97q35 -14 56.5 -42t21.5 -62q0 -60 -44.5 -96t-124.5 -36q-81 0 -126 35.5t-45 93.5q0 36 22.5 64t54.5 41q-26 16 -41.5 41t-15.5 50q0 54 42 88.5t110 34.5zM193 580q-18 0 -30.5 -10t-12.5 -27q0 -29 43 -55q41 23 41 54
q0 19 -12.5 28.5t-28.5 9.5zM192 417q-20 -5 -34.5 -21t-14.5 -34q0 -19 13 -32t38 -13q20 0 33.5 13.5t13.5 31.5q0 15 -12.5 31.5t-36.5 23.5z" />
    <glyph glyph-name="nine.numr" horiz-adv-x="384" 
d="M190 671q86 0 128 -46t42 -108q0 -55 -40 -135q-30 -61 -92 -152h-128q19 26 95 151q-12 -6 -34 -6q-54 0 -97.5 35.5t-43.5 102.5q0 74 48.5 116t121.5 42zM191 567q-22 0 -35.5 -14t-13.5 -38t14 -37.5t35 -13.5t34 15t13 37q0 25 -13.5 38t-33.5 13z" />
    <glyph glyph-name="cent.numr" horiz-adv-x="304" 
d="M137 644h72v-58q45 -5 76 -25l-29 -86q-25 18 -56 18q-26 0 -40.5 -14t-14.5 -33q0 -21 15 -35.5t42 -14.5q33 0 56 15h9v-89q-27 -16 -58 -20v-60h-72v62q-50 12 -81 48.5t-31 92.5q0 53 30 90.5t82 48.5v60z" />
    <glyph glyph-name="sterling.numr" horiz-adv-x="355" 
d="M196 672q36 0 62.5 -10t39.5 -23t20.5 -30.5t8.5 -26.5t1 -16q0 -36 -15 -69l-84 12q4 20 4 21q0 38 -34 38q-16 0 -25 -10.5t-9 -24.5q0 -16 26 -64h92v-75h-72q-1 -37 -10 -61q53 -11 75 -11q34 0 53 20h10v-93q-31 -25 -70 -25q-21 0 -56.5 8.5t-55.5 8.5
q-39 0 -88 -20l-36 79q20 19 66 31q8 16 8 44q0 9 -3 19h-73v75h39q-24 44 -24 79q0 55 42 89.5t108 34.5z" />
    <glyph glyph-name="yen.numr" horiz-adv-x="423" 
d="M6 665h127l78 -139l78 139h128l-114 -181h67v-58h-97v-31h97v-57h-97v-107h-123v107h-98v57h98v31h-98v58h67z" />
    <glyph glyph-name="Euro.numr" horiz-adv-x="389" 
d="M268 672q69 0 110 -32l-39 -89q-22 16 -59 16q-61 0 -82 -47h121v-58h-133v-5q-1 -5 -1 -9q0 -5 1 -11v-6h133v-57h-120q22 -45 79 -45q46 0 78 23h7v-103q-33 -25 -104 -25q-154 0 -189 150h-46v57h41v31h-41v58h46q35 152 198 152z" />
    <glyph glyph-name="uni20B0.numr" horiz-adv-x="425" 
d="M286 671q55 0 87 -32.5t32 -88.5q0 -83 -81 -174q43 -84 43 -141q0 -54 -32.5 -93t-91.5 -39q-34 0 -60 11v92h8q12 -6 24 -6q22 0 34.5 12t12.5 33q0 26 -14 56l-71 -70h-9l-39 66l-32 -59h-103l120 215h12l56 -97l21 23q-52 91 -52 154q0 55 36 96.5t99 41.5zM282 570
q-26 0 -26 -37q0 -29 23 -73q29 37 29 73q0 14 -6.5 25.5t-19.5 11.5z" />
    <glyph glyph-name="uni20B9.numr" horiz-adv-x="351" 
d="M40 575h92q-19 32 -73 32h-19v58h290v-58h-91q12 -15 16 -32h75v-58h-70q-6 -41 -34 -69t-69 -39l111 -178h-124l-104 167v70h13q70 0 84 49h-97v58z" />
    <glyph glyph-name="uni20BA.numr" horiz-adv-x="408" 
d="M71 664h124v-68l78 31v-61l-78 -31v-32l78 31v-61l-78 -31v-112q81 12 85 111h117q-2 -101 -61 -160.5t-169 -59.5q-60 0 -96 11v170l-52 -20v61l52 20v32l-52 -20v61l52 20v108z" />
    <glyph glyph-name="dollar.dnom" horiz-adv-x="318" 
d="M131 471h71v-60q55 -9 95 -44l-48 -83q-30 30 -77 30q-32 0 -32 -22q0 -13 27 -27l23 -11q61 -30 85 -58t24 -70q0 -41 -27.5 -71.5t-69.5 -41.5v-66h-71v62q-65 7 -106 43v101h9q13 -14 46 -30t66 -16q37 0 37 24q0 10 -8 17t-31 18l-35 17q-39 19 -62.5 44.5
t-23.5 67.5q0 45 30.5 75.5t77.5 39.5v61z" />
    <glyph glyph-name="parenleft.dnom" horiz-adv-x="237" 
d="M120 485h99q-43 -72 -59 -132t-16 -134q0 -151 76 -274h-99q-36 32 -66.5 105.5t-30.5 168.5q0 94 29.5 164t66.5 102z" />
    <glyph glyph-name="parenright.dnom" horiz-adv-x="226" 
d="M18 485h98q38 -31 67.5 -101t29.5 -165t-30 -169t-66 -105h-100q77 122 77 274q0 75 -16 135t-60 131z" />
    <glyph glyph-name="comma.dnom" horiz-adv-x="164" 
d="M85 120q26 0 43.5 -19t17.5 -44q0 -31 -34 -88l-33 -57h-66l52 91q-46 13 -46 56q0 25 17.5 43t48.5 18z" />
    <glyph glyph-name="hyphen.dnom" horiz-adv-x="228" 
d="M22 249h185v-102h-185v102z" />
    <glyph glyph-name="period.dnom" horiz-adv-x="164" 
d="M19 56q0 26 18.5 45t44.5 19t44.5 -19t18.5 -45t-18.5 -44.5t-44.5 -18.5t-44.5 18.5t-18.5 44.5z" />
    <glyph glyph-name="zero.dnom" horiz-adv-x="435" 
d="M218 440q87 0 137 -61.5t50 -160.5q0 -102 -52 -164t-135 -62t-136 62t-53 164q0 98 51.5 160t137.5 62zM218 334q-30 0 -48 -28.5t-18 -85.5q0 -61 18 -91.5t47 -30.5q65 0 65 118q0 58 -17.5 88t-46.5 30z" />
    <glyph glyph-name="one.dnom" horiz-adv-x="286" 
d="M229 436h11v-436h-124v265l-68 -28l-42 101z" />
    <glyph glyph-name="two.dnom" horiz-adv-x="377" 
d="M198 441q44 0 76 -14t47 -37t21 -43t6 -40q0 -50 -28 -89.5t-71 -72.5t-50 -42h153v-103h-326q0 48 39 108q21 33 63.5 68.5t70 64t27.5 57.5q0 16 -10 26.5t-28 10.5t-30 -11t-12 -28q0 -5 3 -23l-101 -23q-14 28 -14 55q0 54 43 95t121 41z" />
    <glyph glyph-name="three.dnom" horiz-adv-x="339" 
d="M172 441q22 0 43.5 -5t43 -16t34.5 -33.5t13 -53.5q0 -74 -72 -103q87 -28 87 -106q0 -51 -40 -91t-120 -40q-90 0 -155 53l51 83q47 -33 85 -33q26 0 41 10.5t15 28.5q0 24 -23.5 33.5t-71.5 9.5h-16v86h26q72 0 72 39q0 14 -11.5 24.5t-32.5 10.5q-33 0 -74 -27l-46 76
q22 19 63 36.5t88 17.5z" />
    <glyph glyph-name="four.dnom" horiz-adv-x="408" 
d="M229 434h108v-251h50v-98h-50v-85h-115v86h-204v82zM222 303l-92 -120h92v120z" />
    <glyph glyph-name="five.dnom" horiz-adv-x="366" 
d="M90 434h229v-103h-147l-8 -52q20 5 33 5q62 0 104.5 -32t42.5 -105q0 -69 -47 -111.5t-122 -42.5q-93 0 -156 52l50 88q49 -35 88 -35q28 0 46 13t18 35q0 49 -70 49q-42 0 -75 -13l-22 13z" />
    <glyph glyph-name="six.dnom" horiz-adv-x="382" 
d="M166 434h133l-112 -150q23 5 36 5q59 0 100 -34.5t41 -102.5q0 -74 -48 -116.5t-117 -42.5q-89 0 -132 47.5t-43 114.5q0 46 25 96q37 72 117 183zM193 200q-21 0 -34 -15t-13 -37q0 -25 13.5 -38t33.5 -13q21 0 34.5 13.5t13.5 38.5q0 24 -13 37.5t-35 13.5z" />
    <glyph glyph-name="seven.dnom" horiz-adv-x="379" 
d="M24 434h359v-13l-208 -421h-132l161 326h-180v108z" />
    <glyph glyph-name="eight.dnom" horiz-adv-x="384" 
d="M194 441q67 0 107 -34t40 -81q0 -62 -57 -97q35 -14 56.5 -42t21.5 -62q0 -60 -44.5 -96t-124.5 -36q-81 0 -126 35.5t-45 93.5q0 36 22.5 64t54.5 41q-26 16 -41.5 41t-15.5 50q0 54 42 88.5t110 34.5zM193 350q-18 0 -30.5 -10t-12.5 -27q0 -29 43 -55q41 23 41 54
q0 19 -12.5 28.5t-28.5 9.5zM192 187q-20 -5 -34.5 -21t-14.5 -34q0 -19 13 -32t38 -13q20 0 33.5 13.5t13.5 31.5q0 15 -12.5 31.5t-36.5 23.5z" />
    <glyph glyph-name="nine.dnom" horiz-adv-x="384" 
d="M190 441q86 0 128 -46t42 -108q0 -55 -40 -135q-30 -61 -92 -152h-128q19 26 95 151q-12 -6 -34 -6q-54 0 -97.5 35.5t-43.5 102.5q0 74 48.5 116t121.5 42zM191 337q-22 0 -35.5 -14t-13.5 -38t14 -37.5t35 -13.5t34 15t13 37q0 25 -13.5 38t-33.5 13z" />
    <glyph glyph-name="cent.dnom" horiz-adv-x="316" 
d="M147 413h72v-58q45 -5 76 -25l-29 -86q-25 18 -56 18q-26 0 -40.5 -14t-14.5 -33q0 -21 15 -35.5t42 -14.5q33 0 56 15h9v-89q-27 -16 -58 -20v-60h-72v62q-50 12 -81 48.5t-31 92.5q0 53 30 90.5t82 48.5v60z" />
    <glyph glyph-name="sterling.dnom" horiz-adv-x="350" 
d="M192 441q36 0 62.5 -10t39.5 -23t20.5 -30.5t8.5 -26.5t1 -16q0 -37 -15 -69l-84 12q4 20 4 21q0 38 -34 38q-16 0 -25 -10.5t-9 -24.5q0 -16 26 -64h92v-75h-72q-1 -37 -10 -61q53 -11 75 -11q34 0 53 20h10v-93q-31 -25 -70 -25q-21 0 -56.5 8.5t-55.5 8.5
q-39 0 -88 -20l-36 79q20 19 66 31q8 16 8 44q0 8 -3 19h-73v75h39q-24 44 -24 79q0 55 42 89.5t108 34.5z" />
    <glyph glyph-name="yen.dnom" horiz-adv-x="444" 
d="M21 434h127l78 -139l78 139h128l-114 -181h67v-58h-97v-31h97v-57h-97v-107h-123v107h-98v57h98v31h-98v58h67z" />
    <glyph glyph-name="Euro.dnom" horiz-adv-x="409" 
d="M275 441q69 0 110 -32l-39 -89q-22 16 -59 16q-61 0 -82 -47h121v-58h-133l-1 -5v-9v-11l1 -6h133v-57h-120q22 -45 79 -45q46 0 78 23h7v-103q-33 -25 -104 -25q-154 0 -189 150h-46v57h41v31h-41v58h46q35 152 198 152z" />
    <glyph glyph-name="uni20B0.dnom" horiz-adv-x="418" 
d="M291 441q55 0 87 -32.5t32 -88.5q0 -83 -81 -174q43 -84 43 -141q0 -54 -32.5 -93t-91.5 -39q-34 0 -60 11v92h8q12 -6 24 -6q22 0 34.5 12t12.5 33q0 26 -14 56l-71 -70h-9l-39 66l-32 -59h-103l120 215h12l56 -97l21 23q-52 91 -52 154q0 55 36 96.5t99 41.5zM287 340
q-26 0 -26 -37q0 -29 23 -73q29 37 29 73q0 14 -6.5 25.5t-19.5 11.5z" />
    <glyph glyph-name="uni20B9.dnom" horiz-adv-x="314" 
d="M6 344h92q-19 32 -73 32h-19v58h290v-58h-91q12 -15 16 -32h75v-58h-70q-6 -41 -34 -69t-69 -39l111 -178h-124l-104 167v70h13q70 0 84 49h-97v58z" />
    <glyph glyph-name="uni20BA.dnom" horiz-adv-x="408" 
d="M71 398h124v-68l78 31v-61l-78 -31v-32l78 31v-61l-78 -31v-112q81 12 85 111h117q-2 -101 -61 -160.5t-169 -59.5q-60 0 -96 11v170l-52 -20v61l52 20v32l-52 -20v61l52 20v108z" />
    <glyph glyph-name="space.frac" horiz-adv-x="10" 
 />
    <glyph glyph-name="b.ordn" horiz-adv-x="414" 
d="M35 835h122v-243q37 37 94 37q59 0 100 -47t41 -122t-43.5 -121.5t-105.5 -46.5q-55 0 -89 37v-28h-119v534zM214 529q-26 0 -41.5 -20t-15.5 -51q0 -28 15.5 -47t41.5 -19t40.5 18.5t14.5 50.5q0 30 -15.5 49t-39.5 19z" />
    <glyph glyph-name="c.ordn" horiz-adv-x="318" 
d="M197 629q65 0 105 -36l-37 -85q-25 19 -56 19q-30 0 -48 -19t-18 -47t17.5 -47.5t52.5 -19.5q37 0 66 25h10v-100q-37 -27 -98 -27q-78 0 -124 46.5t-46 121.5q0 72 48.5 120.5t127.5 48.5z" />
    <glyph glyph-name="d.ordn" horiz-adv-x="414" 
d="M257 835h122v-534h-121v32q-33 -41 -88 -41q-62 0 -105 45t-43 123q0 81 44.5 125t107.5 44q58 0 83 -38v244zM201 528q-25 0 -41 -19t-16 -48q0 -30 16 -49t41 -19q27 0 41.5 18t14.5 49t-15 49.5t-41 18.5z" />
    <glyph glyph-name="e.ordn" horiz-adv-x="379" 
d="M201 629q74 0 115.5 -47t41.5 -118q0 -18 -3 -33h-206q5 -19 23 -33t48 -14q43 0 81 30l46 -66q-20 -24 -57 -40t-81 -16q-88 0 -138 46.5t-50 121.5q0 73 49.5 121t130.5 48zM196 539q-22 0 -34 -15.5t-13 -31.5h91q-1 17 -11 32t-33 15z" />
    <glyph glyph-name="f.ordn" horiz-adv-x="273" 
d="M209 837q17 0 47 -3v-99h-6q-34 0 -46.5 -13t-12.5 -48v-54h66v-101h-66v-218h-122v218h-48v101h48v74q0 70 37.5 106.5t102.5 36.5z" />
    <glyph glyph-name="g.ordn" horiz-adv-x="414" 
d="M174 629q30 0 52 -12t30 -26l3 29h120v-270q0 -94 -51.5 -143.5t-139.5 -49.5q-91 0 -150 52l44 79q42 -34 92 -34q40 0 61.5 18t21.5 50v13q-30 -40 -91 -40q-60 0 -102 44t-42 121q0 81 44.5 125t107.5 44zM201 528q-25 0 -41 -19t-16 -48q0 -30 16 -49t41 -19
q27 0 41.5 18t14.5 49t-15 49.5t-41 18.5z" />
    <glyph glyph-name="h.ordn" horiz-adv-x="403" 
d="M35 835h122v-261q13 21 40 38t64 17q48 0 78 -32.5t30 -94.5v-201h-122v164q0 52 -36 52q-26 0 -54 -30v-186h-122v534z" />
    <glyph glyph-name="i.ordn" horiz-adv-x="196" 
d="M37 620h122v-319h-122v319zM98 812q30 0 50 -20t20 -49q0 -30 -20 -50.5t-50 -20.5q-31 0 -51 20.5t-20 50.5q0 29 20 49t51 20z" />
    <glyph glyph-name="j.ordn" horiz-adv-x="201" 
d="M42 620h122v-299q0 -80 -35.5 -117.5t-106.5 -37.5q-20 0 -39 6v95h22q37 0 37 52v301zM104 812q30 0 50 -20t20 -49q0 -30 -20 -50.5t-50 -20.5q-31 0 -51 20.5t-20 50.5q0 29 20 49t51 20z" />
    <glyph glyph-name="k.ordn" horiz-adv-x="380" 
d="M35 835h122v-302l80 87h149l-134 -138l137 -181h-143l-79 106l-10 -8v-98h-122v534z" />
    <glyph glyph-name="l.ordn" horiz-adv-x="192" 
d="M35 835h122v-534h-122v534z" />
    <glyph glyph-name="m.ordn" horiz-adv-x="603" 
d="M37 620h120v-43q46 52 105 52q27 0 47 -12t27.5 -23.5t10.5 -21.5q44 57 114 57q50 0 78.5 -33t28.5 -102v-193h-122v168q0 48 -32 48q-27 0 -51 -26v-190h-122v165q0 51 -32 51q-25 0 -50 -27v-189h-122v319z" />
    <glyph glyph-name="n.ordn" horiz-adv-x="406" 
d="M37 620h120v-46q39 55 106 55q48 0 78 -32.5t30 -94.5v-201h-122v164q0 52 -36 52q-26 0 -54 -30v-186h-122v319z" />
    <glyph glyph-name="p.ordn" horiz-adv-x="414" 
d="M35 620h120v-30q39 39 96 39q59 0 100 -47t41 -122t-43.5 -121.5t-105.5 -46.5q-56 0 -87 36v-162h-121v454zM214 529q-26 0 -41.5 -20t-15.5 -51q0 -28 15.5 -47t41.5 -19t40.5 18.5t14.5 50.5q0 30 -15.5 49t-39.5 19z" />
    <glyph glyph-name="q.ordn" horiz-adv-x="414" 
d="M174 629q30 0 52 -12t30 -26l3 29h120v-457h-122v170q-31 -41 -87 -41q-62 0 -105 45t-43 123q0 81 44.5 125t107.5 44zM201 528q-25 0 -41 -19t-16 -48q0 -30 16 -49t41 -19q27 0 41.5 18t14.5 49t-15 49.5t-41 18.5z" />
    <glyph glyph-name="r.ordn" horiz-adv-x="278" 
d="M37 620h120v-62q10 28 33 49.5t49 21.5q13 0 21 -4v-128h-15q-28 0 -51.5 -11.5t-34.5 -27.5v-158h-122v320z" />
    <glyph glyph-name="s.ordn" horiz-adv-x="284" 
d="M153 629q74 0 113 -34l-33 -80q-35 21 -65 21q-25 0 -25 -15q0 -6 9.5 -11.5t41.5 -17.5q77 -30 77 -93q0 -44 -34 -75.5t-108 -31.5q-62 0 -102 28v93h10q37 -28 82 -28q32 0 32 15q0 12 -36 26q-25 11 -40.5 19t-33.5 31t-18 52q0 42 34 71t96 30z" />
    <glyph glyph-name="t.ordn" horiz-adv-x="269" 
d="M181 771h12v-151h60v-101h-60v-218h-122v218h-47v101h46v87z" />
    <glyph glyph-name="u.ordn" horiz-adv-x="402" 
d="M35 620h122v-161q0 -31 9 -43t30 -12q28 0 47 28v188h122v-319h-119v43q-12 -19 -40 -35.5t-61 -16.5q-46 0 -78 28.5t-32 88.5v211z" />
    <glyph glyph-name="v.ordn" horiz-adv-x="369" 
d="M-5 620h130l62 -132l58 132h129l-176 -323h-28z" />
    <glyph glyph-name="w.ordn" horiz-adv-x="514" 
d="M-4 620h125l63 -131l66 129h19l65 -129l59 131h124l-155 -322h-22l-82 144l-82 -144h-23z" />
    <glyph glyph-name="x.ordn" horiz-adv-x="376" 
d="M4 620h132l53 -72l54 72h129l-119 -158l120 -161h-133l-53 72l-54 -72h-129l118 158z" />
    <glyph glyph-name="y.ordn" horiz-adv-x="383" 
d="M5 620h130l66 -169l66 169h122l-190 -453h-122l65 144z" />
    <glyph glyph-name="z.ordn" horiz-adv-x="316" 
d="M27 620h273v-49l-126 -170h120v-101h-267v70l114 148h-114v102z" />
    <glyph glyph-name="egrave.ordn" horiz-adv-x="379" 
d="M83 789h104l56 -106v-13h-90l-70 107v12zM201 629q74 0 115.5 -47t41.5 -118q0 -18 -3 -33h-206q5 -19 23 -33t48 -14q43 0 81 30l46 -66q-20 -24 -57 -40t-81 -16q-88 0 -138 46.5t-50 121.5q0 73 49.5 121t130.5 48zM196 539q-22 0 -34 -15.5t-13 -31.5h91
q-1 17 -11 32t-33 15z" />
    <glyph glyph-name="numbersign.osf" horiz-adv-x="503" 
d="M54 327h77l12 95h99l-12 -95h74l12 95h99l-12 -95h63v-81h-73l-8 -68h66v-80h-75l-12 -98h-99l12 98h-75l-12 -98h-99l12 98h-65v80h75l8 68h-67v81zM220 246l-8 -68h74l8 68h-74z" />
    <glyph glyph-name="dollar.osf" horiz-adv-x="406" 
d="M162 658h91v-73q73 -12 118 -64l-55 -91q-42 44 -96 44q-28 0 -42.5 -11t-14.5 -28q0 -25 40 -45l44 -22q78 -39 106.5 -79t28.5 -91q0 -57 -36 -97.5t-93 -55.5v-84h-91v80q-84 10 -131 53v120h9q19 -20 60 -40.5t91 -20.5q31 0 47 12.5t16 33.5q0 29 -50 55l-59 29
q-110 54 -110 154q0 57 35.5 95t91.5 51v75z" />
    <glyph glyph-name="percent.osf" horiz-adv-x="689" 
d="M460 434h115l-344 -434h-114zM150 444q59 0 98 -39t39 -96q0 -58 -39 -97.5t-98 -39.5q-58 0 -96.5 39.5t-38.5 97.5q0 57 39 96t96 39zM150 352q-17 0 -28.5 -12.5t-11.5 -30.5q0 -19 11.5 -31.5t28.5 -12.5q19 0 31 12.5t12 31.5q0 18 -12 30.5t-31 12.5zM537 260
q58 0 97.5 -39t39.5 -96t-39.5 -96.5t-97.5 -39.5t-96.5 39.5t-38.5 96.5t38.5 96t96.5 39zM537 168q-17 0 -29 -12.5t-12 -30.5q0 -19 12 -31.5t29 -12.5q19 0 31 12.5t12 31.5q0 18 -12 30.5t-31 12.5z" />
    <glyph glyph-name="zero.osf" horiz-adv-x="511" 
d="M256 444q101 0 164 -66t63 -161q0 -96 -62.5 -161.5t-164.5 -65.5q-103 0 -165 65t-62 162q0 96 63 161.5t164 65.5zM255 332q-42 0 -68 -32.5t-26 -81.5t27 -81t69 -32t67.5 31t25.5 80q0 51 -26.5 83.5t-68.5 32.5z" />
    <glyph glyph-name="one.osf" horiz-adv-x="295" 
d="M240 436h10v-436h-130v272l-79 -30l-35 103z" />
    <glyph glyph-name="two.osf" horiz-adv-x="435" 
d="M225 444q89 0 131 -46t42 -98q0 -28 -9 -53t-20.5 -42t-34.5 -36t-37 -28.5l-42 -27.5h158v-113h-377q0 32 22 66q23 37 61.5 69.5t70 50t55.5 42t24 52.5q0 22 -15 37t-42 15q-30 0 -44 -17t-14 -38q0 -14 7 -33l-105 -27q-22 34 -22 79q0 58 49.5 103t141.5 45z" />
    <glyph glyph-name="three.osf" horiz-adv-x="396" 
d="M196 444q74 0 122 -38.5t48 -107.5q0 -58 -31.5 -97.5t-70.5 -51.5q56 -13 89.5 -51t33.5 -96q0 -68 -53 -120.5t-160 -52.5q-52 0 -102 19.5t-81 50.5l52 90q60 -45 122 -45q38 0 63.5 19t25.5 50q0 76 -137 76h-28v101h33q53 0 82 20t29 56q0 27 -17 45t-54 18
q-47 0 -99 -45l-57 80q24 29 75.5 54.5t114.5 25.5z" />
    <glyph glyph-name="four.osf" horiz-adv-x="485" 
d="M295 432h108v-329h79v-111h-79v-152h-130v152h-259v84zM273 262l-126 -159h126v159z" />
    <glyph glyph-name="five.osf" horiz-adv-x="433" 
d="M104 432h279v-115h-194l-20 -108q29 8 65 8q74 0 132 -46t58 -140t-62 -148t-160 -54q-66 0 -117.5 23.5t-72.5 47.5l56 91q23 -16 33 -22t37 -15.5t54 -9.5q40 0 68 21.5t28 60.5q0 83 -110 83q-67 0 -116 -31l-20 13z" />
    <glyph glyph-name="six.osf" horiz-adv-x="495" 
d="M244 628h149l-152 -218q21 7 42 7q82 0 134 -57t52 -146q0 -92 -58 -158t-161 -66q-101 0 -160.5 62t-59.5 151q0 39 12.5 80.5t27 69.5t39.5 70q22 37 48 76.5l54.5 81zM249 307q-39 0 -63 -27.5t-24 -75.5q0 -44 24 -72t63 -28q38 0 63.5 27.5t25.5 72.5t-25.5 74
t-63.5 29z" />
    <glyph glyph-name="seven.osf" horiz-adv-x="477" 
d="M28 432h449v-15l-283 -577h-140l235 473h-261v119z" />
    <glyph glyph-name="eight.osf" horiz-adv-x="485" 
d="M244 642q83 0 135.5 -46t52.5 -119q0 -89 -85 -140q111 -55 111 -162q0 -84 -61.5 -134.5t-153.5 -50.5q-94 0 -155 50t-61 133q0 61 33 102.5t78 58.5q-85 50 -85 142q0 73 55 119.5t136 46.5zM243 535q-30 0 -49 -19t-19 -49q0 -28 20.5 -50.5t50.5 -35.5q63 31 63 85
q0 29 -19 49t-47 20zM242 282q-34 -11 -58.5 -37t-24.5 -64q0 -34 24 -58t61 -24q34 0 58 23.5t24 58.5q0 67 -84 101z" />
    <glyph glyph-name="nine.osf" horiz-adv-x="489" 
d="M247 441q101 0 157.5 -59t56.5 -148q0 -77 -56 -191q-63 -130 -125 -217h-140q104 173 120 204q-14 -7 -35 -7q-84 0 -141.5 55t-57.5 147q0 86 58 151t163 65zM243 327q-38 0 -62.5 -28.5t-24.5 -70.5q0 -44 24.5 -70.5t64.5 -26.5q39 0 62 27t23 70q0 42 -23 70.5
t-64 28.5z" />
    <glyph glyph-name="cent.osf" horiz-adv-x="364" 
d="M163 469h91v-72q57 -9 92 -39l-38 -94q-32 26 -77 26q-36 0 -55.5 -19t-19.5 -46q0 -31 22.5 -49t57.5 -18q50 0 82 26h11v-104q-30 -23 -75 -31v-67h-91v70q-60 15 -97 60.5t-37 111.5q0 63 36.5 108.5t97.5 60.5v76z" />
    <glyph glyph-name="sterling.osf" horiz-adv-x="493" 
d="M268 642q42 0 75 -11.5t51.5 -28.5t30.5 -38t16 -37.5t4 -30.5q0 -55 -25 -98l-103 18q9 18 9 46q0 26 -14.5 45.5t-47.5 19.5q-32 0 -49.5 -18.5t-17.5 -45.5q0 -16 6.5 -35t11.5 -28t20 -31t16 -23h126v-105h-87q7 -21 7 -38q0 -44 -18 -78q17 -3 50.5 -12.5t53.5 -9.5
q53 0 80 33h11v-111q-39 -35 -96 -35q-31 0 -86 13.5t-84 13.5q-65 0 -116 -30l-42 91q33 32 113 49q11 22 11 55t-14 59h-106v105h52q-39 67 -39 118q0 84 58 131t143 47z" />
    <glyph glyph-name="yen.osf" horiz-adv-x="490" 
d="M-13 631h137l121 -210l121 210h137l-164 -269h105v-81h-134v-33h134v-81h-134v-167h-130v167h-133v81h133v33h-133v81h103z" />
    <glyph glyph-name="section.osf" horiz-adv-x="514" 
d="M280 642q112 0 174 -72l-57 -89q-54 52 -114 52q-29 0 -44 -13.5t-15 -32.5q0 -36 48 -55l75 -29q67 -27 98 -61.5t31 -88.5q0 -42 -21 -83t-55 -69q44 -42 44 -108q0 -72 -57 -118t-141 -46q-53 0 -99.5 16t-72.5 36v117h11q26 -26 70 -43t84 -17q35 0 52.5 14.5
t17.5 34.5q0 36 -51 54l-91 33q-54 20 -89.5 58t-35.5 89q0 96 90 152q-43 46 -43 107q0 74 56 118t135 44zM229 312q-16 6 -23 10q-40 -31 -40 -67q0 -46 60 -68l90 -34q36 27 36 64q0 48 -62 72z" />
    <glyph glyph-name="florin.osf" horiz-adv-x="363" 
d="M279 641q39 0 81 -17l-20 -114q-20 5 -36 5q-30 0 -40.5 -21.5t-13.5 -61.5l-3 -60h79v-117h-84l-10 -176q-6 -123 -36 -181t-115 -58q-46 0 -76 20v113h9q19 -7 38 -7q29 0 40 17t13 63l13 209h-59v117h61l5 78q7 91 42 141t112 50z" />
    <glyph glyph-name="perthousand.osf" horiz-adv-x="994" 
d="M460 434h115l-344 -434h-114zM150 444q59 0 98 -39t39 -96q0 -58 -39 -97.5t-98 -39.5q-58 0 -96.5 39.5t-38.5 97.5q0 57 39 96t96 39zM150 352q-17 0 -28.5 -12.5t-11.5 -30.5q0 -19 11.5 -31.5t28.5 -12.5q19 0 31 12.5t12 31.5q0 18 -12 30.5t-31 12.5zM537 260
q58 0 97.5 -39t39.5 -96t-39.5 -96.5t-97.5 -39.5t-96.5 39.5t-38.5 96.5t38.5 96t96.5 39zM537 168q-17 0 -29 -12.5t-12 -30.5q0 -19 12 -31.5t29 -12.5q19 0 31 12.5t12 31.5q0 18 -12 30.5t-31 12.5zM842 260q58 0 97.5 -39t39.5 -96t-39.5 -96.5t-97.5 -39.5
t-96.5 39.5t-38.5 96.5t38.5 96t96.5 39zM842 168q-17 0 -29 -12.5t-12 -30.5q0 -19 12 -31.5t29 -12.5q19 0 31 12.5t12 31.5q0 18 -12 30.5t-31 12.5z" />
    <glyph glyph-name="Euro.osf" horiz-adv-x="473" 
d="M302 444q93 0 155 -51l-50 -94q-34 30 -89 30q-63 0 -90 -33h122v-67h-145v-10q0 -12 1 -18h144v-67h-116q29 -29 86 -29q67 0 114 47h10v-116q-61 -46 -143 -46q-83 0 -139 39t-78 105h-63v67h51v16v12h-51v67h63q23 66 79.5 107t138.5 41z" />
    <glyph glyph-name="uni20B0.osf" horiz-adv-x="535" 
d="M372 642q69 0 111.5 -47.5t42.5 -120.5q0 -120 -103 -260q59 -120 59 -204q0 -89 -49.5 -138.5t-116.5 -49.5q-41 0 -82 19v107h10q23 -13 48 -13q30 0 48.5 22t18.5 52q0 44 -25 100l-104 -118h-13l-57 112l-53 -103h-119l163 308h13l76 -145l42 53q-27 56 -39.5 84
t-27 75.5t-14.5 87.5q0 73 47.5 126t123.5 53zM371 529q-21 0 -34 -17.5t-13 -50.5q0 -52 43 -135q44 68 44 140q0 26 -10.5 44.5t-29.5 18.5z" />
    <glyph glyph-name="uni20B9.osf" horiz-adv-x="463" 
d="M44 631h400v-94h-136q14 -15 21 -38h115v-94h-116q-24 -98 -144 -127l183 -278h-146l-177 268v91h33q85 0 112 46h-145v94h148q-20 38 -97 38h-51v94z" />
    <glyph glyph-name="uni20BA.osf" horiz-adv-x="513" 
d="M105 616h130v-110l130 50v-83l-130 -50v-35l130 50v-83l-130 -50v-196q61 10 98 60.5t38 134.5h127q-2 -140 -81.5 -227t-212.5 -87q-57 0 -99 16v259l-81 -31v83l81 31v34l-81 -31v85l81 30v150z" />
    <glyph glyph-name="numbersign.tf" horiz-adv-x="556" 
d="M167 637h103l-18 -155h93l19 155h103l-19 -155h83v-104h-96l-14 -114h84v-104h-96l-19 -160h-103l19 160h-94l-19 -160h-103l19 160h-85v104h98l14 114h-86v104h99zM239 378l-14 -114h93l14 114h-93z" />
    <glyph glyph-name="dollar.tf" horiz-adv-x="556" 
d="M242 721h92v-86q80 -11 137 -69l-59 -98q-17 20 -47.5 35.5t-66.5 15.5q-35 0 -53.5 -14t-18.5 -36q0 -20 11 -33t39 -26l52 -25q88 -41 121.5 -86.5t33.5 -102.5q0 -63 -41.5 -110.5t-107.5 -62.5v-93h-92v90q-95 9 -153 63v124h11q15 -20 66 -44t103 -24q82 0 82 59
q0 36 -65 69l-57 27q-136 65 -136 175q0 60 42.5 104.5t106.5 58.5v89z" />
    <glyph glyph-name="zero.tf" horiz-adv-x="556" 
d="M279 674q112 0 176.5 -93.5t64.5 -243.5q0 -156 -66 -251.5t-175 -95.5q-110 0 -176.5 94.5t-66.5 252.5q0 150 65 243.5t178 93.5zM278 548q-52 0 -79 -56.5t-27 -153.5q0 -100 28 -161t80 -61q51 0 77.5 59t26.5 159q0 98 -27 156t-79 58z" />
    <glyph glyph-name="one.tf" horiz-adv-x="556" 
d="M367 667h11v-548h135v-119h-429v119h159v359l-120 -49l-47 115z" />
    <glyph glyph-name="two.tf" horiz-adv-x="556" 
d="M293 674q56 0 98 -19t63 -49t30.5 -61t9.5 -62q0 -54 -20.5 -102t-52.5 -83.5t-65 -65l-65 -58.5t-45 -51h255v-123h-442q0 22 6 44q9 45 37 93q22 40 57.5 79.5t68.5 69.5l63.5 60t49 62t18.5 65q0 29 -19 53.5t-59 24.5q-39 0 -60 -23t-21 -60q0 -24 8 -46l-117 -27
q-20 37 -20 90q0 76 58.5 132.5t163.5 56.5z" />
    <glyph glyph-name="three.tf" horiz-adv-x="556" 
d="M284 674q46 0 86 -14.5t68.5 -52t28.5 -91.5q0 -64 -31.5 -104t-73.5 -58q49 -14 87.5 -54.5t38.5 -113.5q0 -81 -54.5 -138.5t-168.5 -57.5q-61 0 -117 23t-93 62l62 97q72 -60 135 -60q46 0 73 22t27 61q0 47 -39.5 72t-113.5 25h-30v106h40q123 0 123 84q0 25 -19 47
t-64 22q-61 0 -114 -47l-54 92q25 28 78.5 53t124.5 25z" />
    <glyph glyph-name="four.tf" horiz-adv-x="556" 
d="M337 663h110v-398h85v-119h-85v-146h-132v147h-292v100zM315 472l-154 -207h154v207z" />
    <glyph glyph-name="five.tf" horiz-adv-x="556" 
d="M150 663h311v-122h-213l-23 -124q27 10 66 10q88 0 149 -52.5t61 -158.5q0 -102 -64 -164t-169 -62q-76 0 -134 27.5t-80 53.5l61 102q69 -61 141 -61q48 0 78.5 27t30.5 73q0 45 -30.5 72t-93.5 27q-75 0 -125 -30l-26 15z" />
    <glyph glyph-name="six.tf" horiz-adv-x="556" 
d="M259 660h151l-78 -115.5t-87 -131.5q31 15 70 15q87 0 142 -58.5t55 -147.5q0 -103 -62.5 -167.5t-166.5 -64.5q-105 0 -170 65t-65 168q0 79 44 164q51 104 167 273zM278 320q-41 0 -69.5 -29.5t-28.5 -73.5q0 -47 28 -76t71 -29t71 29t28 76t-28 75t-72 28z" />
    <glyph glyph-name="seven.tf" horiz-adv-x="556" 
d="M51 663h490v-18l-297 -645h-139l250 541h-304v122z" />
    <glyph glyph-name="eight.tf" horiz-adv-x="556" 
d="M279 674q88 0 146 -46.5t58 -120.5q0 -95 -96 -150q126 -53 126 -170q0 -89 -64.5 -143t-171.5 -54t-171.5 53.5t-64.5 140.5q0 116 126 170q-96 55 -96 144q0 79 60 127.5t148 48.5zM277 559q-32 0 -54 -19.5t-22 -46.5q0 -30 23.5 -53.5t55.5 -36.5q72 32 72 87
q0 29 -22 49t-53 20zM277 299q-43 -11 -72 -38t-29 -68q0 -37 27 -61.5t76 -24.5q46 0 72.5 23.5t26.5 62.5q0 35 -28.5 64t-72.5 42z" />
    <glyph glyph-name="nine.tf" horiz-adv-x="556" 
d="M285 674q100 0 161 -63t61 -166q0 -80 -44 -171q-35 -77 -152 -274h-150q20 30 150 250q-23 -13 -59 -13q-85 0 -146 57t-61 147q0 107 67.5 170t172.5 63zM276 551q-41 0 -69.5 -29t-28.5 -77q0 -46 28.5 -73.5t70.5 -27.5q41 0 69.5 29t28.5 73q0 49 -28.5 77t-70.5 28
z" />
    <glyph glyph-name="cent.tf" horiz-adv-x="556" 
d="M254 656h97v-93q91 -10 138 -55l-45 -103q-55 42 -119 42q-57 0 -88.5 -32t-31.5 -80q0 -52 34 -84.5t92 -32.5q68 0 121 43h13v-118q-38 -33 -114 -42v-97h-97v99q-88 15 -136 79t-48 150q0 90 51.5 151.5t132.5 77.5v95z" />
    <glyph glyph-name="sterling.tf" horiz-adv-x="556" 
d="M78 365h51q-34 59 -34 120q0 90 60.5 139.5t149.5 49.5q54 0 93 -17.5t58 -44t27 -49.5t8 -43q0 -54 -25 -97l-106 17q8 16 8 44q0 30 -15.5 50.5t-49.5 20.5t-53.5 -20t-19.5 -49q0 -13 5.5 -29.5t10.5 -26.5t18 -33.5t18 -31.5h136v-100h-95q8 -29 8 -57q0 -44 -17 -82
q16 -3 38.5 -9t39.5 -9.5t34 -3.5q55 0 85 36h11v-111q-40 -39 -102 -39q-32 0 -90 14t-88 14q-68 0 -120 -32l-43 93q37 34 110 47q13 26 13 65q0 36 -18 74h-106v100z" />
    <glyph glyph-name="yen.tf" horiz-adv-x="556" 
d="M2 663h147l130 -228l129 228h147l-173 -280h108v-83h-144v-47h144v-82h-144v-171h-135v171h-144v82h144v47h-144v83h107z" />
    <glyph glyph-name="section.tf" horiz-adv-x="556" 
d="M300 674q112 0 175 -73l-58 -88q-58 52 -116 52q-28 0 -43 -11.5t-15 -28.5t11 -27.5t38 -19.5l76 -29q69 -26 100.5 -61t31.5 -89q0 -84 -70 -139q39 -39 39 -100q0 -73 -56.5 -115.5t-143.5 -42.5q-52 0 -99.5 16t-76.5 38v117h11q28 -27 73 -44.5t85 -17.5q72 0 72 40
q0 17 -12.5 30t-44.5 24l-84 29q-57 20 -94.5 59t-37.5 91q0 87 82 137q-35 41 -35 96q0 73 55.5 115t136.5 42zM214 371q-31 -20 -31 -49q0 -25 14 -42.5t53 -31.5l73 -27q4 -2 14 -5.5t14 -4.5q27 22 27 51q0 49 -65 72l-68 25q-21 7 -31 12z" />
    <glyph glyph-name="florin.tf" horiz-adv-x="556" 
d="M380 674q52 0 84 -16l-19 -115q-15 5 -37 5q-49 0 -53 -83l-2 -45h76v-117h-81l-9 -162q-2 -47 -6.5 -80.5t-15 -65t-27 -50.5t-43 -30.5t-62.5 -11.5q-49 0 -76 20v114h9q15 -7 38 -7q28 0 38.5 16.5t12.5 62.5l12 194h-59v117h63l4 65q6 89 41 139t112 50z" />
    <glyph glyph-name="uni2007.tf" horiz-adv-x="556" 
 />
    <glyph glyph-name="Euro.tf" horiz-adv-x="556" 
d="M369 674q91 0 151 -52l-53 -105q-41 30 -94 30q-98 0 -130 -104h191v-82h-204v-47h204v-83h-193q29 -115 132 -115q73 0 120 57h11v-133q-52 -50 -152 -50q-110 0 -170.5 66t-78.5 175h-65v83h58q-1 9 -1 22t1 25h-58v82h67q22 105 87.5 168t176.5 63z" />
    <glyph glyph-name="uni20B0.tf" horiz-adv-x="556" 
d="M383 674q74 0 118 -49t44 -127q0 -70 -27.5 -134.5t-77.5 -137.5q60 -124 60 -218t-53 -145t-133 -51q-38 0 -73 16v117h11q22 -12 50 -12q30 0 50 24.5t20 56.5q0 53 -27 107l-106 -131h-14l-61 123l-54 -113h-123l169 326h12l83 -154l41 57q-28 55 -42 86t-28 79.5
t-14 90.5q0 77 48.5 133t126.5 56zM384 554q-21 0 -34 -18.5t-13 -52.5q0 -54 43 -142q48 77 48 148q0 24 -12 44.5t-32 20.5z" />
    <glyph glyph-name="uni20B9.tf" horiz-adv-x="556" 
d="M82 531h160q-26 50 -101 50h-59v82h420v-82h-152q20 -20 30 -50h122v-83h-118q-18 -118 -160 -157l195 -291h-150l-187 281v94h33q114 0 133 73h-166v83z" />
    <glyph glyph-name="uni20BA.tf" horiz-adv-x="556" 
d="M117 663h135v-117l141 54v-87l-141 -55v-47l141 55v-87l-141 -54v-208q66 12 107 66.5t42 143.5h133q-2 -150 -87.5 -243.5t-226.5 -93.5q-55 0 -103 16v278l-86 -33v85l86 33v46l-86 -33v89l86 33v159z" />
    <glyph glyph-name="numbersign.tosf" horiz-adv-x="517" 
d="M62 327h77l12 95h99l-12 -95h74l12 95h99l-12 -95h63v-81h-73l-8 -68h66v-80h-75l-12 -98h-99l12 98h-75l-12 -98h-99l12 98h-65v80h75l8 68h-67v81zM228 246l-8 -68h74l8 68h-74z" />
    <glyph glyph-name="dollar.tosf" horiz-adv-x="517" 
d="M221 658h91v-73q73 -12 118 -64l-55 -91q-42 44 -96 44q-28 0 -42.5 -11t-14.5 -28q0 -25 40 -45l44 -22q78 -39 106.5 -79t28.5 -91q0 -57 -36 -97.5t-93 -55.5v-84h-91v80q-84 10 -131 53v120h9q19 -20 60 -40.5t91 -20.5q31 0 47 12.5t16 33.5q0 29 -50 55l-59 29
q-110 54 -110 154q0 57 35.5 95t91.5 51v75z" />
    <glyph glyph-name="zero.tosf" horiz-adv-x="517" 
d="M259 444q100 0 161 -65.5t61 -161.5q0 -97 -60.5 -162t-161.5 -65q-103 0 -163 65t-60 162q0 96 61 161.5t162 65.5zM258 332q-42 0 -65.5 -32t-23.5 -82t24 -81.5t66 -31.5q41 0 64.5 31t23.5 80q0 51 -24 83.5t-65 32.5z" />
    <glyph glyph-name="one.tosf" horiz-adv-x="517" 
d="M342 436h10v-326h99v-110h-348v110h119v166l-89 -32l-33 104z" />
    <glyph glyph-name="two.tosf" horiz-adv-x="517" 
d="M265 444q89 0 131 -46t42 -98q0 -28 -9 -53t-20.5 -42t-34.5 -36t-37 -28.5l-42 -27.5h158v-113h-377q0 32 22 66q23 37 61.5 69.5t70 50t55.5 42t24 52.5q0 22 -15 37t-42 15q-30 0 -44 -17t-14 -38q0 -14 7 -33l-105 -27q-22 34 -22 79q0 58 49.5 103t141.5 45z" />
    <glyph glyph-name="three.tosf" horiz-adv-x="517" 
d="M260 444q74 0 122 -38.5t48 -107.5q0 -58 -31.5 -97.5t-70.5 -51.5q56 -13 89.5 -51t33.5 -96q0 -68 -53 -120.5t-160 -52.5q-52 0 -102 19.5t-81 50.5l52 90q60 -45 122 -45q38 0 63.5 19t25.5 50q0 76 -137 76h-28v101h33q53 0 82 20t29 56q0 27 -17 45t-54 18
q-47 0 -99 -45l-57 80q24 29 75.5 54.5t114.5 25.5z" />
    <glyph glyph-name="four.tosf" horiz-adv-x="517" 
d="M307 432h108v-329h79v-111h-79v-152h-130v152h-259v84zM285 262l-126 -159h126v159z" />
    <glyph glyph-name="five.tosf" horiz-adv-x="517" 
d="M143 432h279v-115h-194l-20 -108q29 8 65 8q74 0 132 -46t58 -140t-62 -148t-160 -54q-66 0 -117.5 23.5t-72.5 47.5l56 91q23 -16 33 -22t37 -15.5t54 -9.5q40 0 68 21.5t28 60.5q0 83 -110 83q-67 0 -116 -31l-20 13z" />
    <glyph glyph-name="six.tosf" horiz-adv-x="517" 
d="M255 628h149l-152 -218q21 7 42 7q82 0 134 -57t52 -146q0 -92 -58 -158t-161 -66q-101 0 -160.5 62t-59.5 151q0 39 12.5 80.5t27 69.5t39.5 70q22 37 48 76.5l54.5 81zM260 307q-39 0 -63 -27.5t-24 -75.5q0 -44 24 -72t63 -28q38 0 63.5 27.5t25.5 72.5t-25.5 74
t-63.5 29z" />
    <glyph glyph-name="seven.tosf" horiz-adv-x="517" 
d="M43 432h459v-15l-284 -577h-139l235 472h-271v120z" />
    <glyph glyph-name="eight.tosf" horiz-adv-x="517" 
d="M260 642q83 0 135.5 -46t52.5 -119q0 -89 -85 -140q111 -55 111 -162q0 -84 -61.5 -134.5t-153.5 -50.5q-94 0 -155 50t-61 133q0 61 33 102.5t78 58.5q-85 50 -85 142q0 73 55 119.5t136 46.5zM259 535q-30 0 -49 -19t-19 -49q0 -28 20.5 -50.5t50.5 -35.5q63 31 63 85
q0 29 -19 49t-47 20zM258 282q-34 -11 -58.5 -37t-24.5 -64q0 -34 24 -58t61 -24q34 0 58 23.5t24 58.5q0 67 -84 101z" />
    <glyph glyph-name="nine.tosf" horiz-adv-x="517" 
d="M261 441q101 0 157.5 -59t56.5 -148q0 -77 -56 -191q-63 -130 -125 -217h-140q104 173 120 204q-14 -7 -35 -7q-84 0 -141.5 55t-57.5 147q0 86 58 151t163 65zM257 327q-38 0 -62.5 -28.5t-24.5 -70.5q0 -44 24.5 -70.5t64.5 -26.5q39 0 62 27t23 70q0 42 -23 70.5
t-64 28.5z" />
    <glyph glyph-name="cent.tosf" horiz-adv-x="517" 
d="M234 469h91v-72q57 -9 92 -39l-38 -94q-32 26 -77 26q-36 0 -55.5 -19t-19.5 -46q0 -31 22.5 -49t57.5 -18q49 0 82 26h11v-104q-30 -23 -75 -31v-67h-91v70q-60 15 -97 60.5t-37 111.5q0 63 36.5 108.5t97.5 60.5v76z" />
    <glyph glyph-name="sterling.tosf" horiz-adv-x="517" 
d="M276 642q42 0 75 -11.5t51.5 -28.5t30.5 -38t16 -37.5t4 -30.5q0 -55 -25 -98l-103 18q9 18 9 46q0 26 -14.5 45.5t-47.5 19.5q-32 0 -49.5 -18.5t-17.5 -45.5q0 -16 6.5 -35t11.5 -28t20 -31t16 -23h126v-105h-87q7 -21 7 -38q0 -44 -18 -78q17 -3 50.5 -12.5t53.5 -9.5
q53 0 80 33h11v-111q-39 -35 -96 -35q-31 0 -86 13.5t-84 13.5q-65 0 -116 -30l-42 91q33 32 113 49q11 22 11 55t-14 59h-106v105h52q-39 67 -39 118q0 84 58 131t143 47z" />
    <glyph glyph-name="yen.tosf" horiz-adv-x="517" 
d="M0 631h137l121 -210l121 210h137l-164 -269h105v-81h-134v-33h134v-81h-134v-167h-130v167h-133v81h133v33h-133v81h103z" />
    <glyph glyph-name="section.tosf" horiz-adv-x="517" 
d="M281 642q112 0 174 -72l-57 -89q-54 52 -114 52q-29 0 -44 -13.5t-15 -32.5q0 -36 48 -55l75 -29q67 -27 98 -61.5t31 -88.5q0 -42 -21 -83t-55 -69q44 -42 44 -108q0 -72 -57 -118t-141 -46q-53 0 -99.5 16t-72.5 36v117h11q26 -26 70 -43t84 -17q35 0 52.5 14.5
t17.5 34.5q0 36 -51 54l-91 33q-54 20 -89.5 58t-35.5 89q0 96 90 152q-43 46 -43 107q0 74 56 118t135 44zM230 312q-16 6 -23 10q-40 -31 -40 -67q0 -46 60 -68l90 -34q36 27 36 64q0 48 -62 72z" />
    <glyph glyph-name="florin.tosf" horiz-adv-x="517" 
d="M359 641q39 0 81 -17l-20 -114q-20 5 -36 5q-30 0 -40.5 -21.5t-13.5 -61.5l-3 -60h79v-117h-84l-10 -176q-6 -123 -36 -181t-115 -58q-46 0 -76 20v113h9q19 -7 38 -7q29 0 40 17t13 63l13 209h-59v117h61l5 78q7 91 42 141t112 50z" />
    <glyph glyph-name="uni2007.tosf" horiz-adv-x="517" 
 />
    <glyph glyph-name="Euro.tosf" horiz-adv-x="517" 
d="M326 444q93 0 155 -51l-50 -94q-34 30 -89 30q-63 0 -90 -33h122v-67h-145v-10q0 -12 1 -18h144v-67h-116q29 -29 86 -29q67 0 114 47h10v-116q-61 -46 -143 -46q-83 0 -139 39t-78 105h-63v67h51v16v12h-51v67h63q23 66 79.5 107t138.5 41z" />
    <glyph glyph-name="uni20B0.tosf" horiz-adv-x="517" 
d="M365 642q69 0 111.5 -47.5t42.5 -120.5q0 -120 -103 -260q59 -120 59 -204q0 -89 -49.5 -138.5t-116.5 -49.5q-41 0 -82 19v107h10q23 -13 48 -13q30 0 48.5 22t18.5 52q0 44 -25 100l-104 -118h-13l-57 112l-53 -103h-119l163 308h13l76 -145l42 53q-27 56 -39.5 84
t-27 75.5t-14.5 87.5q0 73 47.5 126t123.5 53zM364 529q-21 0 -34 -17.5t-13 -50.5q0 -52 43 -135q44 68 44 140q0 26 -10.5 44.5t-29.5 18.5z" />
    <glyph glyph-name="uni20B9.tosf" horiz-adv-x="517" 
d="M70 631h400v-94h-136q14 -15 21 -38h115v-94h-116q-24 -98 -144 -127l183 -278h-146l-177 268v91h33q85 0 112 46h-145v94h148q-20 38 -97 38h-51v94z" />
    <glyph glyph-name="uni20BA.tosf" horiz-adv-x="517" 
d="M105 616h130v-110l130 50v-83l-130 -50v-35l130 50v-83l-130 -50v-196q61 10 98 60.5t38 134.5h127q-2 -140 -81.5 -227t-212.5 -87q-57 0 -99 16v259l-81 -31v83l81 31v34l-81 -31v85l81 30v150z" />
    <glyph glyph-name="Adieresis.titl" horiz-adv-x="642" 
d="M141 720q31 0 53 -22t22 -53t-22 -53.5t-53 -22.5q-32 0 -54 22t-22 54t22 53.5t54 21.5zM511 720q31 0 53 -22t22 -53t-22 -53.5t-53 -22.5q-32 0 -54 22t-22 54t22 53.5t54 21.5zM314 714h13l322 -714h-148l-49 112h-264l-48 -112h-147zM320 418l-82 -190h164z" />
    <glyph glyph-name="Odieresis.titl" horiz-adv-x="756" 
d="M91 722q21 0 39 -12t27 -30q-56 -41 -91 -105q-23 7 -37 26.5t-14 45.5q0 32 22 53.5t54 21.5zM666 722q31 0 53 -22t22 -53q0 -26 -15.5 -46.5t-38.5 -26.5q-36 64 -90 105q21 43 69 43zM378 720q146 0 240.5 -102.5t94.5 -261.5q0 -164 -94 -265t-241 -101
q-148 0 -242 100.5t-94 265.5q0 160 94 262t242 102zM376 588q-76 0 -130 -61t-54 -171q0 -108 53.5 -171t132.5 -63t132.5 61.5t53.5 169.5q0 111 -55.5 173t-132.5 62z" />
    <glyph glyph-name="Udieresis.titl" horiz-adv-x="703" 
d="M62 710h84l-1 -55q-1 -41 15 -70.5t43 -34.5v-187q0 -145 37 -192q37 -50 112 -50q73 0 112 51q36 47 36 169v209q26 5 42 35t15 70v55h84v-396q0 -156 -73 -240t-220 -84q-145 0 -216 82q-39 43 -54.5 98.5t-15.5 143.5v396zM262 719q29 0 49 -21t20 -52t-20 -52.5
t-49 -21.5q-30 0 -51 21.5t-21 52.5t21 52t51 21zM443 719q29 0 50 -21t21 -52t-21 -52.5t-50 -21.5t-49.5 21.5t-20.5 52.5t20.5 52t49.5 21z" />
    <glyph glyph-name="exclam.sc" horiz-adv-x="266" 
d="M67 495h131l-11 -306h-109zM132 136q31 0 52.5 -21.5t21.5 -52.5t-21.5 -51.5t-52.5 -20.5q-30 0 -51 20.5t-21 51.5t21 52.5t51 21.5z" />
    <glyph glyph-name="quotedbl.sc" horiz-adv-x="312" 
d="M25 495h106v-208h-106v208zM181 495h105v-208h-105v208z" />
    <glyph glyph-name="numbersign.sc" horiz-adv-x="494" 
d="M137 474h98l-13 -107h83l13 107h98l-13 -107h55v-86h-66l-11 -86h56v-86h-66l-13 -109h-99l13 109h-82l-13 -109h-98l12 109h-55v86h66l11 86h-56v86h67zM211 281l-11 -86h83l11 86h-83z" />
    <glyph glyph-name="dollar.sc" horiz-adv-x="383" 
d="M167 542h83v-64q62 -11 104 -52l-52 -89q-40 37 -81 37q-21 0 -32 -9t-11 -20q0 -19 31 -35l42 -21q56 -28 81 -59.5t25 -73.5q0 -49 -29.5 -85t-77.5 -49v-75h-83v72q-66 9 -113 45v107h10q55 -47 122 -47q46 0 46 34q0 24 -37 41l-31 14q-56 27 -83.5 58.5t-27.5 75.5
q0 46 32.5 80.5t81.5 46.5v68z" />
    <glyph glyph-name="percent.sc" horiz-adv-x="664" 
d="M460 495h102l-358 -495h-102zM151 506q58 0 97 -39t39 -96t-39 -96t-97 -39q-57 0 -95.5 39t-38.5 96t38.5 96t95.5 39zM151 416q-17 0 -29 -13t-12 -32t12 -32.5t29 -13.5q20 0 32.5 13t12.5 33t-12.5 32.5t-32.5 12.5zM510 260q58 0 97 -38.5t39 -95.5t-39 -95.5
t-97 -38.5q-57 0 -95.5 38.5t-38.5 95.5q0 56 38.5 95t95.5 39zM510 172q-18 0 -30 -13t-12 -33t12 -33t30 -13q19 0 32 13t13 33t-13 33t-32 13z" />
    <glyph glyph-name="ampersand.sc" horiz-adv-x="496" 
d="M239 506q60 0 96 -33.5t36 -85.5q0 -77 -81 -143l45 -58q23 30 51 89l76 -34q-23 -70 -69 -129l88 -112h-130l-31 39q-66 -49 -125 -49q-75 0 -111 39.5t-36 83.5q0 75 85 134l14 10l-4 5q-48 62 -48 114q0 54 40.5 92t103.5 38zM210 86q24 0 53 25l-57 71l-6 -5
q-33 -25 -33 -50q0 -15 12 -28t31 -13zM207 375q0 -24 26 -58q37 27 37 58q0 38 -30 38q-17 0 -25 -11.5t-8 -26.5z" />
    <glyph glyph-name="quotesingle.sc" horiz-adv-x="156" 
d="M25 495h106v-206h-106v206z" />
    <glyph glyph-name="parenleft.sc" horiz-adv-x="255" 
d="M149 554h103q-83 -137 -83 -303q0 -179 84 -312h-102q-38 36 -71.5 120.5t-33.5 191.5t32 187.5t71 115.5z" />
    <glyph glyph-name="parenright.sc" horiz-adv-x="254" 
d="M3 554h101q39 -35 71.5 -115.5t32.5 -187.5q0 -108 -33 -192.5t-72 -119.5h-101q83 134 83 312q0 168 -82 303z" />
    <glyph glyph-name="plus.sc" horiz-adv-x="402" 
d="M141 429h121v-122h112v-113h-112v-122h-121v122h-112v113h112v122z" />
    <glyph glyph-name="hyphen.sc" horiz-adv-x="257" 
d="M28 308h201v-112h-201v112z" />
    <glyph glyph-name="slash.sc" horiz-adv-x="292" 
d="M174 545h106l-161 -599h-105z" />
    <glyph glyph-name="zero.sc" horiz-adv-x="481" 
d="M241 506q95 0 148 -70.5t53 -183.5q0 -119 -55 -190.5t-146 -71.5q-92 0 -147.5 71.5t-55.5 190.5q0 112 54 183t149 71zM240 397q-77 0 -77 -145q0 -74 21 -114t57 -40q35 0 55.5 39.5t20.5 113.5q0 146 -77 146z" />
    <glyph glyph-name="one.sc" horiz-adv-x="311" 
d="M234 497h11v-497h-125v320l-69 -32l-44 104z" />
    <glyph glyph-name="two.sc" horiz-adv-x="420" 
d="M223 506q39 0 69 -11t47.5 -27t28.5 -37.5t15 -39.5t4 -35q0 -47 -25.5 -91t-55.5 -70.5t-63 -52.5t-40 -36h186v-106h-357q6 58 44 116q22 34 57 69t61.5 57t46.5 50.5t20 55.5q0 19 -11.5 34t-36.5 15t-41 -14t-16 -40q0 -20 5 -33l-105 -23q-14 26 -14 67
q0 59 48.5 105.5t132.5 46.5z" />
    <glyph glyph-name="three.sc" horiz-adv-x="373" 
d="M191 506q56 0 99 -29t43 -91q0 -45 -26 -78t-58 -45q14 -3 28.5 -10.5t33 -21.5t30 -39t11.5 -56q0 -60 -44 -103t-133 -43q-96 0 -169 60l53 86q53 -39 98 -39q32 0 50.5 14.5t18.5 39.5q0 56 -102 56h-26v93h30q83 0 83 56q0 17 -13.5 29.5t-41.5 12.5q-44 0 -85 -30
l-46 75q20 23 66 43t100 20z" />
    <glyph glyph-name="four.sc" horiz-adv-x="437" 
d="M259 496h97v-295h60v-101h-60v-100h-122v102h-221v82zM234 335l-104 -134h104v134z" />
    <glyph glyph-name="five.sc" horiz-adv-x="402" 
d="M96 495h247v-106h-166l-13 -76q25 5 46 5q41 0 76 -12.5t62 -49t27 -92.5q0 -81 -51 -127.5t-135 -46.5q-60 0 -104.5 19t-66.5 39l51 90q55 -40 105 -40q32 0 54 17.5t22 48.5q0 29 -23 46.5t-66 17.5q-39 0 -91 -19l-20 13z" />
    <glyph glyph-name="six.sc" horiz-adv-x="419" 
d="M196 495h127q-8 -15 -123 -180q28 7 45 7q59 0 105.5 -40t46.5 -114q0 -85 -51 -131.5t-130 -46.5q-64 0 -107.5 28.5t-61 68t-17.5 85.5q0 55 30 115q39 78 136 208zM214 228q-26 0 -42.5 -18t-16.5 -46q0 -32 16.5 -49t41.5 -17q26 0 42.5 17.5t16.5 48.5
q0 30 -16.5 47t-41.5 17z" />
    <glyph glyph-name="seven.sc" horiz-adv-x="399" 
d="M22 495h388v-13l-226 -482h-131l183 389h-214v106z" />
    </font>
</defs>
</svg>
