<?xml version="1.0" standalone="no"?>
<!DOCTYPE svg PUBLIC "-//W3C//DTD SVG 1.1//EN" "http://www.w3.org/Graphics/SVG/1.1/DTD/svg11.dtd" >
<svg xmlns="http://www.w3.org/2000/svg" xmlns:xlink="http://www.w3.org/1999/xlink" version="1.1">
<metadata></metadata>
<defs>
<font id="a_futuricamediumregular" horiz-adv-x="1235" >
<font-face units-per-em="2048" ascent="1638" descent="-410" />
<missing-glyph horiz-adv-x="616" />
<glyph horiz-adv-x="0" />
<glyph unicode="&#xd;" horiz-adv-x="616" />
<glyph unicode=" "  horiz-adv-x="616" />
<glyph unicode="&#x09;" horiz-adv-x="616" />
<glyph unicode="&#xa0;" horiz-adv-x="616" />
<glyph unicode="!" horiz-adv-x="690" d="M199 113q0 60 42.5 102.5t102.5 42.5q61 0 104.5 -42t43.5 -103q0 -60 -43.5 -104t-104.5 -44q-60 0 -102.5 44t-42.5 104zM229 393v1151h232v-1151h-232z" />
<glyph unicode="&#x22;" horiz-adv-x="928" d="M164 1544h235l-41 -657h-151zM528 1544h236l-43 -657h-150z" />
<glyph unicode="#" d="M70 414v180h235l55 299h-210v180h243l72 402h172l-74 -402h244l74 402h172l-74 -402h186v-180h-219l-55 -299h196v-180h-229l-76 -414h-170l76 414h-246l-75 -414h-170l75 414h-202zM475 594h244l55 299h-244z" />
<glyph unicode="$" d="M129 287l178 125q28 -105 110.5 -167.5t196.5 -62.5q118 0 192 77q73 74 73 187q0 182 -297 285q-210 73 -305 170q-97 101 -97 254q0 165 114 284q109 114 273 136v151h131v-151q215 -12 361 -195l-154 -151q-103 135 -248 135q-99 0 -165 -57.5t-66 -139.5 q0 -75 62 -125t227 -108q215 -76 311 -188t96 -285q0 -196 -115 -329t-309 -161v-178h-131v178q-328 21 -438 316z" />
<glyph unicode="%" horiz-adv-x="1741" d="M45 1219q0 158 105.5 262t265.5 104q154 0 259 -103t105 -255q0 -160 -102 -264.5t-260 -104.5t-265.5 104t-107.5 257zM250 1221q0 -81 48.5 -138t117.5 -57q66 0 114 56t48 135q0 84 -47 142t-113 58q-72 0 -120 -56t-48 -140zM317 8l967 1591l137 -69l-960 -1598z M961 330q0 160 105 266t265 106q154 0 259.5 -105t105.5 -259q0 -160 -102.5 -265.5t-260.5 -105.5t-265 104.5t-107 258.5zM1165 328q0 -84 48 -138.5t118 -54.5q66 0 114 56.5t48 136.5q0 86 -47 145t-113 59q-71 0 -119.5 -60t-48.5 -144z" />
<glyph unicode="&#x26;" horiz-adv-x="1505" d="M104 412q0 145 70.5 237t296.5 240q-35 36 -76 90q-88 105 -88 242q0 162 108 261q105 97 273 97q167 0 274 -86q115 -91 115 -248q0 -196 -280 -389q9 -14 143.5 -176t146.5 -174q13 12 93.5 104t93.5 109l147 -150q-88 -102 -194 -221q134 -160 295 -348h-301 q-8 8 -158 188q-230 -223 -471 -223q-220 0 -359 139q-129 129 -129 308zM338 432q0 -101 82 -176.5t182 -75.5q74 0 163 46q96 49 159 128q-153 181 -322 381q-163 -109 -217 -174q-47 -56 -47 -129zM535 1245q0 -84 137 -244q111 75 150 123q44 53 44 121q0 72 -48 113 t-124 41q-65 0 -110 -41q-49 -44 -49 -113z" />
<glyph unicode="'" horiz-adv-x="512" d="M139 1544h236l-43 -657h-152z" />
<glyph unicode="(" horiz-adv-x="639" d="M123 586q0 586 239 1032l168 -82q-80 -149 -132 -393q-58 -271 -58 -557q0 -288 57 -557q52 -244 133 -394l-168 -81q-239 450 -239 1032z" />
<glyph unicode=")" horiz-adv-x="639" d="M109 -365q80 148 133 393q57 270 57 558t-57 556q-52 244 -133 394l167 82q240 -444 240 -1032q0 -591 -240 -1032z" />
<glyph unicode="*" horiz-adv-x="1024" d="M190 1118l179 99l-179 98l76 131l172 -103v201h150v-201l172 103l74 -131l-177 -98l177 -99l-74 -131l-176 105v-203h-146v203l-172 -105z" />
<glyph unicode="+" d="M129 426v207h385v383h207v-383h383v-207h-383v-387h-207v387h-385z" />
<glyph unicode="," horiz-adv-x="612" d="M37 -307l211 581l225 -47l-295 -571z" />
<glyph unicode="-" horiz-adv-x="725" d="M123 563v189h481v-189h-481z" />
<glyph unicode="." horiz-adv-x="612" d="M162 111q0 60 42.5 102.5t102.5 42.5t103 -42.5t43 -102.5q0 -59 -42.5 -102.5t-103.5 -43.5q-59 0 -102 43t-43 103z" />
<glyph unicode="/" horiz-adv-x="1016" d="M0 -193l838 1954l178 -51l-836 -1952z" />
<glyph unicode="0" d="M51 772q0 352 159.5 581.5t407.5 229.5t407 -229t159 -582q0 -352 -159.5 -581.5t-408.5 -229.5q-248 0 -406.5 229t-158.5 582zM287 772q0 -262 91.5 -430t239.5 -168t239 167.5t91 430.5t-91.5 431.5t-240.5 168.5q-146 0 -237.5 -168.5t-91.5 -431.5z" />
<glyph unicode="1" d="M240 0v211h282v1120h-225l45 213h416v-1333h264v-211h-782z" />
<glyph unicode="2" d="M74 0l667 803q144 173 144 293q0 114 -78.5 194t-190.5 80q-111 0 -180.5 -76t-75.5 -200h-249q17 224 146 354q133 135 351 135q217 0 364.5 -138t147.5 -343q0 -182 -119 -324q-8 -22 -221 -276t-250 -287h607v-215h-1063z" />
<glyph unicode="3" d="M102 410h236q18 -240 280 -240q118 0 196.5 80.5t78.5 200.5q0 125 -71 200q-74 78 -204 78h-75v180h47q272 0 272 228q0 108 -67.5 175.5t-178.5 67.5q-97 0 -162 -62q-61 -59 -69 -149h-233q22 197 146.5 305.5t334.5 108.5q201 0 329 -118.5t128 -305.5 q0 -233 -189 -340q104 -41 165 -141q64 -103 64 -242q0 -203 -145.5 -339t-363.5 -136q-232 0 -377 129q-142 125 -142 320z" />
<glyph unicode="4" d="M25 252l981 1327v-1130h178v-197h-178v-252h-228v252h-753zM406 449h372v522z" />
<glyph unicode="5" d="M74 141l94 215q54 -79 152.5 -129.5t203.5 -50.5q144 0 247 100t103 242q0 153 -102 248.5t-264 95.5q-175 0 -293 -121l-27 4l131 799h707v-213h-522l-43 -299q91 21 149 21q226 0 364 -150t138 -397q0 -234 -168 -389.5t-418 -155.5q-275 0 -452 180z" />
<glyph unicode="6" d="M72 475q0 130 63 256q64 130 256 383l346 457l211 -74l-334 -432q-29 -40 -86 -119q80 37 177 37q189 0 321.5 -144t132.5 -352q0 -224 -155.5 -375t-387.5 -151q-230 0 -384 139q-160 145 -160 375zM303 471q0 -136 92 -222q87 -83 217 -83q129 0 220.5 86t91.5 209 q0 144 -84 231.5t-224 87.5q-122 0 -216 -90q-97 -92 -97 -219z" />
<glyph unicode="7" d="M88 1331v213h1147l-807 -1579l-229 68l661 1298h-772z" />
<glyph unicode="8" d="M111 416q0 138 70.5 243.5t187.5 145.5q-213 116 -213 358q0 186 130.5 303t331.5 117q198 0 329.5 -118.5t131.5 -301.5q0 -245 -213 -358q118 -43 191 -158q69 -109 69 -231q0 -207 -149 -333q-142 -122 -359 -122q-214 0 -358 125q-149 128 -149 330zM346 434 q0 -117 76 -190.5t199 -73.5q117 0 193.5 74t76.5 190q0 110 -80 190.5t-190 80.5q-114 0 -194.5 -79t-80.5 -192zM377 1151q0 -107 67.5 -175.5t173.5 -68.5q100 0 170 70.5t70 173.5q0 104 -69 173t-171 69q-104 0 -172.5 -68.5t-68.5 -173.5z" />
<glyph unicode="9" d="M94 1059q0 224 155.5 374t387.5 150q230 0 385 -139q160 -145 160 -375q0 -131 -63.5 -258.5t-256.5 -380.5l-354 -465l-211 74l346 448q41 54 82 113q-81 -39 -176 -39q-189 0 -322 145t-133 353zM330 1083q0 -145 83.5 -232t223.5 -87q121 0 216 92t95 219 q0 136 -91 221q-87 82 -216 82t-220 -86t-91 -209z" />
<glyph unicode=":" horiz-adv-x="612" d="M162 111q0 60 42.5 102.5t102.5 42.5t103 -42.5t43 -102.5q0 -59 -43 -102.5t-103 -43.5t-102.5 43t-42.5 103zM162 864q0 59 43 102.5t102 43.5q60 0 103 -43t43 -103t-43 -102.5t-103 -42.5t-102.5 42.5t-42.5 102.5z" />
<glyph unicode=";" horiz-adv-x="612" d="M37 -307l211 581l225 -47l-295 -571zM197 864q0 59 42 102.5t103 43.5q60 0 102.5 -43t42.5 -103t-42.5 -102.5t-102.5 -42.5t-102.5 42.5t-42.5 102.5z" />
<glyph unicode="&#x3c;" d="M98 442v166l1039 414v-221l-736 -275l736 -276v-219z" />
<glyph unicode="=" d="M119 229v207h997v-207h-997zM119 614v207h997v-207h-997z" />
<glyph unicode="&#x3e;" d="M98 31v219l736 276l-736 275v221l1039 -414v-166z" />
<glyph unicode="?" horiz-adv-x="965" d="M88 1253q0 143 124 238q118 90 282 90q178 0 284 -116q96 -105 96 -261q0 -124 -63 -197q-68 -81 -260 -163q-174 -75 -174 -164q0 -107 106 -107q117 0 117 125h234v-14q0 -132 -90 -215q-98 -90 -269 -90q-163 0 -253 91q-83 84 -83 220q0 111 83 190q64 60 220 134 q112 53 152.5 90.5t40.5 85.5q0 172 -154 172q-68 0 -110.5 -39.5t-42.5 -105.5q0 -29 10 -52h-238q-12 44 -12 88zM328 115q0 62 43.5 106.5t105.5 44.5q64 0 108 -44.5t44 -106.5t-44 -107t-106 -45q-64 0 -107.5 45t-43.5 107z" />
<glyph unicode="@" horiz-adv-x="1749" d="M68 780q0 320 246 558q251 243 601 243q330 0 554 -195q217 -190 217 -458q0 -240 -151 -428q-146 -183 -318 -183q-103 0 -138 127q-42 -48 -119 -83q-91 -42 -184 -42q-143 0 -247 104q-111 111 -111 286q0 185 123 327q132 154 331 154q77 0 159 -36q92 -41 124 -103 l27 98h170l-125 -584q-8 -37 -8 -65q0 -23 30 -23q86 0 168 137q86 145 86 324q0 194 -168 333q-172 142 -420 142q-274 0 -468 -186q-197 -188 -197 -457q0 -325 202 -492q173 -143 455 -143q145 0 276 30q121 27 175 66l166 -127q-59 -50 -222 -92q-181 -45 -370 -45 q-410 0 -637 213.5t-227 599.5zM608 717q0 -105 66 -165q58 -52 145 -52q133 0 210 101q67 89 67 214q0 88 -59 145.5t-154 57.5q-117 0 -198 -94q-77 -90 -77 -207z" />
<glyph unicode="A" horiz-adv-x="1468" d="M-25 0l758 1622l760 -1622h-270l-162 365h-653l-164 -365h-269zM502 575h465l-234 529z" />
<glyph unicode="B" horiz-adv-x="1149" d="M131 0v1544h338q489 0 489 -418q0 -201 -180 -288q148 -38 231 -143.5t83 -254.5q0 -440 -560 -440h-401zM373 203h137q342 0 342 246q0 251 -356 251h-123v-497zM373 887h96q121 0 191.5 58.5t70.5 166.5q0 229 -289 229h-69v-454z" />
<glyph unicode="C" horiz-adv-x="1358" d="M55 772q0 358 236 584q232 223 590 223q217 0 379 -98v-285q-158 158 -396 158q-240 0 -398 -157q-165 -163 -165 -425q0 -268 164 -428q156 -154 399 -154q223 0 398 162v-286q-202 -101 -383 -101q-372 0 -598 223t-226 584z" />
<glyph unicode="D" horiz-adv-x="1409" d="M131 0v1544h373q392 0 626 -220q226 -213 226 -552q0 -356 -227 -563q-230 -209 -637 -209h-361zM373 215h80q315 0 486 143.5t171 415.5q0 254 -171 404q-174 153 -478 153h-88v-1116z" />
<glyph unicode="E" horiz-adv-x="1073" d="M131 0v1544h844v-213h-602v-393h579v-213h-579v-510h600v-215h-842z" />
<glyph unicode="F" horiz-adv-x="971" d="M133 0v1544h782v-213h-540v-393h504v-215h-504v-723h-242z" />
<glyph unicode="G" horiz-adv-x="1642" d="M55 772q0 338 236 572.5t575 234.5q196 0 368.5 -88.5t274.5 -239.5l-192 -135q-175 250 -451 250q-237 0 -402 -172t-165 -422q0 -258 166 -429q161 -167 391 -167q184 0 321 116q142 120 142 298h-399v205h671v-60q0 -345 -204.5 -557.5t-536.5 -212.5q-339 0 -565 225 q-230 229 -230 582z" />
<glyph unicode="H" horiz-adv-x="1444" d="M131 0v1544h242v-614h698v614h242v-1544h-242v717h-698v-717h-242z" />
<glyph unicode="I" horiz-adv-x="512" d="M135 0v1544h242v-1544h-242z" />
<glyph unicode="J" horiz-adv-x="649" d="M-84 41l84 197q68 -54 131 -54q75 0 108 50q35 54 35 182v1128h240v-1136q0 -231 -85 -337t-277 -106q-139 0 -236 76z" />
<glyph unicode="K" horiz-adv-x="1303" d="M133 0v1544h242v-684l616 684h309l-684 -727l705 -817h-320l-626 762v-762h-242z" />
<glyph unicode="L" horiz-adv-x="860" d="M133 0v1544h242v-1329h467v-215h-709z" />
<glyph unicode="M" horiz-adv-x="1690" d="M-6 0l280 1587l570 -1141l569 1141l283 -1587h-254l-142 874l-456 -913l-457 913l-141 -874h-252z" />
<glyph unicode="N" horiz-adv-x="1554" d="M131 0v1581l1063 -1059v1022h229v-1581l-1061 1061v-1024h-231z" />
<glyph unicode="O" horiz-adv-x="1749" d="M55 772q0 332 240 569.5t579 237.5q338 0 579 -237t241 -570q0 -332 -240.5 -569.5t-579.5 -237.5q-338 0 -578.5 237t-240.5 570zM301 772q0 -244 165 -410.5t408 -166.5t409.5 166.5t166.5 410.5t-166.5 412t-409.5 168q-241 0 -407 -168t-166 -412z" />
<glyph unicode="P" horiz-adv-x="1106" d="M133 0v1544h338q590 0 590 -452q0 -229 -142.5 -352.5t-400.5 -123.5h-143v-616h-242zM375 823h94q350 0 350 262q0 252 -364 252h-80v-514z" />
<glyph unicode="Q" horiz-adv-x="1749" d="M55 774q0 332 240 569.5t579 237.5q338 0 579 -237t241 -570q0 -329 -236 -565l207 -221l-252 -33l-119 127q-185 -115 -420 -115q-338 0 -578.5 237t-240.5 570zM301 774q0 -244 165 -410.5t408 -166.5q147 0 259 59l-302 313l256 35l211 -223q152 162 152 393 q0 244 -166.5 412t-409.5 168q-241 0 -407 -168t-166 -412z" />
<glyph unicode="R" horiz-adv-x="1149" d="M131 0v1544h367q257 0 400.5 -116t143.5 -330q0 -163 -91 -279q-98 -125 -271 -155l487 -664h-297l-426 629l-71 4v-633h-242zM373 823h80q354 0 354 262q0 256 -367 256h-67v-518z" />
<glyph unicode="S" horiz-adv-x="1139" d="M80 287l178 125q28 -105 110.5 -167.5t196.5 -62.5q118 0 192 77q72 74 72 187q0 182 -297 285q-210 73 -304 170q-97 101 -97 254q0 184 135 304t340 120q246 0 404 -199l-154 -151q-103 135 -248 135q-99 0 -165 -57.5t-66 -139.5q0 -75 62 -125t227 -108 q215 -76 311 -188t96 -285q0 -219 -141.5 -357.5t-372.5 -138.5q-162 0 -286 80q-134 85 -193 242z" />
<glyph unicode="T" horiz-adv-x="1008" d="M14 1331v213h981v-213h-370v-1331h-240v1331h-371z" />
<glyph unicode="U" horiz-adv-x="1430" d="M123 569v975h242v-932q0 -428 350 -428q352 0 352 428v932h240v-975q0 -278 -161 -441t-431 -163t-431 162.5t-161 441.5z" />
<glyph unicode="V" horiz-adv-x="1303" d="M-25 1544h265l411 -1046l412 1046h264l-676 -1583z" />
<glyph unicode="W" horiz-adv-x="2028" d="M-20 1544h258l342 -987l434 1022l434 -1022l342 987h258l-575 -1583l-459 1063l-459 -1063z" />
<glyph unicode="X" horiz-adv-x="1284" d="M-4 0l512 813l-442 731h284l295 -524l307 524h283l-451 -731l504 -813h-276l-367 604l-373 -604h-276z" />
<glyph unicode="Y" horiz-adv-x="1241" d="M-18 1544h280l359 -604l358 604h281l-519 -856v-688h-241v688z" />
<glyph unicode="Z" horiz-adv-x="1180" d="M6 0l756 1331h-662v213h1057l-754 -1329h719v-215h-1116z" />
<glyph unicode="[" horiz-adv-x="639" d="M113 -463v2157h415v-183h-206v-1792h206v-182h-415z" />
<glyph unicode="\" horiz-adv-x="1016" d="M0 1743l193 18l823 -1857l-193 -17z" />
<glyph unicode="]" horiz-adv-x="639" d="M111 -281h204v1792h-204v183h415v-2157h-415v182z" />
<glyph unicode="^" horiz-adv-x="1024" d="M84 1110l311 469h234l311 -469h-221l-207 287l-207 -287h-221z" />
<glyph unicode="_" horiz-adv-x="1024" d="M-12 -229h1048v-156h-1048v156z" />
<glyph unicode="`" horiz-adv-x="768" d="M156 1454l198 117l258 -371l-106 -63z" />
<glyph unicode="a" horiz-adv-x="1192" d="M51 483q0 223 131.5 369.5t333.5 146.5q211 0 332 -180v150h221v-969h-221v147q-129 -182 -334 -182q-199 0 -331 148.5t-132 369.5zM281 483q0 -139 79.5 -228t206.5 -89q126 0 205.5 88.5t79.5 228.5q0 146 -83 232q-79 84 -208 84q-121 0 -200.5 -89.5t-79.5 -226.5z " />
<glyph unicode="b" horiz-adv-x="1192" d="M123 0v1618h225v-680q0 -89 -4 -121q131 182 336 182q201 0 331 -146t130 -368q0 -220 -131 -370t-328 -150q-211 0 -342 182v-147h-217zM340 487q0 -141 80.5 -231t208.5 -90q126 0 205 90t79 229q0 137 -79.5 225.5t-204.5 88.5q-124 0 -206.5 -87t-82.5 -225z" />
<glyph unicode="c" horiz-adv-x="918" d="M53 483q0 217 148.5 366.5t367.5 149.5q167 0 267 -61v-225q-96 90 -254 90q-124 0 -213.5 -95t-89.5 -227t85 -222.5t211 -90.5q147 0 261 86v-225q-115 -62 -261 -62q-223 0 -372.5 147.5t-149.5 368.5z" />
<glyph unicode="d" horiz-adv-x="1192" d="M51 485q0 222 130 368t331 146q205 0 336 -182q-4 32 -4 121v680h225v-1618h-217v147q-131 -182 -342 -182q-197 0 -328 150t-131 370zM279 485q0 -139 79 -229t205 -90q128 0 208.5 90t80.5 231q0 138 -82.5 225t-206.5 87q-125 0 -204.5 -88.5t-79.5 -225.5z" />
<glyph unicode="e" horiz-adv-x="1124" d="M51 492q0 224 144.5 365.5t373.5 141.5q235 0 375 -144q133 -137 133 -351v-47h-796q0 -125 80 -205t202 -80q216 0 318 164l184 -109q-162 -260 -496 -260q-236 0 -377 143.5t-141 381.5zM293 610h549q-36 201 -269 201q-214 0 -280 -201z" />
<glyph unicode="f" horiz-adv-x="569" d="M20 768v201h127v323q0 192 68.5 276.5t230.5 84.5q53 0 123 -35v-203q-71 31 -114 31q-80 0 -80 -158v-319h194v-201h-194v-768h-228v768h-127z" />
<glyph unicode="g" horiz-adv-x="1192" d="M51 483q0 223 129.5 369.5t331.5 146.5q212 0 336 -182v152h221v-996q0 -557 -491 -557q-211 0 -336.5 103t-153.5 291l236 38q9 -239 268 -239q256 0 256 328v208q-137 -174 -340 -174q-200 0 -328.5 145t-128.5 367zM281 483q0 -143 77 -229t209 -86q121 0 207 97 q84 94 84 222q0 117 -79 211q-87 105 -220 105q-126 0 -204 -92q-74 -90 -74 -228z" />
<glyph unicode="h" horiz-adv-x="1118" d="M123 0v1618h225v-780q107 161 303 161q348 0 348 -401v-598h-225v565q0 242 -162 242q-110 0 -182 -73q-82 -83 -82 -238v-496h-225z" />
<glyph unicode="i" horiz-adv-x="471" d="M90 1386q0 57 42.5 100.5t100.5 43.5q59 0 102.5 -43t43.5 -101t-44 -101.5t-102 -43.5q-57 0 -100 43.5t-43 101.5zM123 0v969h225v-969h-225z" />
<glyph unicode="j" horiz-adv-x="471" d="M90 1386q0 57 42.5 100.5t100.5 43.5q59 0 102.5 -43t43.5 -101t-44 -101.5t-102 -43.5q-57 0 -100 43.5t-43 101.5zM123 -547v1516h225v-1516h-225z" />
<glyph unicode="k" horiz-adv-x="1030" d="M123 0v1618h225v-1010l363 361h303l-463 -439l504 -530h-305l-402 434v-434h-225z" />
<glyph unicode="l" horiz-adv-x="475" d="M125 0v1618h225v-1618h-225z" />
<glyph unicode="m" horiz-adv-x="1649" d="M123 0v969h221v-131q105 161 277 161q101 0 181 -54q71 -47 105 -120q102 174 297 174q326 0 326 -401v-598h-225v565q0 242 -160 242q-205 0 -205 -289v-518h-225v565q0 242 -168 242q-199 0 -199 -311v-496h-225z" />
<glyph unicode="n" horiz-adv-x="1118" d="M123 0v969h221v-131q113 161 307 161q348 0 348 -401v-598h-225v565q0 242 -194 242q-232 0 -232 -311v-496h-225z" />
<glyph unicode="o" horiz-adv-x="1163" d="M49 483q0 214 153 365t380 151q225 0 380 -152q152 -150 152 -364t-152 -364q-155 -152 -380 -152q-227 0 -380 150.5t-153 365.5zM281 483q0 -128 87 -217.5t214 -89.5t215 89t88 218q0 128 -88 218t-215 90t-214 -90t-87 -218z" />
<glyph unicode="p" horiz-adv-x="1192" d="M123 -553v1522h221v-152q128 182 334 182q199 0 331 -147t132 -367q0 -224 -130.5 -372t-332.5 -148q-119 0 -219 68q-63 43 -115 114q0 -7 2 -64.5t2 -72.5v-563h-225zM340 485q0 -139 80.5 -229t208.5 -90q124 0 202 90.5t78 230.5q0 136 -79 224t-205 88 q-122 0 -203.5 -89.5t-81.5 -224.5z" />
<glyph unicode="q" horiz-adv-x="1192" d="M51 485q0 220 131 367t330 147q205 0 334 -182v152h223v-1522h-227v565q0 13 2 70.5t2 64.5q-131 -182 -334 -182q-201 0 -331 147.5t-130 372.5zM281 487q0 -139 78 -230t202 -91q128 0 208.5 89.5t80.5 229.5q0 135 -81.5 224.5t-203.5 89.5q-126 0 -205 -87.5 t-79 -224.5z" />
<glyph unicode="r" horiz-adv-x="762" d="M125 0v969h219v-162q107 188 270 188q62 0 129 -26l-51 -213q-47 30 -108 30q-103 0 -167 -78q-67 -82 -67 -227v-481h-225z" />
<glyph unicode="s" horiz-adv-x="838" d="M59 137l134 144q94 -127 215 -127q58 0 98.5 34.5t40.5 87.5t-38 81.5t-171 80.5q-109 43 -160 94q-67 67 -67 175q0 126 97 211q94 81 228 81q173 0 271 -125l-119 -137q-72 80 -154 80q-48 0 -78 -27t-30 -65q0 -39 33 -65q38 -30 145 -68q268 -95 268 -295 q0 -140 -105 -235t-261 -95q-211 0 -347 170z" />
<glyph unicode="t" horiz-adv-x="512" d="M20 768v201h117v417h225v-417h150v-201h-150v-768h-225v768h-117z" />
<glyph unicode="u" horiz-adv-x="1118" d="M117 418v551h225v-533q0 -270 217 -270t217 268v535h225v-574q0 -201 -110 -312q-114 -116 -332 -116q-211 0 -326.5 118t-115.5 333z" />
<glyph unicode="v" horiz-adv-x="934" d="M-25 969h248l244 -549l244 549h247l-491 -1004z" />
<glyph unicode="w" horiz-adv-x="1487" d="M-20 969h237l225 -563l299 595l4 -4l297 -591l226 563h239l-436 -1004l-328 619l-329 -619z" />
<glyph unicode="x" horiz-adv-x="1118" d="M-18 0l446 526l-358 443h272l215 -285l231 285h283l-369 -443l435 -526h-277l-303 367l-293 -367h-282z" />
<glyph unicode="y" horiz-adv-x="1067" d="M0 969h252l303 -652l291 652h246l-697 -1522h-241l284 625z" />
<glyph unicode="z" horiz-adv-x="952" d="M4 0l535 768h-471v201h872l-532 -766h503v-203h-907z" />
<glyph unicode="{" horiz-adv-x="768" d="M98 526v179h33q152 0 152 274v479q0 236 227 236h160v-189h-107q-71 0 -71 -106v-445q0 -276 -156 -338q156 -60 156 -337v-447q0 -106 71 -106h107v-189h-160q-227 0 -227 236v481q0 136 -31 199q-35 73 -121 73h-33z" />
<glyph unicode="|" horiz-adv-x="768" d="M281 -426v2062h206v-2062h-206z" />
<glyph unicode="}" horiz-adv-x="768" d="M98 -274h107q71 0 71 106v447q0 277 156 337q-156 62 -156 338v445q0 106 -71 106h-107v189h160q227 0 227 -236v-479q0 -274 152 -274h33v-179h-33q-86 0 -121 -73q-31 -63 -31 -199v-481q0 -236 -227 -236h-160v189z" />
<glyph unicode="~" d="M78 469q149 270 323 270q86 0 238 -105.5t188 -105.5q79 0 181 170l151 -116q-154 -269 -325 -269q-87 0 -239.5 105.5t-186.5 105.5q-88 0 -181 -172z" />
<glyph unicode="&#xa9;" horiz-adv-x="2048" d="M217 776q0 333 237 570t570 237q334 0 570.5 -236t236.5 -569t-237 -570t-570 -237q-334 0 -570.5 236t-236.5 569zM358 776q0 -274 195 -467.5t471 -193.5q275 0 469.5 194t194.5 467q0 272 -195 467t-469 195q-275 0 -470.5 -194.5t-195.5 -467.5zM610 778 q0 206 121.5 335.5t327.5 129.5q142 0 246 -82t131 -223h-140q-33 168 -241 168q-142 0 -223 -94q-78 -89 -78 -232q0 -142 78 -232q82 -95 225 -95q199 0 239 176h142q-27 -150 -135 -234q-103 -80 -250 -80q-191 0 -317 129.5t-126 333.5z" />
<glyph unicode="&#xab;" horiz-adv-x="1073" d="M59 655l369 496l135 -98l-293 -398l295 -397l-135 -96zM479 655l369 496l135 -98l-295 -398l295 -397l-135 -96z" />
<glyph unicode="&#xad;" horiz-adv-x="725" d="M123 563v189h481v-189h-481z" />
<glyph unicode="&#xae;" horiz-adv-x="2048" d="M217 776q0 335 237 572t570 237t570 -237t237 -570q0 -334 -236 -570.5t-569 -236.5q-334 0 -571.5 236t-237.5 569zM358 778q0 -274 195 -468.5t471 -194.5q275 0 469.5 194t194.5 467q0 274 -194 469t-470 195q-275 0 -470.5 -194.5t-195.5 -467.5zM711 324v893h397 q305 0 305 -242q0 -226 -239 -246l225 -405h-164l-221 405h-160v-405h-143zM854 858h238q106 0 144 28q34 24 34 87q0 106 -178 106h-238v-221z" />
<glyph unicode="&#xbb;" horiz-adv-x="1073" d="M90 258l295 397l-293 398l135 98l367 -496l-369 -493zM510 258l293 397l-293 398l135 98l369 -496l-371 -493z" />
<glyph unicode="&#x401;" horiz-adv-x="1073" d="M131 0v1544h844v-213h-602v-393h579v-213h-579v-510h600v-215h-842zM209 1776q0 57 41 98t98 41t97 -41t40 -98q0 -56 -40.5 -97t-96.5 -41t-97.5 41t-41.5 97zM618 1776q0 57 40.5 98t97.5 41q56 0 97.5 -41.5t41.5 -97.5t-41 -97t-98 -41t-97.5 40.5t-40.5 97.5z" />
<glyph unicode="&#x410;" horiz-adv-x="1468" d="M-25 0l758 1622l760 -1622h-270l-162 365h-653l-164 -365h-269zM502 575h465l-234 529z" />
<glyph unicode="&#x411;" horiz-adv-x="1153" d="M131 0v1544h852v-213h-610v-393h159q242 0 395 -112q171 -126 171 -357q0 -233 -171 -358q-152 -111 -395 -111h-401zM373 209h149q328 0 328 260q0 128 -92 197q-86 65 -236 65h-149v-522z" />
<glyph unicode="&#x412;" horiz-adv-x="1149" d="M131 0v1544h338q489 0 489 -418q0 -201 -180 -288q148 -38 231 -143.5t83 -254.5q0 -440 -560 -440h-401zM373 203h137q342 0 342 246q0 251 -356 251h-123v-497zM373 887h96q121 0 191.5 58.5t70.5 166.5q0 229 -289 229h-69v-454z" />
<glyph unicode="&#x413;" horiz-adv-x="924" d="M135 0v1544h764v-213h-524v-1331h-240z" />
<glyph unicode="&#x414;" horiz-adv-x="1364" d="M0 215q203 12 203 451v878h989v-1329h147v-518h-219v303h-901v-303h-219v518zM309 215h643v1114h-518v-719q0 -286 -125 -395z" />
<glyph unicode="&#x415;" horiz-adv-x="1073" d="M131 0v1544h844v-213h-602v-393h579v-213h-579v-510h600v-215h-842z" />
<glyph unicode="&#x416;" horiz-adv-x="1894" d="M-12 0l606 811l-565 733h282l518 -688v688h238v-688l516 688h283l-566 -733l607 -811h-293l-547 756v-756h-238v756l-546 -756h-295z" />
<glyph unicode="&#x417;" horiz-adv-x="1192" d="M45 289l154 131q126 -240 372 -240q133 0 213 73.5t80 195.5q0 124 -87.5 197t-235.5 73h-162v207h158q117 0 191 56q81 62 81 169q0 217 -240 217q-92 0 -177 -42q-93 -47 -146 -130l-125 152q185 235 475 235q209 0 334 -106q129 -111 129 -308q0 -111 -56.5 -198 t-152.5 -129q268 -89 268 -393q0 -215 -166 -354q-154 -130 -368 -130q-350 0 -539 324z" />
<glyph unicode="&#x418;" horiz-adv-x="1483" d="M131 -35v1579h242v-1012l979 1047v-1579h-240v1036z" />
<glyph unicode="&#x419;" horiz-adv-x="1483" d="M131 -35v1579h242v-1012l979 1047v-1579h-240v1036zM412 1958h211q0 -162 145 -162q143 0 143 162h211q0 -142 -106 -240t-248 -98t-247 96q-109 99 -109 242z" />
<glyph unicode="&#x41a;" horiz-adv-x="1303" d="M133 0v1544h242v-684l616 684h309l-684 -727l705 -817h-320l-626 762v-762h-242z" />
<glyph unicode="&#x41b;" horiz-adv-x="1315" d="M-31 4l29 221q39 -18 84 -18q71 0 98 53q31 62 31 236v1048h969v-1544h-242v1329h-494v-840q0 -251 -59 -362q-74 -141 -270 -141q-67 0 -146 18z" />
<glyph unicode="&#x41c;" horiz-adv-x="1690" d="M-6 0l280 1587l570 -1141l569 1141l283 -1587h-254l-142 874l-456 -913l-457 913l-141 -874h-252z" />
<glyph unicode="&#x41d;" horiz-adv-x="1444" d="M131 0v1544h242v-614h698v614h242v-1544h-242v717h-698v-717h-242z" />
<glyph unicode="&#x41e;" horiz-adv-x="1749" d="M55 772q0 332 240 569.5t579 237.5q338 0 579 -237t241 -570q0 -332 -240.5 -569.5t-579.5 -237.5q-338 0 -578.5 237t-240.5 570zM301 772q0 -244 165 -410.5t408 -166.5t409.5 166.5t166.5 410.5t-166.5 412t-409.5 168q-241 0 -407 -168t-166 -412z" />
<glyph unicode="&#x41f;" horiz-adv-x="1432" d="M131 0v1544h1169v-1544h-239v1329h-688v-1329h-242z" />
<glyph unicode="&#x420;" horiz-adv-x="1106" d="M133 0v1544h338q590 0 590 -452q0 -229 -142.5 -352.5t-400.5 -123.5h-143v-616h-242zM375 823h94q350 0 350 262q0 252 -364 252h-80v-514z" />
<glyph unicode="&#x421;" horiz-adv-x="1358" d="M55 772q0 358 236 584q232 223 590 223q217 0 379 -98v-285q-158 158 -396 158q-240 0 -398 -157q-165 -163 -165 -425q0 -268 164 -428q156 -154 399 -154q223 0 398 162v-286q-202 -101 -383 -101q-372 0 -598 223t-226 584z" />
<glyph unicode="&#x422;" horiz-adv-x="1008" d="M14 1331v213h981v-213h-370v-1331h-240v1331h-371z" />
<glyph unicode="&#x423;" horiz-adv-x="1298" d="M-12 1544h278l418 -801l387 801h264l-760 -1544h-264l246 492z" />
<glyph unicode="&#x424;" horiz-adv-x="1702" d="M51 811q0 265 165 423.5t450 158.5h65v186h240v-186h67q285 0 449 -158t164 -424t-164 -423t-449 -157h-67v-231h-240v231h-65q-286 0 -450.5 157t-164.5 423zM295 811q0 -373 389 -373h53v750h-53q-389 0 -389 -377zM965 438h55q387 0 387 373q0 377 -387 377h-55v-750z " />
<glyph unicode="&#x425;" horiz-adv-x="1284" d="M-4 0l512 813l-442 731h284l295 -524l307 524h283l-451 -731l504 -813h-276l-367 604l-373 -604h-276z" />
<glyph unicode="&#x426;" horiz-adv-x="1438" d="M135 0v1544h242v-1329h667v1329h240v-1329h146v-518h-220v303h-1075z" />
<glyph unicode="&#x427;" horiz-adv-x="1266" d="M96 1104v440h240v-407q0 -151 57 -217t185 -66q182 0 313 59v631h242v-1544h-242v696q-144 -59 -332 -59q-463 0 -463 467z" />
<glyph unicode="&#x428;" horiz-adv-x="2011" d="M133 0v1544h240v-1329h514v1329h237v-1329h514v1329h240v-1544h-1745z" />
<glyph unicode="&#x429;" horiz-adv-x="2034" d="M135 0v1544h242v-1329h512v1329h239v-1329h512v1329h242v-1329h143v-518h-219v303h-1671z" />
<glyph unicode="&#x42a;" horiz-adv-x="1315" d="M12 1329v215h539v-606h162q241 0 391 -112q166 -125 166 -357q0 -234 -166 -358q-149 -111 -391 -111h-402v1329h-299zM551 209h151q171 0 247 57q81 61 81 203q0 262 -328 262h-151v-522z" />
<glyph unicode="&#x42b;" horiz-adv-x="1548" d="M131 0v1544h240v-606h151q241 0 391 -112q166 -125 166 -357q0 -234 -166 -358q-149 -111 -391 -111h-391zM371 209h143q170 0 246 57q80 61 80 203q0 262 -326 262h-143v-522zM1176 0v1544h241v-1544h-241z" />
<glyph unicode="&#x42c;" horiz-adv-x="1137" d="M131 0v1544h242v-606h159q241 0 391 -112q167 -125 167 -357q0 -234 -167 -358q-149 -111 -391 -111h-401zM373 209h149q171 0 247 57q81 61 81 203q0 262 -328 262h-149v-522z" />
<glyph unicode="&#x42d;" horiz-adv-x="1327" d="M96 72v262q169 -154 398 -154q236 0 377 138t155 382h-678v203h670q-29 214 -169 340q-137 123 -339 123q-109 0 -218 -37q-120 -40 -194 -112v258q169 104 426 104q330 0 538 -218q210 -222 210 -583q0 -382 -224 -602q-214 -211 -561 -211q-203 0 -391 107z" />
<glyph unicode="&#x42e;" horiz-adv-x="2144" d="M131 0v1544h240v-624h184q48 283 258 469q214 190 498 190q323 0 549.5 -236.5t226.5 -570.5q0 -333 -226 -570t-550 -237q-306 0 -527 218q-217 216 -239 530h-174v-713h-240zM780 772q0 -246 150.5 -412.5t380.5 -166.5q229 0 381.5 166.5t152.5 412.5t-152 412 t-382 166q-229 0 -380 -166t-151 -412z" />
<glyph unicode="&#x42f;" horiz-adv-x="1169" d="M18 0l463 653q-173 28 -271.5 138.5t-98.5 273.5q0 239 163 366q144 113 375 113h389v-1544h-239v633h-76l-424 -633h-281zM350 1079q0 -262 352 -262h97v514h-117q-332 0 -332 -252z" />
<glyph unicode="&#x430;" horiz-adv-x="1192" d="M51 483q0 223 131.5 369.5t333.5 146.5q211 0 332 -180v150h221v-969h-221v147q-129 -182 -334 -182q-199 0 -331 148.5t-132 369.5zM281 483q0 -139 79.5 -228t206.5 -89q126 0 205.5 88.5t79.5 228.5q0 146 -83 232q-79 84 -208 84q-121 0 -200.5 -89.5t-79.5 -226.5z " />
<glyph unicode="&#x431;" horiz-adv-x="1176" d="M86 612q0 461 137 661q124 181 385 181q164 0 225 37q58 36 58 127h211q0 -354 -443 -354q-332 0 -356 -443q125 170 346 170q222 0 353 -152q122 -140 122 -354q0 -221 -150 -370.5t-362 -149.5q-278 0 -414 205q-112 169 -112 442zM319 479q0 -134 74 -222 q80 -97 217 -97t214 100q69 89 69 219q0 140 -74 226q-77 90 -209 90q-127 0 -208 -84q-83 -87 -83 -232z" />
<glyph unicode="&#x432;" horiz-adv-x="1008" d="M123 0v969h416q189 0 279 -88q67 -65 67 -160q0 -65 -37 -116.5t-90 -67.5q200 -58 200 -263q0 -106 -78 -181q-98 -93 -286 -93h-471zM344 178h209q170 0 170 111q0 129 -199 129h-180v-240zM344 575h148q82 0 132 32t50 79q0 105 -156 105h-174v-216z" />
<glyph unicode="&#x433;" horiz-adv-x="731" d="M123 0v969h588v-199h-363v-770h-225z" />
<glyph unicode="&#x434;" horiz-adv-x="1075" d="M0 199q160 0 160 258v512h786v-770h115v-426h-213v227h-637v-227h-211v426zM305 199h418v571h-346v-328q0 -185 -72 -243z" />
<glyph unicode="&#x435;" horiz-adv-x="1124" d="M51 492q0 224 144.5 365.5t373.5 141.5q235 0 375 -144q133 -137 133 -351v-47h-796q0 -125 80 -205t202 -80q216 0 318 164l184 -109q-162 -260 -496 -260q-236 0 -377 143.5t-141 381.5zM293 610h549q-36 201 -269 201q-214 0 -280 -201z" />
<glyph unicode="&#x436;" horiz-adv-x="1505" d="M-14 0l442 508l-405 461h288l330 -414v414h223v-414l330 414h289l-404 -461l441 -508h-299l-357 455v-455h-223v455l-354 -455h-301z" />
<glyph unicode="&#x437;" horiz-adv-x="922" d="M45 158l125 145q108 -151 279 -151q182 0 182 139q0 121 -172 121h-135v172h120q174 0 174 116q0 119 -174 119q-163 0 -256 -119l-114 142q147 157 387 157q176 0 273 -73.5t97 -200.5q0 -143 -135 -209q170 -70 170 -242q0 -147 -123 -231q-111 -76 -282 -76 q-273 0 -416 191z" />
<glyph unicode="&#x438;" horiz-adv-x="1143" d="M123 -35v1004h225v-570l672 600v-999h-225v569z" />
<glyph unicode="&#x439;" horiz-adv-x="1143" d="M123 -35v1004h225v-570l672 600v-999h-225v569zM319 1319h177q0 -121 100 -121q98 0 98 121h176q0 -123 -90 -199q-80 -67 -184 -67t-185 66q-92 76 -92 200z" />
<glyph unicode="&#x43a;" horiz-adv-x="1014" d="M131 0v969h225v-394l351 394h290l-442 -461l479 -508h-293l-385 428v-428h-225z" />
<glyph unicode="&#x43b;" horiz-adv-x="1057" d="M-20 2l20 193q39 -21 78 -21q44 0 63 29q23 36 23 131v635h762v-969h-226v770h-319v-465q0 -330 -231 -330q-81 0 -170 27z" />
<glyph unicode="&#x43c;" horiz-adv-x="1188" d="M0 0l238 1006l356 -652l356 652l238 -1006h-227l-99 436l-268 -473l-268 473l-99 -436h-227z" />
<glyph unicode="&#x43d;" horiz-adv-x="1137" d="M123 0v969h225v-373h440v373h226v-969h-226v410h-440v-410h-225z" />
<glyph unicode="&#x43e;" horiz-adv-x="1163" d="M49 483q0 214 153 365t380 151q225 0 380 -152q152 -150 152 -364t-152 -364q-155 -152 -380 -152q-227 0 -380 150.5t-153 365.5zM281 483q0 -128 87 -217.5t214 -89.5t215 89t88 218q0 128 -88 218t-215 90t-214 -90t-87 -218z" />
<glyph unicode="&#x43f;" horiz-adv-x="1118" d="M123 0v969h872v-969h-225v770h-422v-770h-225z" />
<glyph unicode="&#x440;" horiz-adv-x="1192" d="M123 -553v1522h221v-152q128 182 334 182q199 0 331 -147t132 -367q0 -224 -130.5 -372t-332.5 -148q-119 0 -219 68q-63 43 -115 114q0 -7 2 -64.5t2 -72.5v-563h-225zM340 485q0 -139 80.5 -229t208.5 -90q124 0 202 90.5t78 230.5q0 136 -79 224t-205 88 q-122 0 -203.5 -89.5t-81.5 -224.5z" />
<glyph unicode="&#x441;" horiz-adv-x="918" d="M53 483q0 217 148.5 366.5t367.5 149.5q167 0 267 -61v-225q-96 90 -254 90q-124 0 -213.5 -95t-89.5 -227t85 -222.5t211 -90.5q147 0 261 86v-225q-115 -62 -261 -62q-223 0 -372.5 147.5t-149.5 368.5z" />
<glyph unicode="&#x442;" horiz-adv-x="768" d="M12 770v199h744v-199h-258v-770h-228v770h-258z" />
<glyph unicode="&#x443;" horiz-adv-x="1067" d="M0 969h252l303 -652l291 652h246l-697 -1522h-241l284 625z" />
<glyph unicode="&#x444;" horiz-adv-x="1597" d="M53 496q0 224 113 361q117 142 315 142q96 0 205 -73v692h225v-692q110 73 205 73q198 0 315 -142q113 -137 113 -361q0 -223 -114 -361q-119 -143 -322 -143q-127 0 -197 67v-612h-225v612q-70 -67 -197 -67q-203 0 -322 143q-114 138 -114 361zM285 494q0 -138 54 -219 q58 -87 163 -87q119 0 188 66v481q-102 68 -182 68q-105 0 -164 -86.5t-59 -222.5zM907 254q69 -66 189 -66q105 0 163 87q54 81 54 219q0 136 -59 222.5t-164 86.5q-81 0 -183 -68v-481z" />
<glyph unicode="&#x445;" horiz-adv-x="1118" d="M-18 0l446 526l-358 443h272l215 -285l231 285h283l-369 -443l435 -526h-277l-303 367l-293 -367h-282z" />
<glyph unicode="&#x446;" horiz-adv-x="1106" d="M125 0v969h225v-770h400v770h225v-770h115v-426h-211v227h-754z" />
<glyph unicode="&#x447;" horiz-adv-x="1014" d="M98 643v326h221v-289q0 -148 140 -148q122 0 205 54v383h225v-969h-225v399q-117 -53 -238 -53q-328 0 -328 297z" />
<glyph unicode="&#x448;" horiz-adv-x="1616" d="M123 0v969h223v-770h350v770h224v-770h350v770h223v-969h-1370z" />
<glyph unicode="&#x449;" horiz-adv-x="1622" d="M125 0v969h223v-770h350v770h224v-770h350v770h223v-770h115v-426h-213v227h-1272z" />
<glyph unicode="&#x44a;" horiz-adv-x="1051" d="M18 776v193h441v-357h153q174 0 277 -71q117 -80 117 -236q0 -157 -117 -236q-102 -69 -277 -69h-376v776h-218zM459 182h141q178 0 178 125t-178 125h-141v-250z" />
<glyph unicode="&#x44b;" horiz-adv-x="1315" d="M123 0v969h223v-357h139q174 0 277 -71q117 -80 117 -236q0 -157 -117 -236q-102 -69 -277 -69h-362zM346 182h125q178 0 178 125t-176 125h-127v-250zM967 0v969h225v-969h-225z" />
<glyph unicode="&#x44c;" horiz-adv-x="940" d="M123 0v969h225v-357h154q173 0 276 -71q117 -80 117 -236q0 -157 -117 -236q-102 -69 -276 -69h-379zM348 182h139q179 0 179 125t-177 125h-141v-250z" />
<glyph unicode="&#x44d;" horiz-adv-x="934" d="M82 37v215q116 -98 305 -98q112 0 189 72q73 68 90 177h-385v177h378q-22 104 -92 168q-75 69 -180 69q-202 0 -305 -94v215q117 61 313 61q212 0 349 -145.5t137 -368.5q0 -221 -129 -367q-135 -153 -357 -153q-208 0 -313 72z" />
<glyph unicode="&#x44e;" horiz-adv-x="1534" d="M123 0v969h225v-383h121q31 183 166 296q139 117 338 117q230 0 373 -148q139 -145 139 -368q0 -221 -142 -368q-144 -150 -370 -150q-207 0 -346 125q-133 119 -158 313h-121v-403h-225zM688 483q0 -142 75 -227q77 -88 210 -88t210 87q74 85 74 228q0 141 -74 227 q-77 89 -210 89q-132 0 -208.5 -87t-76.5 -229z" />
<glyph unicode="&#x44f;" horiz-adv-x="977" d="M41 0l252 379q-221 56 -221 285q0 159 122 238q104 67 283 67h377v-969h-227v367h-103l-223 -367h-260zM301 653q0 -71 41.5 -100t138.5 -29h146v256h-144q-182 0 -182 -127z" />
<glyph unicode="&#x451;" horiz-adv-x="1124" d="M51 492q0 224 144.5 365.5t373.5 141.5q235 0 375 -144q133 -137 133 -351v-47h-796q0 -125 80 -205t202 -80q216 0 318 164l184 -109q-162 -260 -496 -260q-236 0 -377 143.5t-141 381.5zM233 1245q0 57 41.5 98t98.5 41t97 -41t40 -98q0 -56 -40.5 -96.5t-96.5 -40.5 t-98 40.5t-42 96.5zM293 610h549q-36 201 -269 201q-214 0 -280 -201zM643 1245q0 57 40 98t97 41q56 0 98 -41.5t42 -97.5q0 -55 -41.5 -96t-98.5 -41t-97 40t-40 97z" />
<glyph unicode="&#x2000;" horiz-adv-x="979" />
<glyph unicode="&#x2001;" horiz-adv-x="1958" />
<glyph unicode="&#x2002;" horiz-adv-x="979" />
<glyph unicode="&#x2003;" horiz-adv-x="1958" />
<glyph unicode="&#x2004;" horiz-adv-x="652" />
<glyph unicode="&#x2005;" horiz-adv-x="489" />
<glyph unicode="&#x2006;" horiz-adv-x="326" />
<glyph unicode="&#x2007;" horiz-adv-x="326" />
<glyph unicode="&#x2008;" horiz-adv-x="244" />
<glyph unicode="&#x2009;" horiz-adv-x="391" />
<glyph unicode="&#x200a;" horiz-adv-x="108" />
<glyph unicode="&#x2010;" horiz-adv-x="725" d="M123 563v189h481v-189h-481z" />
<glyph unicode="&#x2011;" horiz-adv-x="725" d="M123 563v189h481v-189h-481z" />
<glyph unicode="&#x2012;" horiz-adv-x="725" d="M123 563v189h481v-189h-481z" />
<glyph unicode="&#x2013;" horiz-adv-x="1024" d="M-12 563v189h1048v-189h-1048z" />
<glyph unicode="&#x2014;" horiz-adv-x="2048" d="M-12 563v189h2072v-189h-2072z" />
<glyph unicode="&#x2018;" horiz-adv-x="612" d="M104 993l297 578l142 -37l-234 -590z" />
<glyph unicode="&#x2019;" horiz-adv-x="612" d="M70 981l233 590l205 -49l-295 -578z" />
<glyph unicode="&#x201a;" horiz-adv-x="612" d="M96 -311l234 594l205 -54l-297 -577z" />
<glyph unicode="&#x201c;" horiz-adv-x="995" d="M104 993l297 578l142 -37l-234 -590zM485 993l297 578l144 -37l-236 -590z" />
<glyph unicode="&#x201d;" horiz-adv-x="995" d="M70 981l233 590l205 -49l-295 -578zM451 981l235 590l205 -49l-297 -578z" />
<glyph unicode="&#x201e;" horiz-adv-x="995" d="M90 -311l234 590l204 -50l-297 -577zM471 -311l234 590l204 -50l-295 -577z" />
<glyph unicode="&#x2026;" horiz-adv-x="2048" d="M195 113q0 60 43 102.5t104 42.5q60 0 102.5 -42t42.5 -103t-42 -104.5t-103 -43.5q-60 0 -103.5 44t-43.5 104zM877 113q0 60 43 102.5t104 42.5q60 0 102.5 -42t42.5 -103t-42 -104.5t-103 -43.5q-60 0 -103.5 44t-43.5 104zM1559 113q0 60 43.5 102.5t103.5 42.5 t103.5 -42t43.5 -103q0 -60 -43 -104t-104 -44q-60 0 -103.5 44t-43.5 104z" />
<glyph unicode="&#x202f;" horiz-adv-x="391" />
<glyph unicode="&#x2039;" horiz-adv-x="768" d="M117 655l368 496l138 -98l-295 -398l297 -397l-138 -96z" />
<glyph unicode="&#x203a;" horiz-adv-x="768" d="M143 258l297 397l-295 398l138 98l368 -496l-370 -493z" />
<glyph unicode="&#x205f;" horiz-adv-x="489" />
<glyph unicode="&#x2122;" horiz-adv-x="2048" d="M86 1407v137h729v-137h-291v-717h-149v717h-289zM969 690v854h241l248 -579l250 579h240v-854h-148v727l-299 -727h-90l-291 727v-727h-151z" />
<glyph unicode="&#x25fc;" horiz-adv-x="970" d="M0 0v970h970v-970h-970z" />
</font>
</defs>
</svg>
